<svg width="30" height="31" viewBox="0 0 30 31" fill="none" xmlns="http://www.w3.org/2000/svg">
<path d="M23.7221 18.6115C23.107 17.971 22.3652 17.6286 21.5789 17.6286C20.799 17.6286 20.0507 17.9647 19.4103 18.6051L17.4066 20.6025C17.2417 20.5138 17.0768 20.4313 16.9183 20.3489C16.69 20.2348 16.4744 20.127 16.2906 20.0128C14.4136 18.8207 12.7079 17.2672 11.072 15.2571C10.2794 14.2553 9.74673 13.4119 9.35993 12.5559C9.87988 12.0803 10.3618 11.5857 10.831 11.1102C11.0086 10.9326 11.1861 10.7487 11.3637 10.5712C12.6953 9.23959 12.6953 7.51486 11.3637 6.18327L9.63259 4.4522C9.43602 4.25563 9.23311 4.05272 9.04288 3.84981C8.66243 3.45667 8.26295 3.05085 7.85079 2.6704C7.23572 2.06167 6.50017 1.73828 5.72658 1.73828C4.95299 1.73828 4.20476 2.06167 3.57067 2.6704C3.56433 2.67674 3.56433 2.67674 3.55799 2.68308L1.40207 4.85802C0.590434 5.66965 0.127547 6.65884 0.026092 7.80654C-0.12609 9.65809 0.419229 11.3828 0.83773 12.5115C1.86496 15.2825 3.39946 17.8506 5.68854 20.6025C8.46586 23.9188 11.8075 26.5376 15.6248 28.3828C17.0832 29.074 19.0298 29.892 21.2048 30.0315C21.3379 30.0378 21.4774 30.0442 21.6043 30.0442C23.069 30.0442 24.2991 29.5179 25.263 28.4716C25.2693 28.4589 25.282 28.4526 25.2883 28.4399C25.6181 28.0404 25.9985 27.679 26.398 27.2922C26.6706 27.0322 26.9496 26.7596 27.2223 26.4742C27.8501 25.8211 28.1798 25.0602 28.1798 24.2803C28.1798 23.494 27.8437 22.7394 27.2033 22.1053L23.7221 18.6115ZM25.9922 25.2885C25.9858 25.2885 25.9858 25.2948 25.9922 25.2885C25.7449 25.5548 25.4912 25.7957 25.2186 26.0621C24.8064 26.4552 24.3879 26.8674 23.9948 27.3302C23.3543 28.0151 22.5998 28.3385 21.6106 28.3385C21.5155 28.3385 21.414 28.3384 21.3189 28.3321C19.4357 28.2116 17.6856 27.4761 16.373 26.8483C12.784 25.1109 9.63259 22.6443 7.01379 19.5182C4.85153 16.9121 3.4058 14.5026 2.44832 11.9155C1.85862 10.3366 1.64303 9.10643 1.73814 7.94604C1.80155 7.20416 2.08689 6.58909 2.61319 6.06279L4.77544 3.90054C5.08615 3.60885 5.41588 3.45033 5.73926 3.45033C6.13874 3.45033 6.46213 3.69129 6.66504 3.89419C6.67138 3.90054 6.67772 3.90688 6.68406 3.91322C7.07086 4.27465 7.43863 4.64876 7.82543 5.04824C8.02199 5.25115 8.22491 5.45406 8.42781 5.66331L10.1589 7.39438C10.831 8.06652 10.831 8.68793 10.1589 9.36007C9.975 9.54396 9.79745 9.72784 9.61357 9.90539C9.08093 10.4507 8.57366 10.958 8.022 11.4526C8.00931 11.4653 7.99663 11.4716 7.99029 11.4843C7.44497 12.0296 7.54643 12.5622 7.66056 12.9237C7.6669 12.9427 7.67324 12.9617 7.67959 12.9807C8.12979 14.0714 8.76388 15.0986 9.7277 16.3224L9.73404 16.3287C11.4841 18.4847 13.3293 20.165 15.3648 21.4522C15.6248 21.6171 15.8911 21.7502 16.1447 21.8771C16.373 21.9912 16.5886 22.099 16.7725 22.2131C16.7978 22.2258 16.8232 22.2448 16.8486 22.2575C17.0641 22.3653 17.2671 22.416 17.4763 22.416C18.0026 22.416 18.3323 22.0863 18.4401 21.9785L20.6087 19.8099C20.8243 19.5943 21.1667 19.3343 21.5662 19.3343C21.9593 19.3343 22.2827 19.5816 22.4793 19.7972C22.4856 19.8036 22.4856 19.8036 22.492 19.8099L25.9858 23.3038C26.6389 23.9505 26.6389 24.6163 25.9922 25.2885Z" fill="white"/>
<path d="M16.2144 7.14541C17.8757 7.42441 19.3848 8.21069 20.5896 9.41546C21.7944 10.6202 22.5743 12.1294 22.8597 13.7907C22.9294 14.2092 23.2909 14.5009 23.703 14.5009C23.7537 14.5009 23.7981 14.4945 23.8489 14.4882C24.3181 14.4121 24.6288 13.9682 24.5527 13.499C24.2103 11.4889 23.2591 9.65642 21.8071 8.20434C20.355 6.75227 18.5225 5.80114 16.5124 5.45873C16.0432 5.38264 15.6057 5.69334 15.5232 6.15623C15.4408 6.61911 15.7452 7.06932 16.2144 7.14541Z" fill="white"/>
<path d="M29.988 13.2529C29.4237 9.94293 27.8638 6.931 25.467 4.53413C23.0701 2.13726 20.0582 0.577393 16.7482 0.0130506C16.2853 -0.0693814 15.8478 0.247665 15.7654 0.710552C15.6893 1.17978 16 1.6173 16.4692 1.69974C19.4241 2.20067 22.119 3.60201 24.2622 5.7389C26.4054 7.88213 27.8004 10.577 28.3014 13.5319C28.3711 13.9504 28.7325 14.2421 29.1447 14.2421C29.1954 14.2421 29.2398 14.2357 29.2905 14.2294C29.7534 14.1596 30.0705 13.7158 29.988 13.2529Z" fill="white"/>
</svg>
