<svg width="183" height="46" viewBox="0 0 183 46" fill="none" xmlns="http://www.w3.org/2000/svg">
<rect opacity="0.6" x="0.5" y="0.5" width="45" height="45" stroke="white"/>
<path d="M10.2207 30.3404V10.2222H27.4316V30.3404" stroke="white" stroke-width="4.5"/>
<path d="M35.7773 15.6595V35.7777H18.5665V15.6595" stroke="#15161C" stroke-width="4.5"/>
<path d="M70.4285 29.941L70.5116 32.5649C69.2106 32.8501 66.8854 33.1923 65.1139 33.1923C59.3287 33.1923 58 29.7984 58 23.1247C58 16.0802 59.4394 13.0285 65.1139 13.0285C67.0792 13.0285 69.349 13.4563 70.5392 13.7415L70.4285 16.3083C69.1829 16.0802 66.8854 15.852 65.5291 15.852C62.0413 15.852 61.1833 17.5918 61.1833 23.1247C61.1833 28.4865 61.8753 30.3688 65.6121 30.3688C67.0238 30.3688 69.2383 30.1406 70.4285 29.941Z" fill="white"/>
<path d="M79.9266 30.4258C83.6081 30.4258 84.4385 28.1727 84.4385 23.2102C84.4385 18.3618 83.5804 15.795 79.9266 15.795C76.2728 15.795 75.387 18.3618 75.387 23.2102C75.387 28.0872 76.2451 30.4258 79.9266 30.4258ZM79.9266 33.1923C73.9753 33.1923 72.2038 29.7984 72.2038 23.2102C72.2038 16.6791 74.003 13.0285 79.9266 13.0285C85.8502 13.0285 87.6218 16.6506 87.6218 23.2102C87.6218 29.8554 85.8502 33.1923 79.9266 33.1923Z" fill="white"/>
<path d="M90.6459 32.8786V13.3422H96.0159L101.773 30.0836H102.189V13.3422H105.261V32.8786H100.002L94.1059 16.1087H93.7184V32.8786H90.6459Z" fill="white"/>
<path d="M120.362 13.6845L120.113 16.2513C120.113 16.2513 116.238 15.795 114.632 15.795C112.307 15.795 111.117 16.6506 111.117 18.3333C111.117 20.1586 112.113 20.5864 115.352 21.499C119.338 22.6398 120.777 23.7236 120.777 27.0605C120.777 31.3385 118.175 33.1923 114.439 33.1923C111.975 33.1923 108.238 32.4223 108.238 32.4223L108.543 29.884C108.543 29.884 112.279 30.3973 114.245 30.3973C116.598 30.3973 117.677 29.3136 117.677 27.2601C117.677 25.6059 116.819 25.0355 113.913 24.3225C109.816 23.2388 108.044 21.9553 108.044 18.5614C108.044 14.6257 110.563 13 114.355 13C116.764 13 120.362 13.6845 120.362 13.6845Z" fill="white"/>
<path d="M121.718 16.1657V13.3422H135.558V16.1657H130.216V32.8786H127.115V16.1657H121.718Z" fill="white"/>
<path d="M145.09 25.9197H140.634V32.8786H137.561V13.3422H144.758C148.938 13.3422 151.18 15.2246 151.18 19.5596C151.18 22.3261 150.1 24.237 148.08 25.2066L151.207 32.8786H147.83L145.09 25.9197ZM148.024 19.5882C148.024 17.3636 146.972 16.0802 144.758 16.0802H140.634V23.1817H144.813C147.138 23.1817 148.024 21.6131 148.024 19.5882Z" fill="white"/>
<path d="M157.053 26.6327C157.053 29.285 158.381 30.4258 160.9 30.4258C163.447 30.4258 164.803 29.2565 164.803 26.6327V13.3422H167.903V26.5756C167.903 31.2815 165.44 33.1923 160.9 33.1923C156.388 33.1923 153.952 31.2815 153.952 26.5756V13.3422H157.053V26.6327Z" fill="white"/>
<path d="M170.544 16.1087V13.3422H183V16.3939L174.198 29.5702V30.1121H183V32.8786H170.544V29.8554L179.318 16.6791V16.1087H170.544Z" fill="white"/>
</svg>
