<svg width="50" height="50" viewBox="0 0 50 50" fill="none" xmlns="http://www.w3.org/2000/svg">
<path d="M21.8138 33.2263L21.8057 33.218C21.7459 33.1539 21.6856 33.0898 21.6238 33.0268L13.4375 24.641C12.9385 24.1295 12.2698 23.8479 11.5534 23.8479C10.8271 23.8479 10.1267 24.1516 9.63155 24.6807C8.70268 25.6736 8.69047 27.2407 9.60371 28.2482L14.5334 33.6826C14.702 33.8687 14.7951 34.1094 14.7951 34.3601C14.7951 34.6725 14.6547 34.9616 14.4087 35.1547C13.9975 35.4782 13.3978 35.4297 13.043 35.0448L7.33969 28.8391C6.94792 28.4126 6.7095 27.8595 6.66831 27.2819L5.98739 17.6437C5.8779 16.0805 4.56413 14.856 2.99667 14.856H2.97455C2.17155 14.8621 1.4193 15.1813 0.857395 15.7547C0.294729 16.328 -0.00968324 17.0864 0.000234935 17.8902L0.154348 30.8189C0.17304 32.2975 0.723118 33.72 1.70311 34.8243L10.3644 44.5922C10.6897 44.9592 10.8667 45.4303 10.8626 45.917L10.8313 49.2503C10.8294 49.4487 10.9068 49.6394 11.0464 49.7802C11.1857 49.9209 11.3756 49.9999 11.574 49.9999H21.1225C21.4811 49.9999 21.7886 49.7436 21.853 49.3907L23.6185 39.7167C24.0469 37.3687 23.3747 34.9456 21.821 33.2347C21.8187 33.2317 21.816 33.229 21.8138 33.2263ZM22.1578 39.45L20.5034 48.5148H12.3236L12.348 45.93C12.3549 45.0748 12.0451 44.2496 11.476 43.6072L2.81395 33.8382C2.07047 33.0009 1.65352 31.9221 1.63941 30.801L1.48529 17.8722C1.48033 17.4667 1.63407 17.0837 1.91788 16.7942C2.20131 16.505 2.58087 16.3441 2.98027 16.341H2.99667C3.78746 16.341 4.45045 16.959 4.50614 17.7479L5.18706 27.3868C5.25191 28.2985 5.62804 29.1709 6.24602 29.8439L11.9501 36.05C12.8271 37.0025 14.3106 37.1219 15.3257 36.3223C15.9323 35.8467 16.2802 35.1314 16.2802 34.3601C16.2802 33.7398 16.0505 33.1447 15.6332 32.6847L10.7039 27.2503C10.3056 26.8112 10.3113 26.128 10.7165 25.695C10.9347 25.4615 11.2322 25.3326 11.5534 25.3326C11.8658 25.3326 12.1573 25.4551 12.3743 25.6778L20.5622 34.0648C20.6167 34.1205 20.6686 34.1762 20.7208 34.2319L20.725 34.2365C21.9679 35.6075 22.5031 37.556 22.1578 39.45Z" fill="#EA5501"/>
<path d="M49.1233 15.7547C48.561 15.181 47.8092 14.8621 47.0001 14.856H46.9837C45.4185 14.856 44.1047 16.0801 43.9929 17.6433L43.3135 27.2815C43.2727 27.8583 43.0339 28.4118 42.6425 28.8391L36.9381 35.044C36.5833 35.4297 35.9829 35.4782 35.5709 35.1539C35.326 34.9616 35.1856 34.6725 35.1856 34.3601C35.1856 34.1094 35.2783 33.8687 35.4473 33.6826L40.3774 28.2478C41.2899 27.2411 41.2784 25.6744 40.3495 24.6799C39.8532 24.1512 39.1529 23.8479 38.4273 23.8479C37.7109 23.8479 37.0418 24.1295 36.5436 24.6406L28.3516 33.0322C28.2879 33.0989 28.2238 33.1661 28.1612 33.2344C26.6064 34.9449 25.9338 37.3679 26.3618 39.7167L28.1292 49.3907C28.1937 49.7436 28.5011 49.9999 28.8597 49.9999H38.4067C38.6051 49.9999 38.7951 49.9206 38.9343 49.7798C39.0739 49.639 39.1513 49.4483 39.1494 49.2503L39.1182 45.9193C39.1151 45.4291 39.2925 44.958 39.6175 44.5922L44.1059 39.5305C44.3778 39.2238 44.35 38.7542 44.0429 38.4822C43.7362 38.2102 43.2666 38.2381 42.9946 38.5452L38.5067 43.6065C37.9379 44.2466 37.6278 45.0713 37.6331 45.9312L37.6571 48.5148H29.4788L27.8229 39.45C27.4773 37.5537 28.0144 35.6037 29.2591 34.2346C29.3125 34.1762 29.3686 34.1175 29.4197 34.064L37.6068 25.6775C37.8235 25.4554 38.1149 25.333 38.4273 25.333C38.7489 25.333 39.0468 25.4619 39.2654 25.6946C39.6698 26.128 39.6751 26.8112 39.2772 27.2499L34.3471 32.6847C33.9302 33.1447 33.7005 33.7398 33.7005 34.3601C33.7005 35.1318 34.0484 35.847 34.6534 36.3216C35.6701 37.1219 37.1532 37.0029 38.031 36.0496L43.737 29.8431C44.3546 29.1687 44.7303 28.2962 44.7952 27.3864L45.4746 17.7486C45.531 16.959 46.194 16.341 46.9837 16.341H46.9943C47.3998 16.3441 47.7794 16.505 48.0628 16.7942C48.3466 17.0837 48.5004 17.4663 48.4954 17.8722L48.3413 30.801C48.3283 31.9217 47.9114 33.0005 47.1675 33.8386L44.849 36.4536C44.577 36.7603 44.6052 37.2295 44.9119 37.5018C45.2186 37.7738 45.6882 37.7456 45.9602 37.4389L48.2787 34.8243C49.2595 33.7192 49.8092 32.2967 49.826 30.8185L49.9805 17.8902C49.99 17.0868 49.6856 16.328 49.1233 15.7547Z" fill="#EA5501"/>
<path d="M32.682 24.731C33.5571 24.0951 33.9874 23.0377 33.8047 21.9711L33.0131 17.3569C32.9387 16.9235 33.0826 16.481 33.3977 16.1739L36.75 12.9063C37.5248 12.151 37.7983 11.0428 37.4641 10.0136C37.1296 8.98476 36.2568 8.24891 35.186 8.09327L30.5534 7.41998C30.1178 7.35666 29.7417 7.08352 29.5471 6.68909L27.475 2.49102C26.9962 1.52057 26.0265 0.917847 24.9447 0.917847C23.8628 0.917847 22.8932 1.52057 22.4144 2.49102L20.3423 6.68909C20.1477 7.08352 19.7712 7.35704 19.336 7.42036L14.703 8.09327C13.6322 8.24891 12.7594 8.98476 12.4253 10.0136C12.0911 11.0428 12.3646 12.151 13.1394 12.9063C13.4331 13.1927 13.9031 13.1863 14.1892 12.8929C14.4757 12.5992 14.4696 12.1292 14.1758 11.8427C13.8031 11.4796 13.6769 10.9676 13.8379 10.4729C13.9984 9.97773 14.4017 9.63784 14.9166 9.56307L19.5496 8.88978C20.4685 8.75626 21.2631 8.17948 21.674 7.34636L23.7457 3.14829C23.9761 2.68176 24.4244 2.40329 24.9443 2.40329C25.4646 2.40329 25.9129 2.68176 26.1429 3.14829L28.215 7.34636C28.6259 8.17948 29.4205 8.75626 30.3394 8.88978L34.9724 9.56307C35.4873 9.63784 35.8906 9.97773 36.0512 10.4729C36.2121 10.9676 36.0859 11.4796 35.7132 11.8427L32.3608 15.1108C31.6955 15.7589 31.3923 16.6927 31.5494 17.6082L32.3406 22.2225C32.4287 22.7352 32.23 23.2238 31.8088 23.5298C31.3881 23.8353 30.862 23.8735 30.4012 23.6313L26.2577 21.4527C25.4353 21.0209 24.4537 21.0209 23.6313 21.4527L19.4878 23.6313C19.0274 23.8735 18.5009 23.8357 18.0802 23.5298C17.659 23.2238 17.4603 22.7352 17.5484 22.2225L18.3396 17.6082C18.4967 16.6927 18.1935 15.7589 17.5282 15.1108L15.9603 13.5822C15.6666 13.2957 15.1966 13.3022 14.9102 13.5956C14.6241 13.8893 14.6302 14.3597 14.9239 14.6458L16.4917 16.1739C16.8068 16.4814 16.9503 16.9235 16.8759 17.3572L16.0847 21.9715C15.9016 23.0377 16.3319 24.0955 17.207 24.7314C17.7017 25.0904 18.2804 25.2731 18.8633 25.2731C19.3115 25.2731 19.7624 25.1651 20.179 24.9462L24.3229 22.7676C24.7124 22.5628 25.177 22.5628 25.5665 22.7676L29.7104 24.9462C30.6679 25.4493 31.8065 25.3669 32.682 24.731Z" fill="#EA5501"/>
<path d="M37.1284 5.61103C37.2234 5.65147 37.3222 5.67092 37.4191 5.67092C37.7079 5.67092 37.9826 5.50155 38.1027 5.21888L39.8849 1.03417C40.0455 0.656518 39.8701 0.2205 39.4928 0.0599014C39.1151 -0.100697 38.6791 0.0747787 38.5185 0.452051L36.7363 4.63714C36.5757 5.01442 36.7512 5.45043 37.1284 5.61103Z" fill="#EA5501"/>
<path d="M39.9811 8.52474C40.0833 8.83793 40.3744 9.03705 40.6872 9.03705C40.7635 9.03705 40.8409 9.02523 40.9172 9.00043L45.4719 7.51537C45.8618 7.38796 46.0747 6.96873 45.9476 6.57887C45.8206 6.18901 45.4014 5.97577 45.0115 6.10318L40.4572 7.58823C40.0669 7.71565 39.8541 8.1345 39.9811 8.52474Z" fill="#EA5501"/>
<path d="M40.1436 12.6438C39.7571 12.5069 39.3326 12.709 39.1952 13.0955C39.0583 13.4819 39.2601 13.9065 39.6469 14.0438L42.7162 15.1329C42.7982 15.1619 42.8821 15.1756 42.9645 15.1756C43.2701 15.1756 43.5562 14.9856 43.6641 14.6812C43.8015 14.2948 43.5993 13.8702 43.2125 13.7329L40.1436 12.6438Z" fill="#EA5501"/>
<path d="M11.7861 5.21884C11.9063 5.50151 12.1809 5.6705 12.4693 5.6705C12.5666 5.6705 12.665 5.65142 12.76 5.61099C13.1376 5.45039 13.3131 5.01437 13.1525 4.63672L11.3703 0.452006C11.2097 0.0747337 10.7737 -0.101123 10.396 0.059475C10.0187 0.220455 9.84327 0.656473 10.0039 1.03375L11.7861 5.21884Z" fill="#EA5501"/>
<path d="M4.41688 7.51535L8.97124 9.00041C9.04753 9.0252 9.12535 9.03703 9.20164 9.03703C9.51445 9.03703 9.80513 8.8379 9.90736 8.52472C10.0348 8.13447 9.82153 7.71562 9.43167 7.58821L4.87731 6.10315C4.48707 5.97613 4.06822 6.18898 3.94119 6.57885C3.81378 6.96909 4.02702 7.38794 4.41688 7.51535Z" fill="#EA5501"/>
<path d="M9.74545 12.6438L6.67615 13.7329C6.28972 13.8702 6.08754 14.2948 6.22449 14.6812C6.33245 14.9856 6.61893 15.1756 6.92448 15.1756C7.00688 15.1756 7.09042 15.1619 7.17282 15.1329L10.2421 14.0438C10.6285 13.9065 10.8307 13.4819 10.6934 13.0955C10.5564 12.709 10.1319 12.5069 9.74545 12.6438Z" fill="#EA5501"/>
</svg>
