<svg width="33" height="32" viewBox="0 0 33 32" fill="none" xmlns="http://www.w3.org/2000/svg">
<path d="M28.4049 9.27246L23.0469 3.91441L25.4566 1.50466C26.1292 0.832094 27.2196 0.832094 27.8922 1.50466L30.8147 4.42716C31.4872 5.09966 31.4872 6.19014 30.8147 6.8627L28.4049 9.27246Z" stroke="#EA5501" stroke-width="1.4" stroke-miterlimit="10" stroke-linecap="round" stroke-linejoin="round"/>
<path d="M6.76367 25.5539L9.4427 28.2329L28.4034 9.27217L25.7243 6.59321" stroke="#EA5501" stroke-width="1.4" stroke-miterlimit="10" stroke-linecap="round" stroke-linejoin="round"/>
<path d="M25.7256 6.59328L23.0466 3.91425L4.08594 22.875L6.76496 25.554" stroke="#EA5501" stroke-width="1.4" stroke-miterlimit="10" stroke-linecap="round" stroke-linejoin="round"/>
<path d="M9.0467 12.0561L11.9755 14.9849L15.2862 11.6742L12.3574 8.74541C13.1277 6.71151 12.694 4.32559 11.0563 2.68785C9.34335 0.974921 6.81195 0.579066 4.72079 1.50053L8.06109 4.84084L5.14207 7.75986L1.80176 4.41956C0.88036 6.51071 1.27615 9.042 2.98914 10.755C4.62689 12.3928 7.01274 12.8264 9.0467 12.0561Z" stroke="#EA5501" stroke-width="1.4" stroke-miterlimit="10" stroke-linecap="round" stroke-linejoin="round"/>
<path d="M30.8184 27.5976C31.7398 25.5064 31.344 22.975 29.631 21.2621C27.9933 19.6243 25.6075 19.1906 23.5735 19.961L20.6447 17.0322L17.334 20.3429L20.2628 23.2717C19.4924 25.3056 19.9261 27.6915 21.5639 29.3292C23.2769 31.0422 25.8082 31.438 27.8994 30.5166L24.559 27.1763L27.4781 24.2573L30.8184 27.5976Z" stroke="#EA5501" stroke-width="1.4" stroke-miterlimit="10" stroke-linecap="round" stroke-linejoin="round"/>
<path d="M9.44287 28.2327L4.08482 22.8748L3.00391 26.1363L6.18128 29.3137L9.44287 28.2327Z" stroke="#EA5501" stroke-width="1.4" stroke-miterlimit="10" stroke-linecap="round" stroke-linejoin="round"/>
<path d="M6.18207 29.3136L3.00469 26.1362L1.42969 30.8887L6.18207 29.3136Z" stroke="#EA5501" stroke-width="1.4" stroke-miterlimit="10" stroke-linecap="round" stroke-linejoin="round"/>
<path d="M25.5957 6.72262L17.0625 15.2559" stroke="#EA5501" stroke-width="1.4" stroke-miterlimit="10" stroke-linecap="round" stroke-linejoin="round"/>
<path d="M13.1645 19.154L7.05078 25.2678" stroke="#EA5501" stroke-width="1.4" stroke-miterlimit="10" stroke-linecap="round" stroke-linejoin="round"/>
</svg>
