<svg width="35" height="34" viewBox="0 0 35 34" fill="none" xmlns="http://www.w3.org/2000/svg">
<path d="M31.3757 17.0925C31.3307 17.0449 31.2768 17.0066 31.2171 16.9798C31.1573 16.953 31.0928 16.9383 31.0274 16.9364C30.9619 16.9345 30.8967 16.9455 30.8355 16.9689C30.7743 16.9922 30.7183 17.0273 30.6707 17.0723C30.6231 17.1172 30.5848 17.1711 30.558 17.2309C30.5312 17.2907 30.5164 17.3551 30.5146 17.4206C30.5127 17.4861 30.5237 17.5512 30.547 17.6124C30.5704 17.6736 30.6055 17.7297 30.6505 17.7773C32.2025 19.4227 33.0645 21.6007 33.0589 23.8626C33.0532 26.1245 32.1804 28.2982 30.6202 29.9358C29.06 31.5735 26.9311 32.5506 24.6722 32.6657C22.4132 32.7808 20.196 32.0253 18.4774 30.5548C16.7587 29.0842 15.6694 27.0106 15.4338 24.7609C15.1983 22.5113 15.8343 20.257 17.211 18.4623C18.5878 16.6676 20.6003 15.4691 22.8341 15.1138C25.068 14.7584 27.353 15.2732 29.2187 16.5522C29.3275 16.6271 29.4616 16.6558 29.5915 16.6319C29.7215 16.6079 29.8366 16.5334 29.9115 16.4246C29.9865 16.3158 30.0152 16.1816 29.9912 16.0517C29.9673 15.9218 29.8927 15.8067 29.7839 15.7317C28.6398 14.9456 27.3422 14.4105 25.9765 14.1616C24.6108 13.9127 23.2079 13.9556 21.86 14.2875C21.6777 14.0967 21.4586 13.9449 21.2159 13.8415C20.9732 13.738 20.712 13.6849 20.4481 13.6855H20.2526C20.4171 13.3928 20.5029 13.0625 20.5017 12.7268V10.8917C20.501 10.3735 20.2948 9.87666 19.9284 9.51022C19.562 9.14379 19.0652 8.93764 18.547 8.93698H16.4304L12.4762 2.08935C12.2526 1.69689 11.9285 1.37103 11.5373 1.14522C11.1461 0.919421 10.7018 0.801817 10.2501 0.804488C9.79877 0.801892 9.35485 0.919478 8.96396 1.14517C8.57307 1.37087 8.2493 1.69653 8.02589 2.08873L4.07107 8.93636H2.79492C2.27671 8.93702 1.77991 9.14317 1.41348 9.5096C1.04705 9.87603 0.840894 10.3728 0.840235 10.891V12.7243C0.840894 13.2426 1.04705 13.7394 1.41348 14.1058C1.77991 14.4722 2.27671 14.6784 2.79492 14.679H2.99039C2.82596 14.9717 2.74017 15.302 2.74139 15.6377V17.471C2.74017 17.8067 2.82596 18.137 2.99039 18.4297H1.99375C1.47538 18.4302 0.978389 18.6363 0.611904 19.0029C0.245418 19.3696 0.0393921 19.8666 0.0390625 20.385L0.0390625 22.2183C0.0396419 22.675 0.199878 23.1171 0.492039 23.4682C0.784199 23.8192 1.1899 24.0571 1.63892 24.1406C1.46123 24.4408 1.36769 24.7834 1.36813 25.1323V26.9655C1.3678 27.3446 1.47837 27.7155 1.68623 28.0325C1.30265 28.1659 0.970046 28.4153 0.734485 28.7461C0.498924 29.0769 0.372066 29.4728 0.371484 29.8789V31.7122C0.372143 32.2304 0.578294 32.7272 0.944726 33.0936C1.31116 33.4601 1.80796 33.6662 2.32617 33.6669H18.0832C18.4387 33.666 18.7873 33.5685 19.0916 33.3848C19.396 33.2012 19.6448 32.9383 19.8113 32.6242C21.8765 33.6548 24.2383 33.9264 26.4835 33.3913C28.7287 32.8563 30.7142 31.5487 32.0926 29.6973C33.4709 27.846 34.1543 25.569 34.0232 23.2646C33.892 20.9603 32.9546 18.7754 31.3751 17.0925H31.3757ZM2.36663 26.9655V25.1316C2.36696 24.8775 2.46807 24.6338 2.64779 24.4541C2.8275 24.2744 3.07115 24.1733 3.3253 24.173H14.3892C14.4323 25.4696 14.7332 26.7446 15.2744 27.9236H3.32281C3.06866 27.9233 2.82501 27.8222 2.6453 27.6424C2.46558 27.4627 2.36447 27.2191 2.36414 26.9649L2.36663 26.9655ZM20.595 14.6915C18.7189 15.4399 17.117 16.7449 16.0046 18.4309H13.6484V14.6803H20.4512C20.4994 14.6804 20.5474 14.6841 20.595 14.6915ZM19.5112 10.8942V12.7275C19.5109 12.9816 19.4098 13.2253 19.2301 13.405C19.0504 13.5847 18.8067 13.6858 18.5526 13.6861H13.6484V13.2373H14.4633C14.8631 13.2371 15.2573 13.1437 15.6147 12.9645C15.972 12.7853 16.2827 12.5252 16.5219 12.2049C16.7612 11.8846 16.9224 11.513 16.9929 11.1194C17.0633 10.7259 17.0411 10.3214 16.9278 9.93798H18.5526C18.8059 9.9383 19.0488 10.0387 19.2283 10.2174C19.4079 10.396 19.5096 10.6384 19.5112 10.8917V10.8942ZM1.83688 12.725V10.8917C1.83721 10.6375 1.93831 10.3939 2.11803 10.2142C2.29774 10.0344 2.54139 9.93333 2.79555 9.933H3.57742C3.45158 10.351 3.43571 10.7944 3.53135 11.2204C3.54574 11.2842 3.57256 11.3445 3.61027 11.398C3.64798 11.4514 3.69584 11.4969 3.75113 11.5318C3.80643 11.5668 3.86806 11.5905 3.93251 11.6016C3.99697 11.6127 4.06298 11.6111 4.12679 11.5967C4.19059 11.5823 4.25094 11.5555 4.30438 11.5178C4.35782 11.48 4.40332 11.4322 4.43826 11.3769C4.4732 11.3216 4.49691 11.26 4.50804 11.1955C4.51916 11.1311 4.51748 11.065 4.5031 11.0012C4.41574 10.6173 4.47879 10.2146 4.67927 9.87573L8.88994 2.583C9.02664 2.3429 9.22481 2.14351 9.46408 2.00534C9.70334 1.86716 9.97508 1.79517 10.2514 1.79677C10.5288 1.7946 10.8018 1.86663 11.042 2.00542C11.2823 2.1442 11.4811 2.34469 11.6178 2.58612L15.826 9.87822C15.9641 10.1174 16.0368 10.3888 16.0368 10.665C16.0368 10.9413 15.9641 11.2126 15.826 11.4518C15.6879 11.6911 15.4893 11.8897 15.2501 12.0279C15.0109 12.166 14.7395 12.2388 14.4633 12.2388H13.1498C13.0177 12.2388 12.891 12.2913 12.7976 12.3846C12.7042 12.478 12.6518 12.6047 12.6518 12.7368V20.4217C12.6508 20.635 12.5656 20.8394 12.4148 20.9902C12.2639 21.1411 12.0596 21.2262 11.8462 21.2272H8.66023C8.44689 21.2262 8.24257 21.1411 8.09172 20.9902C7.94087 20.8394 7.85568 20.635 7.8547 20.4217V12.7368C7.8547 12.6047 7.80223 12.478 7.70884 12.3846C7.61544 12.2913 7.48877 12.2388 7.35669 12.2388H6.04194C5.85714 12.2395 5.67364 12.2079 5.49974 12.1454C5.43739 12.118 5.37007 12.1036 5.30195 12.1032C5.23383 12.1028 5.16635 12.1164 5.10369 12.1431C5.04103 12.1699 4.98452 12.2092 4.93766 12.2586C4.89079 12.3081 4.85457 12.3666 4.83123 12.4306C4.80789 12.4946 4.79793 12.5627 4.80197 12.6307C4.806 12.6987 4.82395 12.7652 4.85469 12.826C4.88543 12.8868 4.92832 12.9406 4.9807 12.9841C5.03308 13.0277 5.09384 13.06 5.15922 13.0792C5.44222 13.1816 5.74098 13.2337 6.04194 13.2329H6.85744V13.6818H2.79492C2.54077 13.6814 2.29712 13.5803 2.11741 13.4006C1.93769 13.2209 1.83658 12.9773 1.83625 12.7231L1.83688 12.725ZM3.73554 17.4716V15.6402C3.73587 15.386 3.83698 15.1424 4.01669 14.9627C4.1964 14.783 4.44005 14.6819 4.69421 14.6815H6.85868V18.4322H4.69358C4.43922 18.4318 4.19538 18.3305 4.01563 18.1506C3.83588 17.9706 3.73492 17.7266 3.73492 17.4722L3.73554 17.4716ZM1.03508 22.2183V20.385C1.03541 20.1309 1.13654 19.8873 1.31627 19.7077C1.496 19.5281 1.73965 19.4271 1.99375 19.4269H6.85744V20.4229C6.85744 20.9017 7.04763 21.3609 7.38619 21.6995C7.72475 22.038 8.18393 22.2282 8.66272 22.2282H11.8487C12.3275 22.2282 12.7867 22.038 13.1253 21.6995C13.4638 21.3609 13.654 20.9017 13.654 20.4229V19.4269H15.4276C14.8389 20.5958 14.4913 21.8711 14.4054 23.1769H1.99375C1.7396 23.1766 1.49595 23.0755 1.31623 22.8958C1.13652 22.7161 1.03541 22.4724 1.03508 22.2183ZM18.0832 32.6709H2.32617C2.07202 32.6705 1.82837 32.5694 1.64865 32.3897C1.46894 32.21 1.36783 31.9664 1.3675 31.7122V29.8789C1.36783 29.6248 1.46894 29.3811 1.64865 29.2014C1.82837 29.0217 2.07202 28.9206 2.32617 28.9202H15.8029C16.5904 30.2171 17.6651 31.3158 18.9441 32.1318C18.8653 32.2931 18.7429 32.4291 18.5907 32.5243C18.4385 32.6196 18.2627 32.6704 18.0832 32.6709Z" fill="#EA5501"/>
<path d="M25.1999 23.3165C25.0238 23.2655 24.8432 23.2113 24.6633 23.1547V20.9473C24.9765 20.9873 25.2767 21.0973 25.5417 21.2691C25.6472 21.3486 25.78 21.3829 25.9108 21.3645C26.0416 21.3461 26.1597 21.2766 26.2392 21.1711C26.3187 21.0656 26.353 20.9328 26.3347 20.802C26.3163 20.6712 26.2467 20.553 26.1412 20.4735C25.701 20.1755 25.1926 19.9937 24.6633 19.945V19.5149C24.6633 19.3828 24.6109 19.2561 24.5175 19.1627C24.4241 19.0693 24.2974 19.0168 24.1653 19.0168C24.0332 19.0168 23.9066 19.0693 23.8132 19.1627C23.7198 19.2561 23.6673 19.3828 23.6673 19.5149V19.9774C23.571 19.9936 23.4729 20.0143 23.3729 20.0396C22.9765 20.1265 22.6141 20.3274 22.3303 20.6175C22.0465 20.9076 21.8537 21.2743 21.7755 21.6725C21.7171 21.9849 21.7527 22.3077 21.878 22.5998C22.0032 22.8919 22.2124 23.1403 22.4789 23.3134C22.8532 23.5439 23.252 23.7318 23.6679 23.8737V26.67C23.1661 26.6592 22.6759 26.5171 22.2461 26.2579C22.1298 26.1952 21.9934 26.1814 21.8668 26.2193C21.7403 26.2573 21.634 26.3439 21.5713 26.4602C21.5086 26.5765 21.4948 26.713 21.5327 26.8395C21.5706 26.9661 21.6573 27.0724 21.7736 27.135C22.3477 27.475 23.0009 27.6583 23.6679 27.6666V28.1559C23.6679 28.288 23.7204 28.4147 23.8138 28.5081C23.9072 28.6015 24.0339 28.654 24.1659 28.654C24.298 28.654 24.4247 28.6015 24.5181 28.5081C24.6115 28.4147 24.6639 28.288 24.6639 28.1559V27.6343C25.2082 27.5802 25.7204 27.3517 26.1242 26.9829C26.5281 26.614 26.8019 26.1246 26.905 25.5875C27.0482 24.5503 26.3796 23.6602 25.1999 23.3165ZM23.0211 22.4749C22.9185 22.4065 22.8388 22.3089 22.7922 22.1947C22.7456 22.0805 22.7342 21.955 22.7597 21.8343C22.8039 21.627 22.9088 21.4374 23.061 21.2898C23.2131 21.1421 23.4058 21.0431 23.6144 21.0051L23.6692 20.9927V22.8017C23.4432 22.712 23.2256 22.6026 23.0187 22.4749H23.0211ZM25.9196 25.4468C25.8538 25.746 25.6987 26.0182 25.4748 26.2273C25.2509 26.4364 24.9688 26.5725 24.6658 26.6177V24.1968L24.9242 24.2733C25.6295 24.4794 25.9924 24.9071 25.9146 25.4468H25.9196Z" fill="#EA5501"/>
<path d="M24.2174 17.0317C22.8718 17.0311 21.5563 17.4296 20.4372 18.1768C19.3181 18.9239 18.4458 19.9862 17.9305 21.2293C17.4153 22.4723 17.2803 23.8402 17.5426 25.16C17.8049 26.4797 18.4528 27.6921 19.4042 28.6436C20.3556 29.5951 21.5679 30.2431 22.8876 30.5055C24.2074 30.7679 25.5753 30.6331 26.8184 30.1179C28.0615 29.6028 29.1238 28.7305 29.8711 27.6115C30.6184 26.4925 31.017 25.177 31.0165 23.8314C31.0138 22.029 30.2967 20.3011 29.0222 19.0265C27.7477 17.7519 26.0199 17.0345 24.2174 17.0317ZM24.2174 29.6395C23.0692 29.6395 21.9467 29.299 20.992 28.6611C20.0373 28.0232 19.2932 27.1164 18.8538 26.0556C18.4144 24.9948 18.2994 23.8275 18.5234 22.7013C18.7474 21.5752 19.3003 20.5407 20.1123 19.7288C20.9242 18.9169 21.9586 18.364 23.0848 18.1399C24.211 17.9159 25.3783 18.0309 26.4391 18.4703C27.4999 18.9097 28.4066 19.6538 29.0445 20.6085C29.6825 21.5633 30.0229 22.6857 30.0229 23.8339C30.0211 25.3731 29.4089 26.8487 28.3205 27.9371C27.2322 29.0254 25.7566 29.6377 24.2174 29.6395Z" fill="#EA5501"/>
<path d="M24.3193 10.7683L24.3573 10.9102C24.4433 11.2257 24.6304 11.5043 24.8899 11.7032C25.1494 11.9021 25.4671 12.0104 25.7941 12.0114C25.8894 12.0115 25.9844 12.0023 26.0779 11.984L27.6454 11.6771C27.8453 11.638 28.035 11.5582 28.2027 11.4426C28.3705 11.3271 28.5127 11.1783 28.6205 11.0055C28.7283 10.8327 28.7994 10.6396 28.8295 10.4382C28.8596 10.2367 28.8479 10.0313 28.7952 9.83451L28.7006 9.48092C28.6478 9.28416 28.5552 9.10034 28.4284 8.94088C28.3017 8.78142 28.1435 8.64973 27.9637 8.55398C27.7839 8.45824 27.5863 8.40049 27.3832 8.38433C27.1802 8.36816 26.9759 8.39392 26.7832 8.46L25.2724 8.97793C24.9169 9.10097 24.6211 9.3539 24.4443 9.68596C24.2675 10.018 24.2229 10.4047 24.3193 10.7683ZM25.5961 9.92104L27.1069 9.40311C27.1704 9.38137 27.2376 9.3729 27.3045 9.37823C27.3713 9.38356 27.4364 9.40258 27.4955 9.4341C27.5547 9.46563 27.6068 9.50899 27.6486 9.56148C27.6903 9.61398 27.7208 9.67449 27.7382 9.73927L27.8328 10.0929C27.8502 10.1576 27.854 10.2253 27.8442 10.2917C27.8343 10.358 27.8109 10.4216 27.7754 10.4785C27.7399 10.5355 27.6931 10.5845 27.6378 10.6225C27.5826 10.6606 27.5201 10.6869 27.4543 10.6998L25.8868 11.0067C25.7652 11.0302 25.6392 11.0068 25.5341 10.9412C25.4291 10.8756 25.3527 10.7727 25.3203 10.6531L25.2824 10.5106C25.2504 10.3908 25.265 10.2633 25.3232 10.1538C25.3814 10.0443 25.4789 9.96091 25.5961 9.92041V9.92104Z" fill="#EA5501"/>
<path d="M22.0728 6.87719C22.3395 7.14246 22.6966 7.29707 23.0726 7.31001C23.4485 7.32294 23.8154 7.19323 24.0997 6.94691L25.3037 5.89735C25.4572 5.76353 25.5816 5.59957 25.6691 5.41565C25.7567 5.23174 25.8054 5.03179 25.8124 4.82823C25.8194 4.62466 25.7845 4.42184 25.7099 4.23234C25.6352 4.04284 25.5223 3.87071 25.3784 3.72665L25.1194 3.46769C24.9753 3.3237 24.8032 3.21086 24.6137 3.13618C24.4242 3.06151 24.2214 3.02659 24.0178 3.03359C23.8143 3.0406 23.6143 3.08938 23.4304 3.17691C23.2465 3.26443 23.0825 3.38883 22.9487 3.54239L21.8991 4.74633C21.6528 5.03061 21.5231 5.39753 21.536 5.77347C21.549 6.1494 21.7036 6.50654 21.9689 6.77323L22.0728 6.87719ZM22.6505 5.40059L23.7001 4.19665C23.744 4.14583 23.798 4.10471 23.8586 4.07588C23.9193 4.04705 23.9853 4.03115 24.0524 4.02919H24.0698C24.134 4.02897 24.1977 4.04151 24.257 4.06609C24.3163 4.09067 24.3701 4.1268 24.4153 4.17237L24.6743 4.43134C24.7218 4.47876 24.759 4.53545 24.7837 4.59788C24.8084 4.66032 24.8199 4.72716 24.8177 4.79425C24.8154 4.86134 24.7993 4.92724 24.7705 4.98786C24.7416 5.04848 24.7006 5.10251 24.65 5.1466L23.4461 6.19616C23.3524 6.27732 23.2315 6.32005 23.1076 6.31577C22.9837 6.3115 22.866 6.26054 22.7781 6.17313L22.6742 6.06917C22.5867 5.98136 22.5356 5.86372 22.5312 5.73983C22.5268 5.61595 22.5694 5.49498 22.6505 5.40121V5.40059Z" fill="#EA5501"/>
<path d="M17.9355 4.49034L18.0775 4.52831C18.2021 4.56176 18.3306 4.57872 18.4597 4.57873C18.7693 4.57744 19.0708 4.48001 19.3226 4.29991C19.5744 4.11981 19.7641 3.86593 19.8653 3.57338L20.3833 2.06254C20.4493 1.86985 20.4751 1.66563 20.4589 1.46256C20.4428 1.25949 20.385 1.06192 20.2893 0.88211C20.1935 0.702302 20.0618 0.5441 19.9024 0.417332C19.7429 0.290563 19.5591 0.197936 19.3623 0.145203L19.0087 0.0505814C18.812 -0.00210803 18.6065 -0.013788 18.4051 0.0162666C18.2036 0.0463212 18.0105 0.117469 17.8377 0.225291C17.6649 0.333113 17.5161 0.475308 17.4006 0.643046C17.2851 0.810783 17.2052 1.00048 17.1661 1.20036L16.8592 2.76785C16.7876 3.13784 16.8588 3.52124 17.0585 3.84085C17.2582 4.16045 17.5716 4.39252 17.9355 4.49034ZM17.8397 2.96082L18.1466 1.39334C18.1684 1.28224 18.228 1.18211 18.3153 1.10995C18.4025 1.03778 18.512 0.998026 18.6253 0.997422C18.6686 0.997427 18.7117 1.00308 18.7535 1.01423L19.1071 1.10885C19.1719 1.12622 19.2324 1.15672 19.2849 1.19845C19.3374 1.24019 19.3807 1.29227 19.4122 1.35146C19.4438 1.41066 19.4628 1.4757 19.4681 1.54255C19.4735 1.6094 19.465 1.67664 19.4433 1.74008L18.9253 3.25092C18.8842 3.36744 18.8007 3.46418 18.6915 3.52187C18.5822 3.57956 18.4552 3.59395 18.3358 3.56217L18.1939 3.5242C18.0743 3.49213 17.9712 3.41608 17.9053 3.31127C17.8394 3.20646 17.8155 3.08063 17.8384 2.95896L17.8397 2.96082Z" fill="#EA5501"/>
</svg>
