<svg width="30" height="30" viewBox="0 0 30 30" fill="none" xmlns="http://www.w3.org/2000/svg">
<path d="M0.590569 30H29.4095C29.5661 30 29.7163 29.9369 29.8271 29.8245C29.9378 29.7121 30 29.5597 30 29.4007V12.5559C29.997 12.4559 29.9726 12.3579 29.9283 12.2685C29.884 12.1792 29.8209 12.1008 29.7436 12.0388L28.1779 10.669V2.83051C28.1753 2.67336 28.1119 2.52356 28.0014 2.41338C27.891 2.30321 27.7423 2.24148 27.5875 2.24151H18.4097L16.4594 0.529288C16.0484 0.187052 15.5333 0 15.0017 0C14.4701 0 13.955 0.187052 13.5441 0.529288L11.5904 2.24151H2.41263C2.25776 2.24148 2.10909 2.30321 1.99863 2.41338C1.88818 2.52356 1.8248 2.67336 1.82215 2.83051V10.6862L0.273395 12.0251C0.187807 12.0834 0.117959 12.1625 0.0702202 12.2552C0.0224812 12.348 -0.00162984 12.4513 8.55304e-05 12.5559V29.4007C8.55304e-05 29.5597 0.062297 29.7121 0.173034 29.8245C0.283771 29.9369 0.433963 30 0.590569 30ZM9.38033 20.9355L1.19117 28.0583V13.8504L9.38033 20.9355ZM28.8055 13.8332V28.0994L20.6063 20.9389L28.8055 13.8332ZM19.486 21.5485L27.8 28.8014H2.15619L10.4837 21.5485H19.486ZM28.4917 12.5148L28.1779 12.7854V12.2614L28.4917 12.5148ZM14.31 1.45389C14.5083 1.29894 14.7515 1.21492 15.0017 1.21492C15.252 1.21492 15.4952 1.29894 15.6934 1.45389L16.591 2.24151H13.4125L14.31 1.45389ZM3.00311 3.42979H26.997V13.8093L19.459 20.3499H10.5208L2.98287 13.823C2.99644 13.7739 3.00326 13.7232 3.00311 13.6723V3.42979ZM1.82215 12.8196L1.48473 12.5388L1.82215 12.258V12.8196Z" fill="white"/>
<path d="M13.2998 16.7201C14.7914 17.1362 16.3818 16.9802 17.7673 16.2817C17.9069 16.2095 18.0125 16.084 18.0609 15.9328C18.1093 15.7815 18.0965 15.617 18.0254 15.4753C17.9542 15.3336 17.8306 15.2264 17.6815 15.1773C17.5325 15.1281 17.3704 15.1411 17.2308 15.2133C16.1244 15.7667 14.8603 15.9026 13.6642 15.5968C10.4284 14.3401 11.3023 10.8437 11.3293 10.6965C11.5891 9.70339 12.8679 7.183 15.682 7.39874C18.8436 7.64873 18.8335 10.6109 18.7998 11.2033C18.7289 12.4361 18.0304 13.371 17.4703 13.371H17.4501C17.4047 13.3739 17.3591 13.3668 17.3166 13.3502C17.2741 13.3337 17.2356 13.3081 17.2038 13.2751C17.0698 13.0413 17.013 12.7701 17.0418 12.5012L17.44 9.29588C17.44 9.26849 17.44 9.24452 17.44 9.22055C17.4415 9.07215 17.3887 8.92845 17.2919 8.81728C17.195 8.7061 17.061 8.63535 16.9156 8.61873C16.7703 8.60211 16.6241 8.64079 16.5053 8.7273C16.3865 8.8138 16.3035 8.94197 16.2725 9.08699C15.9262 8.80318 15.4991 8.63991 15.0544 8.62127H15.0038C13.8026 8.62127 12.4158 9.59039 12.1627 11.4225C12.0368 12.0696 12.1644 12.741 12.5185 13.2941C12.8726 13.8472 13.4252 14.2384 14.059 14.3846C14.4264 14.4475 14.8027 14.4315 15.1636 14.3377C15.5245 14.244 15.862 14.0744 16.1544 13.8401C16.2012 13.9164 16.2543 13.9886 16.313 14.0559C16.4488 14.2145 16.6161 14.3423 16.8039 14.4308C16.9917 14.5193 17.1958 14.5666 17.4028 14.5695C18.7087 14.6312 19.8728 13.1415 19.9807 11.2718C20.1123 8.92262 18.8639 6.44675 15.7697 6.20362C12.544 5.95021 10.6612 8.5699 10.1888 10.3917C9.23056 14.0764 11.6735 16.0968 13.2998 16.7201ZM15.8777 12.2683C15.7564 12.5814 15.5344 12.8438 15.2478 13.0128C14.9612 13.1819 14.6267 13.2478 14.2986 13.1997C13.9599 13.113 13.6684 12.8945 13.4871 12.5914C13.3059 12.2883 13.2495 11.925 13.3302 11.58C13.5124 10.2821 14.4403 9.80955 15.0173 9.80955H15.0409C15.5639 9.80955 15.9519 10.4431 15.9621 10.4568C15.9967 10.5185 16.0425 10.5731 16.097 10.6177L15.8777 12.2683Z" fill="white"/>
</svg>
