<svg width="77" height="46" viewBox="0 0 77 46" fill="none" xmlns="http://www.w3.org/2000/svg">
<path d="M19.8606 17.4314L11.3428 21.379L9.07422 27.3683" stroke="#EA5501" stroke-width="2" stroke-miterlimit="10" stroke-linecap="round" stroke-linejoin="round"/>
<path d="M53.7264 45L59.1273 27.3679H53.3848" stroke="#EA5501" stroke-width="2" stroke-miterlimit="10" stroke-linecap="round" stroke-linejoin="round"/>
<path d="M21.8906 27.3653H1L7.83043 44.9974" stroke="#EA5501" stroke-width="2" stroke-miterlimit="10" stroke-linecap="round" stroke-linejoin="round"/>
<path d="M20.2971 35.6475H14.3477V45H20.2971V35.6475Z" stroke="#EA5501" stroke-width="2" stroke-miterlimit="10" stroke-linecap="round" stroke-linejoin="round"/>
<path d="M63.1982 16.1987L38.0312 45" stroke="#EA5501" stroke-width="2" stroke-miterlimit="10" stroke-linecap="round" stroke-linejoin="round"/>
<path d="M42.1934 12.2775L75.9843 1.54751L66.1406 12.8126" stroke="#EA5501" stroke-width="2" stroke-miterlimit="10" stroke-linecap="round" stroke-linejoin="round"/>
<path d="M42.3828 12.4821L50.1938 31.0438" stroke="#EA5501" stroke-width="2" stroke-miterlimit="10" stroke-linecap="round" stroke-linejoin="round"/>
<path d="M53.9922 8.52515L58.8723 21.111" stroke="#EA5501" stroke-width="2" stroke-miterlimit="10" stroke-linecap="round" stroke-linejoin="round"/>
<path d="M18.0098 8.14701L27.5407 12.2771L43.1959 4.50412" stroke="#EA5501" stroke-width="2" stroke-miterlimit="10" stroke-linecap="round" stroke-linejoin="round"/>
<path d="M18.0098 8.14662L43.1959 4.50372L38.0246 44.9994H25.4756L18.0098 8.14662Z" stroke="#EA5501" stroke-width="2" stroke-miterlimit="10" stroke-linecap="round" stroke-linejoin="round"/>
<path d="M27.4238 12.2772L32.2608 45" stroke="#EA5501" stroke-width="2" stroke-miterlimit="10" stroke-linecap="round" stroke-linejoin="round"/>
<path d="M2.13281 45H75.9927" stroke="#EA5501" stroke-width="2" stroke-miterlimit="10" stroke-linecap="round" stroke-linejoin="round"/>
</svg>
