<svg width="70" height="71" viewBox="0 0 70 71" fill="none" xmlns="http://www.w3.org/2000/svg">
<path d="M24.2662 35.5626C24.0321 37.5881 24.0959 44.7402 24.3433 45.7748C26.945 46.0161 33.4385 45.9269 34.4414 45.6389V35.5626H24.2662ZM22.8909 47.1658C20.5739 46.9187 13.6707 46.995 12.6465 47.2645C12.4071 50.2835 12.5055 56.3971 12.8035 57.3545H22.8909V47.1658ZM12.6359 45.7508C14.9742 45.9935 21.8614 45.9163 22.8882 45.6484V35.573H12.6359V45.7508ZM24.1704 57.1856C25.1893 57.5048 32.9756 57.5514 34.4068 57.2534C34.6249 55.2269 34.5584 48.1668 34.3137 47.1312C31.4832 46.8915 25.1893 46.9878 24.1704 47.2935V57.1856ZM12.6385 22.8911C14.8571 23.1178 21.8348 23.0499 22.8909 22.8007V12.4446H12.6385V22.8911ZM12.6332 34.4645C15.3014 34.6903 21.8534 34.6119 22.8829 34.3578V24.01H12.6332V34.4645ZM47.0639 57.3192C49.4128 57.5737 56.5793 57.4907 57.569 57.2119C57.7897 53.8814 57.6993 48.1258 57.42 47.1346H47.0639V57.3192ZM45.9918 57.3809C46.2313 54.1711 46.1382 48.1176 45.8615 47.132H35.532V57.3809H45.9918ZM47.1331 35.5275C46.8857 37.6602 46.9548 44.7716 47.2103 45.7796H57.5131C57.7499 43.7004 57.686 36.6001 57.4253 35.5275H47.1331ZM24.1757 34.4392C26.4768 34.6834 33.4385 34.6105 34.5105 34.3341C34.5105 30.9097 34.5132 27.4711 34.5079 24.0528C32.1563 23.802 25.2159 23.878 24.1757 24.1531V34.4392ZM45.9546 45.8285C46.2046 43.5248 46.1302 36.5594 45.8429 35.495C42.4219 35.4961 38.9849 35.4929 35.5666 35.4972C35.3219 37.9009 35.3964 44.7873 35.6624 45.8285H45.9546ZM24.1784 22.8789C26.4582 23.1316 33.4491 23.0555 34.5105 22.7679C34.5105 19.3461 34.5132 15.9089 34.5079 12.4909C32.127 12.2467 25.2212 12.3204 24.1784 12.5872V22.8789ZM57.5078 34.527C57.7525 32.3704 57.686 25.0198 57.4333 24.0108H47.1331C46.8857 26.0408 46.9522 33.4866 47.2262 34.527H57.5078ZM45.9466 34.5286C46.1941 32.4297 46.1275 25.0131 45.8695 24.0089H35.5719C35.3325 26.0469 35.3964 33.4754 35.6597 34.5286H45.9466ZM46.0451 12.4922C43.7227 12.2432 36.5004 12.3195 35.5294 12.5789V22.8874C37.8278 23.138 45.0235 23.0574 46.0451 22.772V12.4922ZM47.04 22.881C49.4288 23.1436 56.5927 23.0603 57.5503 22.7842V12.48C55.1375 12.2363 48.0561 12.3177 47.04 12.5946V22.881ZM35.4496 11.4018H45.9413C46.2153 10.1701 46.0371 8.94219 46.069 7.72835C46.1009 6.49323 46.077 5.25678 46.077 4.0206V0.338903C46.6196 0.0758089 46.9309 0.134609 46.9894 0.67969C47.032 1.07073 47.0054 1.46948 47.0054 1.86505V11.189C48.0455 11.4968 55.2227 11.5814 57.6275 11.309V0.370824C58.1595 0.0619907 58.4548 0.129292 58.5373 0.579657C58.5984 0.915361 58.5692 1.26863 58.5692 1.6142C58.5718 4.33342 58.5692 7.0524 58.5692 9.77137V11.3319C59.0188 11.3707 59.3938 11.4308 59.7716 11.4319C62.6393 11.4399 65.5069 11.4343 68.3746 11.4383C68.7683 11.4388 69.1806 11.4031 69.5477 11.5127C69.702 11.5588 69.7526 11.9402 69.9149 12.3158H58.8352C58.5133 13.394 58.4308 20.6667 58.6942 22.9353C59.056 22.9571 59.4364 22.9986 59.8168 22.9994C62.6845 23.005 65.5522 23.0015 68.4172 23.0036C68.763 23.0039 69.1301 22.9533 69.4467 23.055C69.6382 23.1162 69.7472 23.4258 70 23.7658C68.5954 24.0587 67.3664 23.8943 66.1534 23.9238C64.9164 23.9541 63.6794 23.9307 62.445 23.9307H58.649C58.4947 25.7234 58.5905 27.4387 58.5745 29.1492C58.5558 30.8783 58.5692 32.6077 58.5692 34.4504C58.9789 34.4887 59.3539 34.5531 59.729 34.5539C62.5967 34.5626 65.4644 34.5584 68.3294 34.5592C68.6752 34.5594 69.0343 34.5161 69.3642 34.5908C69.5477 34.6323 69.6861 34.8758 69.8457 35.0282C69.6861 35.1801 69.5451 35.4221 69.3589 35.4636C69.029 35.5384 68.6725 35.4948 68.3267 35.4948C65.608 35.4953 62.8893 35.4953 60.168 35.4953H58.6464V45.7585C59.0055 45.7926 59.3779 45.858 59.7529 45.8591C62.6685 45.8679 65.5867 45.8647 68.5023 45.8631C69.0396 45.8628 69.601 45.8006 69.843 46.4374C69.5743 47.1748 68.9811 47.0453 68.4571 47.0466C65.7383 47.0535 63.0197 47.0498 60.301 47.0498H58.641V57.3309C59.0081 57.3652 59.3832 57.4303 59.7583 57.4312C62.626 57.4399 65.491 57.4317 68.3587 57.4397C68.8853 57.4413 69.4759 57.2931 69.8803 58.0438C69.6648 58.2178 69.4547 58.4936 69.1833 58.5795C68.8668 58.6798 68.497 58.6192 68.1511 58.6192C65.483 58.6208 62.8122 58.6202 60.144 58.6202H58.5692V68.2222C58.5692 68.5683 58.5665 68.9141 58.5665 69.2602C58.5639 69.5796 58.4921 69.8808 58.1116 69.8893C57.7286 69.8975 57.6408 69.6012 57.6408 69.2798C57.6354 67.6486 57.6354 66.0172 57.6354 64.3856C57.6328 62.5171 57.6328 60.6481 57.6328 58.7008H47.04C47.0293 59.9126 47.0107 61.1288 47.0054 62.345C47.0001 63.5809 47.0054 64.8169 47.0054 66.0528V69.7656C46.4574 69.9513 46.1328 69.9263 46.0876 69.3644C46.0584 68.971 46.077 68.5738 46.077 68.1785V58.8639C45.0182 58.5654 37.5591 58.4926 35.4496 58.7631V60.1828C35.4496 62.9513 35.4496 65.72 35.4469 68.4884C35.4469 68.8337 35.4948 69.2019 35.3884 69.515C35.3272 69.7018 35.008 69.802 34.6967 70.0135C34.3589 68.638 34.5531 67.4073 34.5185 66.1927C34.4839 64.9576 34.5105 63.7211 34.5105 62.4852V58.8251C33.2656 58.5646 25.7293 58.541 24.1438 58.794V60.2142C24.1438 62.9829 24.1438 65.7514 24.1411 68.5198C24.1411 69.0495 24.2395 69.6273 23.5772 69.8872C22.8429 69.6616 22.96 69.0692 22.96 68.5448C22.9547 65.7764 22.9574 63.008 22.9574 60.2395V58.7051H12.6811C12.6465 59.0339 12.5773 59.4063 12.5773 59.7793C12.5667 62.6959 12.572 65.6128 12.5693 68.5294C12.5693 69.0588 12.6625 69.6329 12.0214 69.884C11.3403 69.6893 11.3882 69.171 11.3882 68.6776C11.3856 66.5023 11.3856 64.3271 11.3856 62.1522V58.6801C10.8801 58.6562 10.4971 58.6232 10.1167 58.6227C7.24899 58.6181 4.38134 58.624 1.51363 58.6168C0.992242 58.6155 0.393701 58.7591 0.130346 58.0457C0.281995 57.4056 0.79539 57.4365 1.29021 57.4362C3.36783 57.4357 5.44275 57.4359 7.52033 57.4359H11.1781C11.4388 56.2232 11.4707 48.718 11.2233 47.0498H9.80545C7.03616 47.0498 4.2696 47.0514 1.50035 47.0485C0.973667 47.0479 0.393702 47.1528 0.119728 46.5018C0.32986 45.7551 0.923108 45.8671 1.44985 45.866C4.01956 45.8612 6.59193 45.8639 9.16167 45.8639H11.3803C11.3829 44.0917 11.3856 42.4285 11.3856 40.7657C11.3882 39.086 11.3856 37.4061 11.3856 35.6089C10.9759 35.5687 10.6035 35.5012 10.2284 35.5001C7.36073 35.4911 4.49305 35.4953 1.62803 35.4948C1.27956 35.4948 0.923106 35.5389 0.593215 35.4644C0.409678 35.4229 0.268682 35.1801 0.109076 35.0279C0.268682 34.875 0.409676 34.6313 0.595878 34.5895C0.925769 34.515 1.28223 34.5594 1.62803 34.5592C4.34676 34.5584 7.06545 34.5587 9.78681 34.5587H11.3111V23.9504C7.62674 23.9015 3.94507 23.9541 0.32986 23.9209C0.0186399 23.4396 0.0452348 23.1353 0.508103 23.0403C0.840626 22.972 1.19708 23.0036 1.54292 23.0036C4.26161 23.0015 6.98031 23.0026 9.69904 23.0026H11.1488C11.4414 21.9167 11.5053 14.3259 11.234 12.3728H9.81341C7.09474 12.3728 4.37601 12.3741 1.65466 12.3712C1.26092 12.3706 0.848613 12.4129 0.478845 12.3116C0.300603 12.2629 0.199513 11.9261 0 11.6191C1.3727 11.2866 2.60433 11.4781 3.81738 11.4438C5.05434 11.409 6.29133 11.4361 7.52566 11.4361H11.3005C11.3324 10.9584 11.3829 10.5801 11.3829 10.2015C11.3909 7.38387 11.3856 4.56594 11.3882 1.748C11.3882 1.45168 11.359 1.14787 11.4095 0.860304C11.5026 0.360199 11.7686 0.0510812 12.4363 0.243141C12.7237 1.41363 12.5268 2.64183 12.564 3.85301C12.5986 5.08785 12.572 6.32459 12.572 7.5605V11.2252C13.7398 11.4861 21.1431 11.5297 22.9574 11.285V10.1685C22.9574 7.30113 22.952 4.43399 22.96 1.56685C22.96 1.04386 22.827 0.450098 23.5213 0.174769C24.1518 0.330932 24.1438 0.834496 24.1438 1.33593C24.1411 3.21482 24.1438 5.09319 24.1438 6.97206V11.2283C25.3409 11.4885 32.8 11.5239 34.5105 11.2768V9.85596C34.5105 7.08726 34.5105 4.3188 34.5132 1.55035C34.5132 1.20508 34.4653 0.835568 34.5717 0.524064C34.6356 0.342898 34.9654 0.254595 35.3777 0C35.5107 2.08744 35.4309 3.95065 35.4442 5.80986C35.4602 7.62995 35.4496 9.45056 35.4496 11.4018Z" fill="#EA5501"/>
</svg>
