<svg width="70" height="70" viewBox="0 0 70 70" fill="none" xmlns="http://www.w3.org/2000/svg">
<path d="M52.9896 52.9268C52.7645 55.0561 52.8418 68.1814 53.0731 69.0894C56.0942 69.3256 68.2244 69.2194 69.1028 68.9573V52.9268H52.9896ZM1.13995 17.2622C3.76841 17.4933 16.4069 17.4025 17.3036 17.162V1.20261C15.897 0.999397 2.20259 1.0275 1.13995 1.23666V17.2622ZM51.7713 52.972C49.6055 52.7436 36.5149 52.8231 35.6106 53.0585C35.376 56.1931 35.482 68.2027 35.7436 69.0859H51.7713V52.972ZM1.14457 51.7061C3.25171 51.9331 16.3977 51.8556 17.3017 51.6234C17.533 48.5372 17.4299 36.4854 17.1726 35.5979H1.14457V51.7061ZM51.7684 35.6319C49.7266 35.4133 36.53 35.4846 35.6125 35.7079C35.3831 38.6836 35.4849 50.8478 35.7403 51.7415H51.7684V35.6319ZM1.14675 69.0502C3.17146 69.274 16.3853 69.2019 17.3007 68.974C17.5268 65.998 17.4269 53.8373 17.1763 52.9396H1.14675V69.0502ZM1.13217 18.2122C1.11379 18.5781 1.08946 18.8335 1.09001 19.0888C1.10081 24.2109 1.11457 29.3332 1.13078 34.4555C1.13078 34.4899 1.17189 34.5266 1.19973 34.5574C1.22864 34.5899 1.26454 34.6161 1.27237 34.6231H17.2628C17.5001 32.48 17.4161 19.1078 17.165 18.2122H1.13217ZM34.6045 51.7807C34.8367 49.6312 34.7605 36.4894 34.5313 35.6052H18.2998C18.0744 37.7374 18.1528 50.8508 18.3944 51.7807H34.6045ZM34.6013 69.1262C34.8259 67.1234 34.7569 53.8427 34.535 52.9458H18.3071C18.086 54.8916 18.1552 68.1846 18.3895 69.1262H34.6013ZM34.5804 34.5209C34.8101 33.0094 34.7556 19.1372 34.5332 18.2576H18.2003C18.2003 18.6735 18.199 19.0159 18.2006 19.358C18.2214 24.3476 18.2428 29.3373 18.2665 34.3266C18.2668 34.3663 18.2976 34.4082 18.3217 34.4442C18.346 34.4801 18.3798 34.5096 18.4016 34.5336C19.4729 34.7566 33.4324 34.7577 34.5804 34.5209ZM69.9541 69.9334H0.216774C-0.0172543 68.9583 -0.0863836 1.9004 0.132519 0.175945C1.13081 -0.0410768 16.748 -0.06999 18.1552 0.160539V17.3168C19.6821 17.3801 21.1122 17.3401 22.54 17.3474C23.9855 17.3547 25.4314 17.349 26.877 17.349H35.468C35.6185 18.9013 35.5255 20.3369 35.5428 21.7673C35.5598 23.1691 35.5466 24.5711 35.5466 25.9729V34.5696C36.7038 34.8198 37.8351 34.6606 38.9542 34.6885C40.0927 34.7169 41.2321 34.6947 42.3712 34.6947H52.8594C52.9323 40.4394 52.848 46.0644 52.9077 51.785H69.7108C69.8216 51.911 69.8541 51.9421 69.881 51.9772C69.9054 52.0107 69.9432 52.0483 69.9432 52.0845C69.9648 57.6903 69.9838 63.2961 70 68.9021C70 69.2029 69.9729 69.5034 69.9541 69.9334Z" fill="#EA5501"/>
</svg>
