<svg width="60" height="60" viewBox="0 0 60 60" fill="none" xmlns="http://www.w3.org/2000/svg">
<path d="M24.0019 9H20.0019C19.4497 9 19.002 9.44774 19.002 9.99998V13.9999C19.002 14.5522 19.4497 14.9999 20.0019 14.9999H24.0019C24.5541 14.9999 25.0019 14.5522 25.0019 13.9999V9.99998C25.0019 9.44762 24.5541 9 24.0019 9ZM23.0019 12.9999H21.0019V11H23.0019V12.9999Z" fill="#EA5501"/>
<path d="M31.9999 8.99994H28C27.4477 8.99994 27 9.44768 27 9.99992V13.9999C27 14.5521 27.4477 14.9998 28 14.9998H31.9999C32.5522 14.9998 32.9999 14.5521 32.9999 13.9999V9.99992C32.9999 9.44756 32.5522 8.99994 31.9999 8.99994ZM30.9999 12.9999H29V10.9999H30.9999V12.9999Z" fill="#EA5501"/>
<path d="M39.998 8.99988H35.998C35.4458 8.99988 34.998 9.44762 34.998 9.99986V13.9998C34.998 14.552 35.4458 14.9998 35.998 14.9998H39.998C40.5502 14.9998 40.998 14.552 40.998 13.9998V9.99986C40.998 9.4475 40.5502 8.99988 39.998 8.99988ZM38.998 12.9998H36.998V10.9998H38.998V12.9998Z" fill="#EA5501"/>
<path d="M24.0019 16.9999H20.0019C19.4497 16.9999 19.002 17.4476 19.002 17.9999V21.9998C19.002 22.552 19.4497 22.9998 20.0019 22.9998H24.0019C24.5541 22.9998 25.0019 22.552 25.0019 21.9998V17.9999C25.0019 17.4475 24.5541 16.9999 24.0019 16.9999ZM23.0019 20.9998H21.0019V18.9998H23.0019V20.9998Z" fill="#EA5501"/>
<path d="M31.9999 16.9998H28C27.4477 16.9998 27 17.4476 27 17.9998V21.9997C27 22.552 27.4477 22.9997 28 22.9997H31.9999C32.5522 22.9997 32.9999 22.552 32.9999 21.9997V17.9998C32.9999 17.4474 32.5522 16.9998 31.9999 16.9998ZM30.9999 20.9998H29V18.9998H30.9999V20.9998Z" fill="#EA5501"/>
<path d="M39.998 16.9998H35.998C35.4458 16.9998 34.998 17.4475 34.998 17.9997V21.9997C34.998 22.5519 35.4458 22.9997 35.998 22.9997H39.998C40.5502 22.9997 40.998 22.5519 40.998 21.9997V17.9997C40.998 17.4474 40.5502 16.9998 39.998 16.9998ZM38.998 20.9997H36.998V18.9997H38.998V20.9997Z" fill="#EA5501"/>
<path d="M24.0019 24.9998H20.0019C19.4497 24.9998 19.002 25.4475 19.002 25.9997V29.9997C19.002 30.5519 19.4497 30.9997 20.0019 30.9997H24.0019C24.5541 30.9997 25.0019 30.5519 25.0019 29.9997V25.9997C25.0019 25.4474 24.5541 24.9998 24.0019 24.9998ZM23.0019 28.9997H21.0019V26.9997H23.0019V28.9997Z" fill="#EA5501"/>
<path d="M31.9999 24.9998H28C27.4477 24.9998 27 25.4476 27 25.9998V29.9997C27 30.552 27.4477 30.9997 28 30.9997H31.9999C32.5522 30.9997 32.9999 30.552 32.9999 29.9997V25.9998C32.9999 25.4474 32.5522 24.9998 31.9999 24.9998ZM30.9999 28.9998H29V26.9998H30.9999V28.9998Z" fill="#EA5501"/>
<path d="M39.998 24.9999H35.998C35.4458 24.9999 34.998 25.4476 34.998 25.9999V29.9998C34.998 30.552 35.4458 30.9998 35.998 30.9998H39.998C40.5502 30.9998 40.998 30.552 40.998 29.9998V25.9999C40.998 25.4475 40.5502 24.9999 39.998 24.9999ZM38.998 28.9998H36.998V26.9998H38.998V28.9998Z" fill="#EA5501"/>
<path d="M24.0019 32.9996H20.0019C19.4497 32.9996 19.002 33.4474 19.002 33.9996V37.9996C19.002 38.5518 19.4497 38.9995 20.0019 38.9995H24.0019C24.5541 38.9995 25.0019 38.5518 25.0019 37.9996V33.9996C25.0019 33.4473 24.5541 32.9996 24.0019 32.9996ZM23.0019 36.9996H21.0019V34.9996H23.0019V36.9996Z" fill="#EA5501"/>
<path d="M31.9999 32.9997H28C27.4477 32.9997 27 33.4474 27 33.9997V37.9996C27 38.5519 27.4477 38.9996 28 38.9996H31.9999C32.5522 38.9996 32.9999 38.5519 32.9999 37.9996V33.9997C32.9999 33.4473 32.5522 32.9997 31.9999 32.9997ZM30.9999 36.9996H29V34.9997H30.9999V36.9996Z" fill="#EA5501"/>
<path d="M39.998 32.9996H35.998C35.4458 32.9996 34.998 33.4474 34.998 33.9996V37.9996C34.998 38.5518 35.4458 38.9995 35.998 38.9995H39.998C40.5502 38.9995 40.998 38.5518 40.998 37.9996V33.9996C40.998 33.4473 40.5502 32.9996 39.998 32.9996ZM38.998 36.9996H36.998V34.9996H38.998V36.9996Z" fill="#EA5501"/>
<path d="M24.0019 40.9995H20.0019C19.4497 40.9995 19.002 41.4473 19.002 41.9995V45.9994C19.002 46.5517 19.4497 46.9994 20.0019 46.9994H24.0019C24.5541 46.9994 25.0019 46.5517 25.0019 45.9994V41.9995C25.0019 41.4471 24.5541 40.9995 24.0019 40.9995ZM23.0019 44.9995H21.0019V42.9995H23.0019V44.9995Z" fill="#EA5501"/>
<path d="M31.9999 40.9995H28C27.4477 40.9995 27 41.4473 27 41.9995V45.9994C27 46.5517 27.4477 46.9994 28 46.9994H31.9999C32.5522 46.9994 32.9999 46.5517 32.9999 45.9994V41.9995C32.9999 41.4471 32.5522 40.9995 31.9999 40.9995ZM30.9999 44.9995H29V42.9995H30.9999V44.9995Z" fill="#EA5501"/>
<path d="M39.998 40.9995H35.998C35.4458 40.9995 34.998 41.4473 34.998 41.9995V45.9994C34.998 46.5517 35.4458 46.9994 35.998 46.9994H39.998C40.5502 46.9994 40.998 46.5517 40.998 45.9994V41.9995C40.998 41.4471 40.5502 40.9995 39.998 40.9995ZM38.998 44.9995H36.998V42.9995H38.998V44.9995Z" fill="#EA5501"/>
<path d="M54.9999 57.9993V55.9123C56.0203 55.7419 56.9789 55.3094 57.7819 54.6573C60.0105 52.8467 60.6439 49.7111 59.2929 47.1774C58.6314 46.0959 58.4341 44.7933 58.7459 43.5645C59.0461 42.6544 59.0809 41.6776 58.8459 40.7485C58.3941 38.9574 56.9839 37.5662 55.1869 37.1386C52.5045 36.4828 49.7985 38.1258 49.1428 40.8081C48.9414 41.6319 48.9529 42.4934 49.176 43.3113C49.5532 44.5406 49.4195 45.8698 48.805 46.9993C47.1472 49.8684 48.1292 53.5383 50.9984 55.196C51.5335 55.5053 52.1132 55.7299 52.7171 55.8622C52.8111 55.8822 52.9061 55.8912 53.0001 55.9062V57.9991H45.0002V4.99992C45.0002 4.44768 44.5525 3.99994 44.0002 3.99994H41.0003V0.999985C41.0003 0.447743 40.5525 0 40.0003 0H20.0006C19.4484 0 19.0006 0.447743 19.0006 0.999985V3.99994H16.0007C15.4484 3.99994 15.0007 4.44768 15.0007 4.99992V57.9991H7.0008V55.9122C10.2652 55.3632 12.4667 52.2717 11.9176 49.0073C11.81 48.3675 11.5994 47.7495 11.2937 47.1773C10.6322 46.0958 10.435 44.7932 10.7467 43.5643C11.047 42.6542 11.0817 41.6775 10.8467 40.7484C10.395 38.9573 8.98477 37.5661 7.18779 37.1384C4.50534 36.4827 1.79925 38.1257 1.14364 40.808C0.942263 41.6317 0.953763 42.4932 1.17688 43.3112C1.554 44.5405 1.42038 45.8697 0.80589 46.9992C-0.85196 49.8683 0.130026 53.5382 2.99911 55.1959C3.53422 55.5052 4.11397 55.7298 4.71783 55.862C4.81183 55.882 4.90683 55.891 5.00083 55.906V57.999H0.000902532V59.999H60V57.999H54.9999V57.9993ZM5.0007 53.8703C2.86611 53.3256 1.57725 51.1535 2.12212 49.0189C2.21274 48.6636 2.35199 48.3227 2.53574 48.0054C3.42085 46.4112 3.6246 44.5271 3.10073 42.7805C3.03273 42.5257 2.99911 42.2631 3.00073 41.9995C2.99861 41.0829 3.41785 40.216 4.13772 39.6485C4.66408 39.2265 5.31907 38.9975 5.99369 38.9995C6.24318 38.9998 6.49181 39.0287 6.73468 39.0855C8.3384 39.4859 9.31401 41.1105 8.91364 42.7142C8.89539 42.7875 8.87439 42.8599 8.85064 42.9315C8.35553 44.6811 8.6014 46.5574 9.53063 48.1204C9.84151 48.6978 10.003 49.3436 10.0006 49.9994C10.0041 51.8237 8.7684 53.4174 7.00067 53.8683V41.9995H5.0007V53.8703ZM21.0005 2.00009H39.0002V4.00007H21.0005V2.00009ZM29.0003 57.9993H25.0004V51.9993H29.0003V57.9993ZM35.0002 57.9993H31.0003V51.9993H35.0002V57.9993ZM43.0001 57.9993H37.0002V50.9994C37.0002 50.4471 36.5525 49.9994 36.0002 49.9994H24.0004C23.4482 49.9994 23.0004 50.4471 23.0004 50.9994V57.9993H17.0005V6.00004H43.0001V57.9993ZM53 53.8703C50.8654 53.3256 49.5765 51.1535 50.1214 49.0189C50.212 48.6636 50.3513 48.3227 50.535 48.0054C51.4215 46.4117 51.6266 44.5276 51.104 42.7805C51.0346 42.526 50.9996 42.2632 51 41.9995C50.9979 41.0829 51.4171 40.216 52.137 39.6485C52.6634 39.2265 53.3183 38.9975 53.993 38.9995C54.2425 38.9998 54.4911 39.0287 54.734 39.0855C56.3377 39.4859 57.3133 41.1105 56.9129 42.7142C56.8947 42.7875 56.8737 42.8599 56.8499 42.9315C56.3548 44.6811 56.6007 46.5574 57.5299 48.1204C57.8408 48.6978 58.0023 49.3436 57.9999 49.9994C58.0034 51.8237 56.7677 53.4174 54.9999 53.8683V41.9995H53V53.8703Z" fill="#EA5501"/>
</svg>
