<svg width="47" height="55" viewBox="0 0 47 55" fill="none" xmlns="http://www.w3.org/2000/svg">
<path d="M45.3219 9.33917C37.7364 7.23887 30.4592 4.15219 23.6769 0.158171C23.5017 0.0546239 23.3019 0 23.0984 0C22.8949 0 22.6951 0.0546239 22.5199 0.158171C15.7505 4.17842 8.46946 7.26662 0.873934 9.33917C0.632945 9.40509 0.420377 9.54855 0.269087 9.74738C0.117797 9.94621 0.036209 10.1893 0.0369321 10.4392V22.0602C-0.0214355 26.6094 0.849066 31.1226 2.59517 35.3237C4.34128 39.5249 6.92626 43.3256 10.1919 46.4932C15.1789 51.3802 20.9919 54.0832 23.0979 54.0832C25.2039 54.0832 31.0169 51.3832 36.0039 46.4932C39.2691 43.3253 41.8535 39.5245 43.5991 35.3234C45.3447 31.1223 46.2147 26.6091 46.1559 22.0602V10.4362C46.1562 10.1872 46.0747 9.9451 45.9241 9.74693C45.7734 9.54876 45.5619 9.40551 45.3219 9.33917ZM43.8839 22.0602C43.9398 26.3063 43.1285 30.5191 41.4998 34.4409C39.8712 38.3626 37.4593 41.9108 34.4119 44.8682C29.5119 49.6742 24.2639 51.8072 23.0979 51.8072C21.9319 51.8072 16.6879 49.6732 11.7839 44.8682C8.73655 41.9108 6.32472 38.3626 4.69604 34.4409C3.06737 30.5191 2.25612 26.3063 2.31193 22.0602V11.3002C9.5863 9.24095 16.5708 6.26934 23.0989 2.45617C29.6396 6.24283 36.6201 9.21301 43.8839 11.3002V22.0602Z" fill="#EA5501"/>
<path d="M13.0146 11.1722C12.9038 10.8915 12.6861 10.6663 12.4093 10.5461C12.1325 10.4259 11.8193 10.4205 11.5386 10.5312C9.50659 11.3312 7.42059 12.0692 5.33859 12.7222C5.10704 12.7942 4.90455 12.9383 4.76065 13.1335C4.61674 13.3287 4.53894 13.5647 4.53859 13.8072V18.2002C4.53407 18.3524 4.56016 18.504 4.61529 18.646C4.67043 18.7879 4.75349 18.9174 4.85956 19.0266C4.96563 19.1359 5.09256 19.2228 5.23282 19.2821C5.37307 19.3414 5.52381 19.372 5.67609 19.372C5.82837 19.372 5.9791 19.3414 6.11936 19.2821C6.25961 19.2228 6.38654 19.1359 6.49261 19.0266C6.59868 18.9174 6.68175 18.7879 6.73688 18.646C6.79202 18.504 6.8181 18.3524 6.81359 18.2002V14.6382C8.68059 14.0382 10.5466 13.3652 12.3696 12.6472C12.5089 12.5929 12.6361 12.5116 12.744 12.408C12.8518 12.3044 12.9382 12.1805 12.9981 12.0435C13.058 11.9065 13.0903 11.759 13.0931 11.6095C13.096 11.46 13.0693 11.3114 13.0146 11.1722Z" fill="#EA5501"/>
<path d="M15.1749 11.3883C15.3322 11.3868 15.4875 11.3527 15.6309 11.2883L15.6519 11.2793C15.7966 11.2245 15.9287 11.1408 16.0399 11.0333C16.1512 10.9258 16.2394 10.7967 16.2991 10.654C16.3588 10.5113 16.3887 10.3579 16.3871 10.2031C16.3855 10.0484 16.3524 9.89568 16.2898 9.7542C16.2272 9.61273 16.1363 9.48551 16.0228 9.38033C15.9094 9.27515 15.7757 9.19421 15.6299 9.14245C15.4841 9.0907 15.3292 9.06923 15.1748 9.07934C15.0205 9.08945 14.8697 9.13094 14.7319 9.20126L14.7139 9.20926C14.4748 9.31431 14.2791 9.49851 14.1597 9.73089C14.0404 9.96326 14.0047 10.2296 14.0587 10.4852C14.1127 10.7408 14.253 10.97 14.4561 11.1343C14.6592 11.2986 14.9127 11.3879 15.1739 11.3873L15.1749 11.3883Z" fill="#EA5501"/>
<path d="M36.6511 36.6832C36.3984 36.5181 36.0906 36.4601 35.7952 36.522C35.4999 36.5839 35.2412 36.7605 35.0761 37.0131C34.1177 38.4746 33.0232 39.8421 31.8071 41.0972C30.7937 42.1443 29.7029 43.1137 28.5441 43.9971C28.421 44.0862 28.3171 44.1989 28.2383 44.3288C28.1595 44.4586 28.1076 44.6029 28.0854 44.7531C28.0633 44.9033 28.0714 45.0565 28.1094 45.2035C28.1473 45.3506 28.2143 45.4885 28.3064 45.6093C28.3986 45.73 28.5139 45.8311 28.6457 45.9066C28.7775 45.982 28.923 46.0304 29.0738 46.0487C29.2245 46.0671 29.3774 46.055 29.5234 46.0134C29.6695 45.9717 29.8057 45.9013 29.9241 45.8061C31.1739 44.8522 32.3502 43.8055 33.4431 42.6751C34.7598 41.3166 35.9447 39.8363 36.9821 38.2541C37.1458 38.0017 37.2029 37.6947 37.1408 37.4003C37.0788 37.1059 36.9027 36.8481 36.6511 36.6832Z" fill="#EA5501"/>
<path d="M25.9081 45.7851L25.8431 45.8231C25.7096 45.8958 25.592 45.9944 25.4972 46.1133C25.4025 46.2321 25.3325 46.3687 25.2914 46.515C25.2503 46.6613 25.2389 46.8144 25.258 46.9652C25.277 47.116 25.3261 47.2614 25.4022 47.3929C25.4783 47.5244 25.58 47.6393 25.7013 47.7309C25.8226 47.8225 25.961 47.8888 26.1084 47.926C26.2557 47.9633 26.409 47.9706 26.5593 47.9476C26.7095 47.9246 26.8536 47.8717 26.983 47.7921L27.0581 47.7481C27.1915 47.675 27.309 47.5759 27.4035 47.4565C27.498 47.3372 27.5676 47.2002 27.6082 47.0535C27.6487 46.9068 27.6595 46.7534 27.6397 46.6025C27.62 46.4516 27.5702 46.3062 27.4933 46.1748C27.4163 46.0435 27.3138 45.9289 27.1918 45.8379C27.0698 45.7469 26.9308 45.6813 26.783 45.645C26.6352 45.6086 26.4816 45.6023 26.3313 45.6264C26.181 45.6505 26.0371 45.7045 25.9081 45.7851Z" fill="#EA5501"/>
<path d="M15.3426 24.7191C15.001 24.3671 14.5927 24.0865 14.1417 23.8937C13.6906 23.7008 13.2056 23.5996 12.7151 23.5959C12.2245 23.5923 11.7381 23.6862 11.2842 23.8722C10.8303 24.0582 10.4179 24.3327 10.071 24.6795C9.72413 25.0264 9.44969 25.4388 9.26366 25.8928C9.07763 26.3467 8.98373 26.8331 8.98741 27.3236C8.99109 27.8142 9.09229 28.2991 9.28512 28.7502C9.47794 29.2013 9.75855 29.6095 10.1106 29.9511L16.8286 36.6681C17.5225 37.3618 18.4634 37.7516 19.4446 37.7516C20.4258 37.7516 21.3667 37.3618 22.0606 36.6681L36.0846 22.6441C36.7613 21.9468 37.1365 21.0113 37.1292 20.0396C37.1219 19.068 36.7327 18.1382 36.0456 17.4511C35.3585 16.7641 34.4287 16.3748 33.4571 16.3675C32.4854 16.3602 31.5499 16.7355 30.8526 17.4121L19.4436 28.8211L15.3426 24.7191ZM32.4606 19.0191C32.5928 18.8869 32.7498 18.782 32.9226 18.7104C33.0954 18.6389 33.2806 18.602 33.4676 18.602C33.6546 18.602 33.8398 18.6389 34.0126 18.7104C34.1854 18.782 34.3424 18.8869 34.4746 19.0191C34.6068 19.1514 34.7117 19.3084 34.7833 19.4812C34.8549 19.6539 34.8917 19.8391 34.8917 20.0261C34.8917 20.2132 34.8549 20.3983 34.7833 20.5711C34.7117 20.7439 34.6068 20.9009 34.4746 21.0331L20.4516 35.0571C20.1844 35.324 19.8222 35.4739 19.4446 35.4739C19.067 35.4739 18.7048 35.324 18.4376 35.0571L11.7206 28.3401C11.4535 28.0731 11.3035 27.7108 11.3035 27.3331C11.3035 26.9554 11.4535 26.5932 11.7206 26.3261C11.9877 26.0591 12.3499 25.909 12.7276 25.909C13.1053 25.909 13.4675 26.0591 13.7346 26.3261L18.6406 31.2321C18.854 31.4454 19.1434 31.5653 19.4451 31.5653C19.7468 31.5653 20.0362 31.4454 20.2496 31.2321L32.4606 19.0191Z" fill="#EA5501"/>
</svg>
