<svg width="50" height="56" viewBox="0 0 50 56" fill="none" xmlns="http://www.w3.org/2000/svg">
<path d="M49.6012 7.40736L47.227 5.33397L49.6012 3.26101C49.9704 2.93814 50.0967 2.43493 49.9233 1.97838C49.7491 1.52141 49.3189 1.22629 48.8267 1.22629H39.0018V0.807579C39.0018 0.36154 38.6372 0 38.1875 0C37.7377 0 37.3732 0.36154 37.3732 0.807579V11.6992L30.6855 15.3007C30.6486 15.0089 30.5604 14.7222 30.421 14.4523L29.4787 12.6278C28.8318 11.3751 27.2778 10.8786 26.0155 11.5197L25.2868 11.8896C24.6747 12.2007 24.2216 12.7287 24.0105 13.3778C23.7994 14.0265 23.8557 14.718 24.1694 15.3247L25.1117 17.1496C25.3317 17.5755 25.6569 17.9126 26.0392 18.1489C25.539 18.8169 25.3016 19.6383 25.0575 20.4917L24.882 21.108C24.7595 21.5373 25.0113 21.9837 25.4441 22.1048C25.5178 22.1258 25.5924 22.1355 25.6658 22.1355C26.021 22.1355 26.3474 21.9034 26.4491 21.5474L26.6246 20.9323C26.9815 19.6842 27.2007 19.0157 27.8984 18.6399L29.1493 17.966L29.3036 17.8878C29.3549 17.8618 29.4028 17.8323 29.4515 17.8033L38.3668 13.002C38.3104 14.1072 37.7106 15.1515 36.723 15.7463L30.9254 19.2398C30.9186 19.2436 30.9118 19.2474 30.9055 19.2516L29.101 20.3387C28.7169 20.5704 28.5944 21.0673 28.828 21.4486C29.048 21.808 29.5058 21.9358 29.8792 21.7555L28.5101 25.8602L27.5093 26.2671L24.7879 27.3732L25.5721 24.6238C25.6942 24.1946 25.4428 23.7481 25.01 23.6266C24.5768 23.5047 24.127 23.7549 24.0045 24.1841L22.7655 28.5297C22.7494 28.5856 22.7388 28.647 22.7362 28.7054L22.412 34.6128C22.4022 34.8382 22.4505 35.264 22.3454 35.4839L18.744 42.998H16.1269C14.5937 42.998 13.3466 44.2348 13.3466 45.755V48.0861C12.9957 47.9267 12.6061 47.8376 12.1953 47.8376H5.54916C4.01637 47.8376 2.76928 49.074 2.76928 50.5946V53.4869H0.814295C0.364546 53.4869 0 53.8484 0 54.2945C0 54.7405 0.364546 55.102 0.814295 55.102H48.8259C49.2756 55.102 49.6402 54.7405 49.6402 54.2945C49.6402 53.8484 49.2756 53.4869 48.8259 53.4869H46.7081V32.671C46.7081 31.1509 45.461 29.9141 43.9283 29.9141H39.0018V15.8254C39.9047 14.6117 40.2391 13.0209 39.8199 11.5092C39.7542 11.2716 39.5825 11.0766 39.3536 10.9803C39.2413 10.9328 39.1209 10.9118 39.0018 10.9164V9.44208H48.8263C49.3189 9.44208 49.7491 9.14696 49.9229 8.69041C50.0967 8.23386 49.9704 7.73023 49.6012 7.40736V7.40736ZM25.5606 13.8739C25.6382 13.6355 25.8044 13.4413 26.029 13.3274L26.7577 12.9574C26.895 12.8876 27.0417 12.8544 27.1867 12.8544C27.53 12.8544 27.8619 13.0407 28.0289 13.3639L28.9717 15.1889C29.1917 15.6152 29.0493 16.1318 28.658 16.3929L28.3926 16.5354L27.8327 16.82C27.3694 17.0554 26.7988 16.873 26.5614 16.4131L25.6187 14.5886C25.5038 14.3657 25.4831 14.1118 25.5606 13.8739V13.8739ZM23.9244 43.2465C23.6476 43.1212 23.3466 43.0392 23.0304 43.0102L23.9244 41.8327V43.2465ZM27.7907 36.7392C28.1824 36.2738 28.2905 35.7302 28.3778 35.2922C28.3999 35.1879 28.8017 33.0111 28.8017 33.0111C28.8017 33.0111 29.1819 33.2461 29.2218 33.2629C29.2493 33.2751 29.2688 33.302 29.2718 33.3336L29.7148 37.7994H26.9858L27.7907 36.7392ZM32.6061 32.2817L31.9186 37.7956H31.351L30.8928 33.1755C30.8343 32.5836 30.4689 32.0669 29.9335 31.81L29.1145 31.2951L29.6601 28.2964C29.6601 28.2964 31.9584 31.0041 32.0118 31.0731C32.4874 31.6864 32.6502 31.932 32.6061 32.2817ZM23.8104 36.1901C23.9749 35.6991 24.0512 35.1993 24.0384 34.691L24.3343 29.3032L28.1006 27.7726L27.416 31.5334C27.4139 31.5435 27.4118 31.554 27.4105 31.5641L26.8442 34.6738C26.7704 34.9958 26.706 35.4843 26.5034 35.7496L21.0008 42.998H20.5473L23.8104 36.1901ZM4.39787 50.5941C4.39787 49.9648 4.91417 49.4528 5.54916 49.4528H12.1953C12.8303 49.4528 13.3471 49.9648 13.3471 50.5941V53.4869H4.39787V50.5941ZM14.9752 50.5941V45.755C14.9752 45.1252 15.4919 44.6132 16.1269 44.6132H22.7731C23.4081 44.6132 23.9244 45.1252 23.9244 45.755V53.4869H14.9756V50.5941H14.9752ZM45.0795 32.671V53.4869H36.1308V48.6448C36.1308 48.1987 35.7662 47.8372 35.3165 47.8372C34.8663 47.8372 34.5018 48.1987 34.5018 48.6448V53.4869H25.553V40.5559C25.553 39.9266 26.0693 39.4146 26.7043 39.4146H33.3505C33.9855 39.4146 34.5018 39.9266 34.5018 40.5559V44.6044C34.5018 45.0504 34.8663 45.4119 35.3161 45.4119C35.7662 45.4119 36.1304 45.0504 36.1304 44.6044V32.671C36.1304 32.0413 36.6471 31.5292 37.2821 31.5292H38.179C38.1816 31.5292 38.1845 31.5296 38.1875 31.5296C38.19 31.5296 38.193 31.5292 38.1956 31.5292H43.9278C44.5628 31.5292 45.0795 32.0417 45.0795 32.671V32.671ZM37.2821 29.9141C35.7493 29.9141 34.5022 31.1509 34.5022 32.671V38.0479C34.2106 37.9159 33.8926 37.8322 33.5582 37.8078L34.2224 32.4806C34.353 31.4422 33.8189 30.754 33.3026 30.0881C33.2479 30.0175 30.0827 26.2903 30.0827 26.2903L32.0245 20.4678L37.3732 17.245V29.9141H37.2821ZM39.0018 7.8265V2.84187H47.6165L45.7612 4.46207C45.5085 4.68278 45.3635 5.0006 45.3635 5.33439C45.3635 5.66819 45.5085 5.98601 45.7612 6.20671L47.6165 7.82692H39.0018V7.8265Z" fill="#EA5501"/>
</svg>
