<svg width="30" height="30" viewBox="0 0 30 30" fill="none" xmlns="http://www.w3.org/2000/svg">
<path d="M23.7225 18.5853C23.1074 17.9458 22.3655 17.6038 21.5792 17.6038C20.7993 17.6038 20.051 17.9394 19.4106 18.5789L17.4068 20.5735C17.242 20.4848 17.0771 20.4025 16.9186 20.3202C16.6903 20.2062 16.4747 20.0986 16.2908 19.9846C14.4139 18.7942 12.7081 17.2429 11.0722 15.2357C10.2795 14.2353 9.74688 13.3932 9.36008 12.5384C9.88004 12.0635 10.362 11.5696 10.8312 11.0947C11.0087 10.9174 11.1863 10.7338 11.3638 10.5565C12.6955 9.22686 12.6955 7.50461 11.3638 6.17493L9.63274 4.44634C9.43617 4.25006 9.23326 4.04744 9.04303 3.84482C8.66256 3.45225 8.26308 3.04701 7.85091 2.6671C7.23583 2.05925 6.50028 1.73633 5.72667 1.73633C4.95307 1.73633 4.20483 2.05925 3.57072 2.6671C3.56438 2.67344 3.56438 2.67344 3.55804 2.67977L1.40209 4.85158C0.590443 5.66205 0.127549 6.64981 0.0260924 7.79587C-0.126092 9.64476 0.419236 11.367 0.837743 12.4941C1.86499 15.2611 3.39952 17.8255 5.68862 20.5735C8.46599 23.885 11.8077 26.5 15.625 28.3426C17.0834 29.0328 19.0301 29.8496 21.2051 29.9889C21.3383 29.9952 21.4778 30.0015 21.6046 30.0015C23.0694 30.0015 24.2995 29.476 25.2634 28.4312C25.2697 28.4186 25.2824 28.4122 25.2887 28.3996C25.6185 28.0007 25.9989 27.6398 26.3984 27.2535C26.6711 26.9939 26.9501 26.7216 27.2227 26.4367C27.8505 25.7845 28.1802 25.0247 28.1802 24.2459C28.1802 23.4608 27.8442 22.7073 27.2037 22.0741L23.7225 18.5853ZM25.9926 25.2527C25.9862 25.2527 25.9862 25.259 25.9926 25.2527C25.7453 25.5186 25.4916 25.7592 25.219 26.0251C24.8068 26.4177 24.3883 26.8293 23.9952 27.2915C23.3547 27.9753 22.6001 28.2983 21.6109 28.2983C21.5158 28.2983 21.4144 28.2983 21.3192 28.2919C19.436 28.1716 17.6858 27.4371 16.3732 26.8103C12.7842 25.0754 9.63274 22.6123 7.0139 19.4907C4.85161 16.8883 3.40586 14.4823 2.44836 11.8989C1.85865 10.3223 1.64305 9.09389 1.73817 7.93517C1.80158 7.19435 2.08692 6.58016 2.61323 6.05462L4.77552 3.89547C5.08623 3.60421 5.41596 3.44592 5.73935 3.44592C6.13884 3.44592 6.46223 3.68652 6.66514 3.88914C6.67148 3.89547 6.67782 3.90181 6.68417 3.90814C7.07097 4.26905 7.43875 4.64263 7.82555 5.04153C8.02212 5.24415 8.22503 5.44677 8.42795 5.65572L10.159 7.3843C10.8312 8.05547 10.8312 8.67599 10.159 9.34716C9.97515 9.53078 9.79761 9.71441 9.61372 9.8917C9.08107 10.4362 8.57379 10.9428 8.02212 11.4367C8.00944 11.4493 7.99676 11.4557 7.99042 11.4683C7.44509 12.0129 7.54654 12.5447 7.66068 12.9056C7.66702 12.9246 7.67336 12.9436 7.67971 12.9626C8.12992 14.0517 8.76402 15.0774 9.72785 16.2995L9.7342 16.3058C11.4843 18.4586 13.3296 20.1366 15.365 21.4219C15.625 21.5865 15.8913 21.7195 16.145 21.8462C16.3732 21.9601 16.5888 22.0678 16.7727 22.1817C16.7981 22.1944 16.8235 22.2134 16.8488 22.2261C17.0644 22.3337 17.2673 22.3844 17.4766 22.3844C18.0029 22.3844 18.3326 22.0551 18.4404 21.9475L20.609 19.782C20.8246 19.5667 21.1671 19.3071 21.5665 19.3071C21.9597 19.3071 22.2831 19.554 22.4796 19.7693C22.486 19.7756 22.486 19.7757 22.4923 19.782L25.9862 23.2708C26.6394 23.9167 26.6394 24.5815 25.9926 25.2527Z" fill="white"/>
<path d="M16.2163 7.13613C17.8777 7.41473 19.3869 8.19988 20.5917 9.40292C21.7964 10.606 22.5764 12.1129 22.8617 13.7719C22.9315 14.1898 23.2929 14.481 23.7051 14.481C23.7558 14.481 23.8002 14.4747 23.8509 14.4684C24.3202 14.3924 24.6309 13.9492 24.5548 13.4806C24.2124 11.4734 23.2612 9.64353 21.8091 8.19355C20.357 6.74356 18.5245 5.79379 16.5144 5.45187C16.0451 5.37589 15.6076 5.68615 15.5252 6.14837C15.4427 6.61059 15.7471 7.06015 16.2163 7.13613Z" fill="white"/>
<path d="M29.9883 13.2338C29.4239 9.92864 27.864 6.92103 25.4671 4.52761C23.0702 2.13419 20.0582 0.576563 16.7482 0.0130318C16.2853 -0.0692817 15.8478 0.247309 15.7654 0.709531C15.6893 1.17808 16 1.61498 16.4692 1.69729C19.4241 2.19751 22.1191 3.59683 24.2623 5.73065C26.4056 7.8708 27.8006 10.5618 28.3016 13.5124C28.3713 13.9303 28.7328 14.2216 29.1449 14.2216C29.1956 14.2216 29.24 14.2153 29.2908 14.2089C29.7537 14.1393 30.0707 13.6961 29.9883 13.2338Z" fill="white"/>
</svg>
