<svg width="26" height="26" viewBox="0 0 26 26" fill="none" xmlns="http://www.w3.org/2000/svg">
<path d="M21 16C19.1907 16 17.6173 16.976 16.74 18.4187L9.63067 14.864C9.864 14.2867 10 13.66 10 13C10 12.34 9.864 11.7133 9.63067 11.136L16.74 7.58133C17.6187 9.024 19.1907 10 21 10C23.756 10 26 7.756 26 5C26 2.244 23.756 0 21 0C18.244 0 16 2.244 16 5C16 5.23333 16.0373 5.456 16.0693 5.68133L8.55333 9.43867C8.54267 9.444 8.536 9.45467 8.52667 9.46C7.62133 8.55867 6.37467 8 5 8C2.244 8 0 10.244 0 13C0 15.756 2.244 18 5 18C6.37467 18 7.62133 17.4413 8.52667 16.54C8.53733 16.5453 8.54267 16.556 8.55333 16.5613L16.0693 20.3187C16.0387 20.544 16 20.7667 16 21C16 23.756 18.244 26 21 26C23.756 26 26 23.756 26 21C26 18.244 23.756 16 21 16ZM21 2C22.6533 2 24 3.34667 24 5C24 6.65333 22.6533 8 21 8C19.3467 8 18 6.65333 18 5C18 3.34667 19.3467 2 21 2ZM5 16C3.34667 16 2 14.6533 2 13C2 11.3467 3.34667 10 5 10C6.65333 10 8 11.3467 8 13C8 14.6533 6.65333 16 5 16ZM21 24C19.3467 24 18 22.6533 18 21C18 19.3467 19.3467 18 21 18C22.6533 18 24 19.3467 24 21C24 22.6533 22.6533 24 21 24Z" fill="white"/>
</svg>
