<svg width="25" height="13" viewBox="0 0 25 13" fill="none" xmlns="http://www.w3.org/2000/svg">
<path d="M24.3527 12.6702C24.1286 12.466 23.9468 12.3004 23.7311 12.1037C23.7465 12.3178 23.7589 12.4909 23.7719 12.6702H24.3527ZM23.3899 12.673C23.399 12.5257 23.4004 12.4358 23.4109 12.3471C23.4696 11.8483 23.3032 11.4672 22.8811 11.2028C22.7793 11.139 22.7047 11.0273 22.6204 10.9348C22.3358 10.6221 22.0558 10.305 21.7658 9.99785C21.7165 9.94551 21.6268 9.9343 21.5445 9.89937V12.673H23.3899ZM19.2229 7.35333V12.673H21.1294C21.1506 12.5995 21.1775 12.5494 21.1776 12.4992C21.1811 11.57 21.1769 10.6407 21.1857 9.71163C21.1876 9.50838 21.1071 9.37041 20.9741 9.23738C20.7116 8.97495 20.455 8.70578 20.2023 8.43314C19.9047 8.11244 19.6138 7.78509 19.2229 7.35333ZM16.9108 5.03306C16.8179 6.0804 16.8529 12.2781 16.9547 12.6971C17.5723 12.6897 18.1975 12.7246 18.7919 12.6768C18.8291 12.6146 18.8458 12.5997 18.8459 12.5847C18.8527 10.7821 18.8564 8.97961 18.8667 7.17699C18.8679 6.96681 18.7558 6.84863 18.6209 6.72334C18.2985 6.42407 17.9817 6.11816 17.6683 5.80877C17.4211 5.56485 17.1823 5.31181 16.9108 5.03306ZM14.7307 2.76522C14.7076 2.78784 14.6881 2.79768 14.6852 2.81127C14.6703 2.88075 14.6492 2.95124 14.6493 3.02127C14.6528 6.2076 14.6582 9.39394 14.6645 12.5802C14.6645 12.5955 14.6783 12.6119 14.6883 12.6259C14.6986 12.6405 14.712 12.6527 14.7245 12.6664H16.516C16.5265 12.5489 16.5412 12.4616 16.5412 12.3741C16.5427 9.91578 16.5377 7.45746 16.5481 4.99923C16.5498 4.63176 16.3967 4.37618 16.149 4.15323C16.0443 4.05904 15.9231 3.98252 15.8272 3.88012C15.5012 3.53189 15.1845 3.17445 14.8604 2.82439C14.8289 2.79029 14.7708 2.78264 14.7307 2.76522ZM12.547 12.6407C13.1983 12.7403 13.9481 12.7218 14.2991 12.6042V2.17799C13.7493 1.64548 13.162 1.07668 12.547 0.481069V12.6407ZM24.9552 13H0C0.205699 12.7125 0.342177 12.4646 0.530088 12.2699C1.02109 11.7611 1.54167 11.2828 2.03637 10.7777C2.33224 10.4757 2.59317 10.1371 2.88516 9.83071C3.20242 9.49771 3.53783 9.18331 3.86478 8.86015C4.1028 8.62471 4.34724 8.39547 4.57566 8.15037C4.86439 7.84043 5.1312 7.50834 5.42328 7.20196C5.74064 6.86896 6.0801 6.55875 6.40194 6.23022C6.56264 6.06609 6.69797 5.87552 6.85753 5.71002C8.59971 3.90229 10.3445 2.0972 12.0885 0.291299C12.1383 0.239785 12.1853 0.184626 12.2386 0.137214C12.4487 -0.0495335 12.5099 -0.0475307 12.7302 0.154712C12.796 0.215075 12.8553 0.283012 12.9176 0.347476C16.8288 4.39814 20.7402 8.44872 24.6508 12.5001C24.7717 12.6254 24.8839 12.7599 25 12.89C24.985 12.9268 24.9701 12.9633 24.9552 13Z" fill="#EA5501"/>
</svg>
