<svg width="70" height="71" viewBox="0 0 70 71" fill="none" xmlns="http://www.w3.org/2000/svg">
<path d="M30.0669 52.5504C32.5985 52.8177 56.6627 52.7236 57.7374 52.4553C58.0075 49.0059 57.8883 37.4082 57.5806 36.3675H30.0669V52.5504ZM47.0542 18.7536C44.5108 18.4778 20.4442 18.5765 19.3823 18.8528C19.112 22.2997 19.2311 33.903 19.5383 34.9403H47.0542V18.7536ZM29.0173 36.3728C28.7016 36.3337 28.5078 36.2886 28.314 36.2889C19.2935 36.2993 10.2728 36.3139 1.25207 36.3312C1.21074 36.3312 1.16756 36.378 1.1289 36.4082C1.08837 36.4396 1.05212 36.4775 1.03292 36.4948V52.59C1.30272 52.6219 1.49707 52.6651 1.69143 52.6651C10.7121 52.6557 19.7329 52.6431 28.7539 52.6272C28.7954 52.6272 28.8394 52.5829 28.8784 52.5532C28.9194 52.5224 28.9554 52.4845 29.0173 52.4278V36.3728ZM41.3806 70.2103C44.02 70.4696 67.9653 70.3753 69.0629 70.1119V53.7294H41.3806V70.2103ZM40.022 53.7549C37.0025 53.4789 13.4216 53.5894 12.3392 53.871V70.2403H40.022V53.7549ZM0.98573 17.6513C1.42669 17.6513 1.72502 17.6516 2.02307 17.651C10.9382 17.6381 19.8534 17.6249 28.7685 17.6084C28.8093 17.6084 28.852 17.5587 28.8893 17.5271C28.9285 17.4938 28.9626 17.4539 28.9981 17.4162C29.1972 13.4849 29.1114 2.35837 28.8594 1.02024C28.5776 1.00706 28.2801 0.980373 27.9823 0.980936C19.0672 0.992759 10.1523 1.00733 1.23713 1.0252C1.19688 1.0252 1.15397 1.07636 1.11717 1.10988C1.0793 1.14453 1.04759 1.18633 0.98573 1.25588V17.6513ZM0.078478 18.632V0.0703348C0.491993 0.0447682 0.834576 0.00519114 1.17715 0.00519114C10.248 0.00191112 19.3188 0.00242987 28.3899 0.00270756C28.6448 0.00270756 28.9002 -0.00660797 29.154 0.00931926C29.7027 0.0439726 29.9808 0.359319 29.9927 0.921028C30.0007 1.28862 29.9973 1.65674 29.9973 2.02461V17.5639C30.522 17.5964 30.9632 17.6469 31.4047 17.6475C36.3989 17.6533 41.3929 17.6511 46.3871 17.6513C46.7438 17.6513 47.1006 17.6519 47.4573 17.6555C48.0126 17.6612 48.3016 17.9697 48.3365 18.5243C48.3594 18.8905 48.3445 19.2597 48.3445 19.6276C48.3448 24.1995 48.3445 28.7718 48.3445 33.344V35.0242H49.8313C52.0737 35.0242 54.3161 35.0393 56.5582 35.0201C58.8606 35 58.7702 34.9794 58.7641 37.2196C58.7513 41.7918 58.7604 46.3641 58.7601 50.9363V52.6646C62.5496 52.6767 66.2383 52.6632 70 52.6728V70.763C69.9712 70.793 69.9373 70.8331 69.8984 70.8666C69.8611 70.8988 69.8192 70.948 69.7779 70.9497C69.2695 70.9708 68.7611 70.9978 68.2527 70.9978C49.352 71.0003 30.4516 71 11.4805 71C11.1552 69.5318 11.3664 68.1211 11.3299 66.7269C11.2912 65.2568 11.3211 63.7842 11.3211 62.3127V53.7052H0.373881C0.225659 53.5455 0.188864 53.5086 0.155278 53.469C0.12275 53.4308 0.0659535 53.3896 0.0656923 53.3497C0.0411623 47.8336 0.0209029 42.3175 0.000905108 36.8011C-0.000966433 36.2829 0.000644755 35.7643 0.000644755 35.0855C1.60292 34.9678 3.11561 35.0401 4.62351 35.0269C6.1522 35.0137 7.68116 35.0242 9.20985 35.0242H18.2738V18.7767C17.1159 18.48 15.9021 18.6716 14.7045 18.6392C13.4821 18.6062 12.2584 18.632 11.0355 18.632H0.078478Z" fill="#EA5501"/>
</svg>
