<svg width="55" height="55" viewBox="0 0 55 55" fill="none" xmlns="http://www.w3.org/2000/svg">
<path d="M37.5552 45.36H32.3212V40.609L40.0732 35.764L32.3212 30.92V25.3H37.5552V18.318H32.3212V12.212H39.2992V0H23.5992V12.212H30.5772V18.318H25.3432V20.935H17.4922V22.68H25.3432V25.3H30.5772V30.92L22.8252 35.765L30.5772 40.61V45.36H25.3432C24.6494 45.3608 23.9842 45.6368 23.4936 46.1274C23.003 46.618 22.727 47.2832 22.7262 47.977V51.466C22.727 52.1598 23.003 52.825 23.4936 53.3156C23.9842 53.8062 24.6494 54.0822 25.3432 54.083H37.5552C38.249 54.0822 38.9142 53.8062 39.4048 53.3156C39.8954 52.825 40.1714 52.1598 40.1722 51.466V47.977C40.1714 47.2832 39.8954 46.618 39.4048 46.1274C38.9142 45.6368 38.249 45.3608 37.5552 45.36ZM25.3432 1.745H37.5552V10.468H25.3432V1.745ZM27.0922 20.063H35.8152V23.552H27.0922V20.063ZM31.4542 32.431L36.7862 35.764L31.4492 39.1L26.1172 35.767L31.4542 32.431ZM38.4322 51.466C38.4317 51.6971 38.3396 51.9186 38.1762 52.082C38.0128 52.2454 37.7913 52.3375 37.5602 52.338H25.3432C25.1121 52.3375 24.8906 52.2454 24.7272 52.082C24.5638 51.9186 24.4717 51.6971 24.4712 51.466V47.977C24.4717 47.7459 24.5638 47.5244 24.7272 47.361C24.8906 47.1976 25.1121 47.1055 25.3432 47.105H37.5552C37.7863 47.1055 38.0078 47.1976 38.1712 47.361C38.3346 47.5244 38.4267 47.7459 38.4272 47.977L38.4322 51.466Z" fill="#EA5501"/>
<path d="M16.0007 46.8491L18.0007 48.8491H10.3507C10.2205 48.4842 10.0109 48.1528 9.73693 47.8789C9.46298 47.6049 9.13157 47.3953 8.76666 47.2651V28.7861H7.02266V47.2651C6.60615 47.4115 6.23355 47.6611 5.93971 47.9906C5.64586 48.3201 5.44036 48.7187 5.34241 49.1492C5.24447 49.5796 5.25727 50.0279 5.37963 50.4521C5.50199 50.8763 5.72991 51.2625 6.04209 51.5747C6.35426 51.8869 6.74049 52.1148 7.16468 52.2372C7.58886 52.3595 8.03715 52.3723 8.46763 52.2744C8.8981 52.1764 9.29672 51.9709 9.6262 51.6771C9.95569 51.3832 10.2053 51.0106 10.3517 50.5941H18.0017L16.0017 52.5941L17.2347 53.8271L21.3407 49.7211L17.2347 45.6151L16.0007 46.8491ZM7.89466 50.5941C7.72219 50.5941 7.5536 50.543 7.4102 50.4472C7.2668 50.3514 7.15503 50.2152 7.08903 50.0558C7.02303 49.8965 7.00576 49.7212 7.03941 49.552C7.07306 49.3829 7.15611 49.2275 7.27806 49.1055C7.40001 48.9836 7.55539 48.9005 7.72454 48.8669C7.89369 48.8332 8.06902 48.8505 8.22836 48.9165C8.38769 48.9825 8.52388 49.0943 8.6197 49.2377C8.71551 49.3811 8.76666 49.5497 8.76666 49.7221C8.76613 49.9532 8.67409 50.1747 8.51067 50.3381C8.34725 50.5016 8.12576 50.5936 7.89466 50.5941Z" fill="#EA5501"/>
<path d="M53.2566 33.3081V8.5621C53.6731 8.41573 54.0457 8.16613 54.3395 7.83665C54.6334 7.50716 54.8389 7.10855 54.9368 6.67808C55.0348 6.2476 55.022 5.79931 54.8996 5.37513C54.7773 4.95094 54.5493 4.56471 54.2372 4.25254C53.925 3.94036 53.5388 3.71244 53.1146 3.59008C52.6904 3.46772 52.2421 3.45492 51.8116 3.55286C51.3811 3.65081 50.9825 3.85631 50.653 4.15016C50.3236 4.444 50.074 4.8166 49.9276 5.2331H41.0446V6.97811H49.9286C50.0587 7.34301 50.2684 7.67443 50.5423 7.94838C50.8163 8.22233 51.1477 8.43196 51.5126 8.5621V33.3091C51.1481 33.4388 50.8169 33.6478 50.543 33.9211C50.2691 34.1943 50.0592 34.5249 49.9286 34.8891H44.0226L46.0226 32.8891L44.7896 31.6591L40.6836 35.7641L44.7896 39.8701L46.0226 38.6371L44.0226 36.6371H49.9286C50.075 37.0536 50.3246 37.4262 50.654 37.7201C50.9835 38.0139 51.3821 38.2194 51.8126 38.3173C52.2431 38.4153 52.6914 38.4025 53.1156 38.2801C53.5398 38.1578 53.926 37.9298 54.2382 37.6177C54.5503 37.3055 54.7783 36.9193 54.9006 36.4951C55.023 36.0709 55.0358 35.6226 54.9378 35.1921C54.8399 34.7617 54.6344 34.363 54.3405 34.0336C54.0467 33.7041 53.6741 33.4545 53.2576 33.3081H53.2566ZM52.3846 5.2341C52.5571 5.2341 52.7257 5.28525 52.8691 5.38106C53.0125 5.47688 53.1242 5.61307 53.1902 5.7724C53.2562 5.93174 53.2735 6.10707 53.2398 6.27622C53.2062 6.44538 53.1231 6.60075 53.0012 6.7227C52.8792 6.84465 52.7239 6.9277 52.5547 6.96135C52.3856 6.995 52.2102 6.97773 52.0509 6.91173C51.8916 6.84573 51.7554 6.73396 51.6596 6.59056C51.5637 6.44716 51.5126 6.27857 51.5126 6.10611C51.5131 5.875 51.6052 5.65351 51.7686 5.49009C51.932 5.32667 52.1535 5.23463 52.3846 5.2341ZM52.3846 36.6341C52.2121 36.6341 52.0435 36.583 51.9001 36.4871C51.7567 36.3913 51.645 36.2551 51.579 36.0958C51.513 35.9365 51.4957 35.7611 51.5294 35.592C51.563 35.4228 51.646 35.2675 51.768 35.1455C51.8899 35.0236 52.0453 34.9405 52.2145 34.9069C52.3836 34.8732 52.559 34.8905 52.7183 34.9565C52.8776 35.0225 53.0138 35.1342 53.1096 35.2776C53.2055 35.421 53.2566 35.5896 53.2566 35.7621C53.2569 35.9937 53.1652 36.216 53.0017 36.3801C52.8382 36.5441 52.6162 36.6366 52.3846 36.6371V36.6341Z" fill="#EA5501"/>
<path d="M15.5041 21.803L7.89606 16.374L0.289062 21.803L7.89606 27.237L15.5041 21.803ZM7.89606 18.518L12.4961 21.807L7.89606 25.096L3.29106 21.803L7.89606 18.518Z" fill="#EA5501"/>
<path d="M27.0859 3.48901H35.8089V5.23401H27.0859V3.48901Z" fill="#EA5501"/>
<path d="M27.0859 6.97803H32.3199V8.72303H27.0859V6.97803Z" fill="#EA5501"/>
<path d="M34.0664 6.97803H35.8114V8.72303H34.0664V6.97803Z" fill="#EA5501"/>
<path d="M48.8945 48.8491H50.6395V50.5941H48.8945V48.8491Z" fill="#EA5501"/>
<path d="M45.4062 48.8491H47.1512V50.5941H45.4062V48.8491Z" fill="#EA5501"/>
<path d="M41.918 48.8491H43.663V50.5941H41.918V48.8491Z" fill="#EA5501"/>
<path d="M16.6172 6.97803H18.3622V8.72303H16.6172V6.97803Z" fill="#EA5501"/>
<path d="M20.1094 6.97803H21.8544V8.72303H20.1094V6.97803Z" fill="#EA5501"/>
<path d="M13.1289 6.97803H14.8739V8.72303H13.1289V6.97803Z" fill="#EA5501"/>
</svg>
