<svg width="55" height="55" viewBox="0 0 55 55" fill="none" xmlns="http://www.w3.org/2000/svg">
<path d="M39.9792 39.4241H38.3922V49.0551C38.3915 50.3341 38.8803 51.5649 39.7582 52.4951H8.49219V54.0831H43.4182C44.7509 54.0815 46.0287 53.5513 46.9711 52.6089C47.9135 51.6665 48.4436 50.3888 48.4452 49.0561V41.9121H39.9782L39.9792 39.4241ZM46.8582 43.4991V49.0551C46.866 49.5117 46.7828 49.9653 46.6134 50.3894C46.444 50.8135 46.1919 51.1997 45.8718 51.5253C45.5516 51.851 45.1698 52.1097 44.7486 52.2862C44.3275 52.4628 43.8754 52.5537 43.4187 52.5537C42.962 52.5537 42.5099 52.4628 42.0887 52.2862C41.6675 52.1097 41.2858 51.851 40.9656 51.5253C40.6454 51.1997 40.3933 50.8135 40.224 50.3894C40.0546 49.9653 39.9714 49.5117 39.9792 49.0551V43.4991H46.8582Z" fill="#EA5501"/>
<path d="M1.97006 49.8501H29.6591V48.2631H1.87706V22.3701H0.289062V49.0561C0.29065 50.3889 0.820789 51.6666 1.76319 52.609C2.70559 53.5514 3.98331 54.0815 5.31606 54.0831H6.90406V52.4951H5.31606C4.54233 52.494 3.7915 52.2325 3.18451 51.7527C2.57753 51.2729 2.14974 50.6027 1.97006 49.8501Z" fill="#EA5501"/>
<path d="M1.87706 1.588H16.0211V0H0.289062V20.782H1.87706V1.588Z" fill="#EA5501"/>
<path d="M38.3914 13.918H39.9794V0H17.6094V1.588H38.3914V13.918Z" fill="#EA5501"/>
<path d="M23.8398 8.46704H29.1319V10.055H23.8398V8.46704Z" fill="#EA5501"/>
<path d="M5.84375 8.46704H11.1357V10.055H5.84375V8.46704Z" fill="#EA5501"/>
<path d="M30.7188 8.46704H34.4188V10.055H30.7188V8.46704Z" fill="#EA5501"/>
<path d="M12.7266 8.46704H22.2516V10.055H12.7266V8.46704Z" fill="#EA5501"/>
<path d="M5.84375 13.759H9.54375V15.347H5.84375V13.759Z" fill="#EA5501"/>
<path d="M18.0156 13.759H27.5406V15.347H18.0156V13.759Z" fill="#EA5501"/>
<path d="M29.1289 13.759H34.4209V15.347H29.1289V13.759Z" fill="#EA5501"/>
<path d="M11.1367 13.759H16.4287V15.347H11.1367V13.759Z" fill="#EA5501"/>
<path d="M5.84375 19.051H12.1937V20.639H5.84375V19.051Z" fill="#EA5501"/>
<path d="M13.7812 19.051H17.4812V20.639H13.7812V19.051Z" fill="#EA5501"/>
<path d="M5.84375 24.343H9.54375V25.931H5.84375V24.343Z" fill="#EA5501"/>
<path d="M11.1367 24.343H17.4867V25.931H11.1367V24.343Z" fill="#EA5501"/>
<path d="M5.84375 29.635H12.1937V31.223H5.84375V29.635Z" fill="#EA5501"/>
<path d="M13.7812 29.635H17.4812V31.223H13.7812V29.635Z" fill="#EA5501"/>
<path d="M11.1367 34.926H17.4867V36.514H11.1367V34.926Z" fill="#EA5501"/>
<path d="M5.84375 34.926H9.54375V36.514H5.84375V34.926Z" fill="#EA5501"/>
<path d="M5.84375 40.218H12.8288V41.806H5.84375V40.218Z" fill="#EA5501"/>
<path d="M48.3789 33.4141H54.4259V35.0021H48.3789V33.4141Z" fill="#EA5501"/>
<path d="M43.8336 22.1969L42.5116 21.5869L46.8056 17.2969C47.0268 17.0758 47.2023 16.8133 47.322 16.5243C47.4417 16.2354 47.5033 15.9257 47.5033 15.6129C47.5033 15.3001 47.4417 14.9904 47.322 14.7015C47.2023 14.4125 47.0268 14.15 46.8056 13.9289L46.0576 13.1809C45.6106 12.7349 45.005 12.4844 44.3736 12.4844C43.7421 12.4844 43.1365 12.7349 42.6896 13.1809L36.9986 18.8719L27.7266 18.5939L21.3456 21.6099L20.2126 29.6509L20.8606 35.0089L20.4096 35.4599L18.3516 41.6339L24.5256 39.5759L25.3866 38.7149C26.0119 39.3172 26.8464 39.6534 27.7146 39.6529C27.7636 39.6529 27.8146 39.6529 27.8626 39.6529L32.6756 39.4469L38.1466 37.9149L43.3406 35.0059H46.7926V33.4179H42.9256L37.5356 36.4359L32.4236 37.8669L27.7936 38.0669C27.5595 38.0756 27.3261 38.0382 27.1066 37.9567C26.887 37.8752 26.6857 37.7513 26.514 37.592C26.3424 37.4327 26.2038 37.2411 26.1062 37.0283C26.0085 36.8154 25.9538 36.5854 25.9451 36.3514C25.9363 36.1174 25.9738 35.8839 26.0553 35.6644C26.1368 35.4448 26.2607 35.2435 26.42 35.0719C26.5793 34.9002 26.7708 34.7616 26.9837 34.664C27.1965 34.5664 27.4266 34.5116 27.6606 34.5029L31.9606 34.3669L34.9396 33.2949L37.8396 29.5949L36.1716 27.9269L41.3156 22.7829L43.4856 23.7829H54.4246V22.1969H43.8346H43.8336ZM43.8056 14.2969C43.9552 14.1494 44.1569 14.0667 44.3671 14.0667C44.5772 14.0667 44.7789 14.1494 44.9286 14.2969L45.6766 15.0449C45.7503 15.1186 45.8088 15.2062 45.8487 15.3025C45.8886 15.3988 45.9092 15.5021 45.9092 15.6064C45.9092 15.7107 45.8886 15.8139 45.8487 15.9103C45.8088 16.0066 45.7503 16.0942 45.6766 16.1679L44.3666 17.4779L42.4956 15.6069L43.8056 14.2969ZM23.6616 38.1829L20.8556 39.1189L21.7046 36.5709H21.7276H21.8746C22.7644 36.5713 23.6344 36.3079 24.3746 35.8139C24.3534 35.967 24.3427 36.1213 24.3426 36.2759C24.3424 36.6347 24.3998 36.9912 24.5126 37.3319L23.6616 38.1829ZM24.9816 29.9699L24.8166 32.2489C24.7673 32.8929 24.5091 33.5033 24.0811 33.987C23.6531 34.4708 23.0788 34.8015 22.4456 34.9289L21.8086 29.6609L22.7926 22.6729L28.0546 20.1859L35.4546 20.4079L31.6646 24.1979L25.9506 25.1499L24.9816 29.9699ZM29.7286 26.1299L26.7786 29.0799L27.2876 26.5369L29.7286 26.1299ZM33.9646 31.9479L31.6516 32.7809L31.2986 32.7919L35.0446 29.0459L35.7166 29.7179L33.9646 31.9479ZM28.9796 32.8649L27.6026 32.9089C27.1319 32.9236 26.6696 33.037 26.2456 33.2419C26.3251 32.9553 26.376 32.6615 26.3976 32.3649L26.4496 31.6529L41.3716 16.7309L43.2426 18.6019L28.9796 32.8649Z" fill="#EA5501"/>
<path d="M31.3516 48.262H32.9396V49.85H31.3516V48.262Z" fill="#EA5501"/>
<path d="M34.5273 48.262H36.1154V49.85H34.5273V48.262Z" fill="#EA5501"/>
<path d="M14.418 40.218H16.006V41.806H14.418V40.218Z" fill="#EA5501"/>
</svg>
