<svg width="132" height="109" viewBox="0 0 132 109" fill="none" xmlns="http://www.w3.org/2000/svg">
<path d="M39.4671 103.014L39.492 103.033L39.5191 103.048C40.6951 103.72 41.0607 105.254 40.3612 106.479L40.3543 106.491L40.3481 106.503C39.6603 107.879 37.9456 108.404 36.5535 107.547C36.1356 107.235 35.67 106.924 35.2184 106.623L35.212 106.619C34.7467 106.309 34.2961 106.008 33.898 105.71L33.6508 105.524L33.3744 105.663C31.8191 106.44 29.8722 106.831 27.7239 106.44L27.7166 106.439C24.269 105.865 20.2321 103.804 17.0637 100.421C19.1113 99.0052 21.8479 98.8508 25.0522 99.6048L26.7632 100.007L25.5203 98.7645C23.8909 97.1351 22.4651 95.5057 21.0374 93.6701L20.8431 93.4203L20.5342 93.489C18.7686 93.8814 16.8259 93.8802 14.6805 92.9049L14.6739 92.9021C11.6365 91.5732 8.55143 88.5729 6.52703 84.583C9.08865 83.7182 12.0352 84.4536 15.3114 85.8026L16.6329 86.3467L15.9388 85.0974C14.9238 83.2704 13.9044 81.0287 13.087 78.9854L12.9457 78.6321L12.5676 78.6741C10.8621 78.8636 8.73976 78.295 6.99143 76.741L6.97154 76.7233L6.94987 76.7078C4.31072 74.8227 2.16651 71.2617 1.28819 66.8701C4.16332 66.7145 6.91248 68.2199 9.37744 70.8744L10.5419 72.1285L10.2358 70.4448C10.1026 69.7123 9.95136 68.993 9.80035 68.2748C9.47326 66.7192 9.14725 65.1686 9.00828 63.501L8.97703 63.126L8.60806 63.0522C6.67551 62.6657 4.73169 61.5033 3.36738 59.5542L3.36462 59.5504C1.46195 56.8866 0.270018 52.9061 0.537287 48.4945C3.36621 49.0605 5.73825 51.3027 7.44587 54.718L8.39309 54.4944C8.39309 52.0201 8.3942 49.5937 8.79756 47.1736L8.85827 46.8093L8.52797 46.6441C6.59948 45.6799 5.23561 44.1391 4.24532 41.7664C3.1112 38.7347 3.05401 34.5643 4.47439 30.3189C7.06341 31.7741 8.6981 34.7471 9.45919 38.5526L10.4345 38.5758C11.0432 36.141 11.8559 33.9041 12.8787 31.4495L13.017 31.1176L12.7464 30.8809C11.2108 29.5372 10.2335 27.6079 10.0367 25.0496L10.036 25.0396L10.0348 25.0296C9.65629 21.8124 10.7343 17.6236 13.32 13.9075C15.3261 15.8772 16.2057 19.209 15.8265 23.1898L16.753 23.4945C17.9831 21.4444 19.409 19.2049 21.0331 17.1748L21.2615 16.8893L21.0587 16.5851C19.9102 14.8623 19.5119 12.7444 20.1017 10.1887L20.1046 10.176L20.1069 10.1632C20.6738 6.95103 23.0774 3.1392 26.4507 0.715761C27.8888 3.33539 27.6726 6.68094 26.142 10.5075L26.9474 11.0588C30.0072 8.20291 33.4731 5.55294 37.3444 3.31166L37.3444 3.31171L37.3511 3.30769C38.1255 2.84306 39.2644 3.14997 39.7497 3.95875C40.2013 4.71142 39.9299 5.64871 39.1053 6.14765C35.3609 8.22896 32.2459 10.7229 29.3506 13.4114L29.8181 14.2614C33.387 13.3222 36.6734 14.1829 38.4528 16.3559C35.7574 18.3732 32.8874 19.4964 30.0084 20.0727C27.7919 20.4752 25.6479 20.4591 23.9304 19.6957L23.5728 19.5368L23.3326 19.8457C21.8783 21.7155 20.6332 23.5836 19.3914 25.6533L18.4205 27.2715L20.0653 26.3463C23.0625 24.6604 26.3279 24.6138 28.5882 26.2148C26.6372 28.8253 24.34 30.6919 21.8758 31.8299C20.0574 32.6377 18.0969 33.2145 16.1684 33.0217L15.7941 32.9842L15.6544 33.3335C14.9747 35.0328 14.4328 36.8728 13.9243 38.5996C13.8093 38.99 13.6961 39.3745 13.5833 39.7503L13.058 41.5014L14.4014 40.2614C16.8173 38.0313 19.8813 37.2472 22.4525 38.1205C21.2503 40.9375 19.5232 43.358 17.4553 45.0526C15.8429 46.2607 14.0607 47.2421 12.3087 47.6315L11.9556 47.7099L11.9196 48.0698C11.7141 50.1254 11.5059 52.4101 11.5059 54.4944V56.1968L12.4265 54.7647C14.0954 52.1687 16.7855 50.6667 19.4891 50.8315C19.2057 53.8394 18.0493 56.6606 16.5252 58.9467L16.5211 58.9528L16.5172 58.9591C15.5267 60.5438 14.1508 61.911 12.6048 62.684L12.2966 62.8381L12.3309 63.181C12.5405 65.2766 12.9597 67.1595 13.5833 69.2384L13.9948 70.6098L14.5265 69.2804C15.6332 66.5136 17.7611 64.653 20.2368 64.1225C20.7308 67.15 20.5 69.982 19.5549 72.6281L19.5548 72.628L19.5514 72.6381C18.9583 74.4177 17.9705 75.9952 16.7933 77.1724L16.5385 77.4272L16.6996 77.7495C16.8964 78.1431 17.0952 78.553 17.2985 78.9721C17.9304 80.275 18.6055 81.6669 19.3962 82.9319L20.1322 84.1096L20.3158 82.733C20.6873 79.9465 22.0936 77.59 24.2971 76.5339C25.5606 79.4013 26.0915 82.2552 25.9017 85.1013L25.9006 85.1179V85.1346C25.9006 86.919 25.5028 88.6797 24.7326 90.0275L24.5578 90.3334L24.7871 90.601C26.0335 92.055 27.4841 93.5057 28.918 94.9396L28.926 94.9475L29.9704 95.9919L29.7752 94.5279C29.409 91.7819 30.2434 89.2554 31.895 87.6977C33.95 90.2127 35.4357 92.894 36.1967 95.7408C36.6003 97.5602 36.793 99.3443 36.5977 100.907L36.5538 101.258L36.8702 101.416C37.6691 101.815 38.6712 102.417 39.4671 103.014Z" stroke="white"/>
<path d="M121.129 71.2254L120.633 73.0418L121.965 71.7105C124.395 69.2804 127.093 67.6203 129.431 67.3667C128.531 71.6732 126.233 75.0457 123.764 77.1377C122.008 78.5007 120.064 79.0825 118.115 79.0825H117.777L117.651 79.3968C116.838 81.4305 115.819 83.468 114.789 85.5281L114.021 87.0638L115.494 86.1804C118.338 84.4741 121.257 83.7223 123.809 84.5864C121.793 88.7381 118.714 91.5585 115.667 92.8959C113.477 93.69 111.524 93.874 109.793 93.4892L109.484 93.4205L109.289 93.6703C107.862 95.5059 106.436 97.1353 104.807 98.7647L103.564 100.007L105.275 99.6049C108.479 98.851 111.216 99.0054 113.263 100.421C110.095 103.804 106.058 105.865 102.61 106.439L102.603 106.441C100.455 106.831 98.5077 106.44 96.9525 105.663L96.6761 105.525L96.4289 105.71C95.6053 106.328 94.8017 106.93 93.7983 107.532L93.7983 107.532L93.7906 107.537C92.3998 108.406 90.6803 107.888 89.9853 106.516C89.4616 105.277 89.8335 103.744 90.9853 103.065C92.059 102.629 92.9166 101.986 93.7187 101.384L93.7387 101.369L93.9708 101.195L93.9348 100.907C93.7395 99.3445 93.9322 97.5605 94.3358 95.7411C95.0986 92.8874 96.5896 90.2002 98.6522 87.6799C100.445 89.2208 101.129 91.7399 100.757 94.5281L100.562 95.9921L101.607 94.9477L101.614 94.9399C103.048 93.506 104.499 92.0552 105.745 90.6011L105.975 90.3336L105.8 90.0277C105.03 88.6799 104.632 86.9192 104.632 85.1348V85.1181L104.631 85.1015C104.441 82.2554 104.972 79.4015 106.235 76.534C108.439 77.5902 109.845 79.9467 110.217 82.7332L110.4 84.1098L111.136 82.9321C112.181 81.2606 113.014 79.5929 113.843 77.7292L113.994 77.3889L113.711 77.1465C112.372 75.9989 111.587 74.4546 110.983 72.6438C110.218 70.1551 109.821 67.1287 110.303 64.0877C112.905 64.4535 114.877 66.4589 116.006 69.2806L116.631 70.8423L116.961 69.193C117.166 68.1676 117.371 67.1933 117.576 66.2162L117.577 66.2149C117.782 65.2388 117.988 64.26 118.194 63.2294L118.269 62.855L117.928 62.6842C116.382 61.9112 115.006 60.544 114.015 58.9592L114.011 58.953L114.007 58.9469C112.498 56.6832 111.515 53.8663 111.072 50.83C113.766 50.6775 116.443 52.178 118.106 54.7649L119.027 56.197V54.4945C119.027 52.4103 118.818 50.1256 118.613 48.07L118.577 47.7101L118.224 47.6316C116.443 47.236 114.672 46.4472 113.098 45.0701L113.092 45.0647L113.085 45.0594C111.014 43.3646 109.284 40.9414 108.08 38.1206C110.651 37.2473 113.715 38.0315 116.131 40.2616L117.411 41.4429L116.953 39.7626C116.334 37.4942 115.711 35.4164 114.878 33.3337L114.737 32.9804L114.359 33.0224C112.621 33.2155 110.661 32.8318 108.674 31.8383L108.667 31.8348L108.66 31.8315C106.214 30.7028 103.919 28.6648 101.958 26.2055C104.218 24.6142 107.476 24.664 110.467 26.3465L112.008 27.2131L111.149 25.6679C110.104 23.7863 108.648 21.7076 107.2 19.8458L106.96 19.537L106.602 19.6959C104.885 20.4593 102.741 20.4754 100.524 20.0729C97.6451 19.4966 94.7751 18.3734 92.0797 16.3561C93.8591 14.1831 97.1455 13.3224 100.714 14.2615L101.182 13.4116C98.2774 10.7146 94.9589 8.22561 91.4321 6.15081C90.6036 5.65263 90.3303 4.71311 90.7828 3.95893C91.2681 3.15015 92.407 2.84324 93.1814 3.30788L93.1814 3.30793L93.1881 3.31184C97.0594 5.55312 100.525 8.20309 103.585 11.0589L104.39 10.5077C102.866 6.69672 102.652 3.19961 104.048 0.745387C107.849 3.92119 110.269 7.76687 110.837 10.9859L110.839 10.9988L110.842 11.0115C111.435 13.5821 111.024 15.8879 109.901 17.3851L109.669 17.695L109.911 17.9975C111.189 19.5957 112.341 21.1914 113.572 22.8969C113.916 23.3733 114.266 23.8582 114.626 24.354L115.712 25.8466L115.528 24.0102C115.145 20.1806 115.867 16.6871 118.023 14.7133C120.618 18.4336 121.699 22.6303 121.32 25.8523L121.319 25.8623L121.318 25.8724C121.122 28.4306 120.144 30.3599 118.609 31.7036L118.329 31.9484L118.483 32.2868C119.496 34.5168 120.31 36.955 120.921 39.3985L121.896 39.3753C122.659 35.5607 124.3 32.5826 126.899 31.1312C128.484 35.3614 128.252 39.5377 127.11 42.5891C126.116 44.9702 124.548 46.7013 122.848 47.4572L122.523 47.6015L122.552 47.9556C122.758 50.4268 122.962 52.8737 122.962 55.3171L123.904 55.551C125.62 52.309 127.996 49.9039 130.818 49.3191C131.084 53.7238 129.896 57.6987 127.998 60.362C126.41 62.3442 124.658 63.4928 122.747 63.8749L122.381 63.9482L122.347 64.32C122.144 66.5571 121.737 68.9955 121.129 71.2254Z" stroke="white"/>
<path fill-rule="evenodd" clip-rule="evenodd" d="M69.6557 82.6045C69.8208 84.6669 69.9792 86.6467 69.9994 87.9683C71.6052 88.6464 75.4105 90.4341 77.5285 92.4496C73.6657 92.8382 55.7268 92.3957 53.6557 92.048C56.3092 90.4519 59.3369 88.9969 62.2582 87.9991C62.2104 85.6167 62.3561 83.3712 62.5107 80.9893C62.6328 79.1067 62.7605 77.1389 62.8025 74.9509C62.5103 74.896 62.0277 74.7703 61.5501 74.646C61.1032 74.5296 60.6607 74.4144 60.3827 74.3593C56.9134 73.6729 54.3856 71.7501 52.5591 69.2528C50.0747 70.3456 46.9727 69.0337 44.9314 67.6302C40.6468 64.6845 34.9455 58.7782 37.7426 53.1005C39.412 49.712 44.904 48.6429 48.2722 48.4927C48.4592 46.914 48.8803 45.3783 49.8599 44.3539C51.636 42.4966 54.6905 41.7179 57.1332 41.364C62.5641 40.577 68.1216 40.5046 73.5125 41.7611C73.643 41.7912 73.7811 41.8228 73.9261 41.8559C76.3504 42.4101 80.6925 43.4026 83.3538 45.5139C83.9589 46.0372 84.4438 46.638 84.7537 47.3316C85.0308 47.952 85.1913 49.1469 85.1969 50.7042C85.6328 50.823 86.1056 50.9408 86.6015 51.0643C89.8435 51.8722 94.0712 52.9256 95.4048 56.0929C96.6711 59.1007 95.0655 61.9503 93.3063 64.3211C90.0176 68.7529 83.8321 74.4423 77.7834 71.4211C76.7181 72.4247 75.5183 73.2492 74.1722 73.8277C72.8236 74.4072 71.0907 74.8801 69.2806 75.1125C69.188 76.7605 69.4282 79.7609 69.6557 82.6045ZM42.2935 52.6985C37.5809 54.3477 40.7894 61.2406 43.4735 63.3652C44.2895 64.0111 45.1573 64.5958 46.0401 65.1451C47.0731 65.7878 49.3872 66.6501 50.6442 66.173C50.0404 64.8027 49.5808 63.2846 49.1488 61.7765C48.2537 58.6514 47.8481 55.1858 47.7212 51.9282C45.8914 51.8478 44.0322 52.0899 42.2935 52.6985ZM92.2917 59.6211C90.2824 64.5741 85.5812 69.3357 79.8206 68.7692C82.3466 64.3224 84.8606 58.9847 85.4515 53.8695C85.6054 53.9025 85.7607 53.933 85.9163 53.9635C86.2865 54.0361 86.6586 54.1091 87.017 54.2182C89.3295 54.922 93.6426 56.2914 92.2917 59.6211Z" stroke="white" stroke-width="1.5" stroke-miterlimit="1.5" stroke-linecap="round" stroke-linejoin="round"/>
<path d="M73.906 67.0252C68.3244 65.9761 62.7534 65.7944 58.2573 66.4073C56.3885 66.6621 54.4251 66.8071 52.6738 67.5813" stroke="white" stroke-width="1.5" stroke-miterlimit="1.5" stroke-linecap="round" stroke-linejoin="round"/>
<path d="M79.3137 63.6281C77.7159 63.1362 76.1415 62.6369 74.4978 62.314C68.0005 61.0378 61.5761 60.9116 55.0703 61.9374" stroke="white" stroke-width="1.5" stroke-miterlimit="1.5" stroke-linecap="round" stroke-linejoin="round"/>
<path d="M46.5791 31.0002C46.469 31.9501 46.3354 32.936 46.3164 33.8905" stroke="white" stroke-miterlimit="1.5" stroke-linecap="round" stroke-linejoin="round"/>
<path d="M43.8008 34.5167C44.3417 34.4795 44.8849 34.4875 45.4265 34.5057" stroke="white" stroke-miterlimit="1.5" stroke-linecap="round" stroke-linejoin="round"/>
<path d="M47.1914 34.4689C47.8103 34.5741 48.4084 34.5457 49.0311 34.5557" stroke="white" stroke-miterlimit="1.5" stroke-linecap="round" stroke-linejoin="round"/>
<path d="M46.2409 37.5256C46.1322 36.92 46.0227 36.0592 46.1807 35.4455" stroke="white" stroke-miterlimit="1.5" stroke-linecap="round" stroke-linejoin="round"/>
<path d="M81.9525 79.0002C81.8449 79.5769 81.7958 80.1625 81.7422 80.7463" stroke="white" stroke-miterlimit="1.5" stroke-linecap="round" stroke-linejoin="round"/>
<path d="M79.8867 81.4935C80.1733 81.4621 80.4584 81.4309 80.7459 81.4103" stroke="white" stroke-miterlimit="1.5" stroke-linecap="round" stroke-linejoin="round"/>
<path d="M81.6367 82.217C81.6034 82.8444 81.6212 83.4709 81.6016 84.0982" stroke="white" stroke-miterlimit="1.5" stroke-linecap="round" stroke-linejoin="round"/>
<path d="M82.3711 81.6557C82.8125 81.6285 83.2564 81.5953 83.6986 81.592" stroke="white" stroke-miterlimit="1.5" stroke-linecap="round" stroke-linejoin="round"/>
<path d="M82.2534 34.0002C82.0064 31.9574 81.9635 30.4 80 29.3356C81.715 28.8699 82.8962 26.6742 83.1754 25.0002C83.4822 26.5975 83.7327 28.463 85 29.6136C83.3936 30.2712 82.4447 32.1345 82.2537 33.7884" stroke="white" stroke-miterlimit="1.5" stroke-linecap="round" stroke-linejoin="round"/>
<path fill-rule="evenodd" clip-rule="evenodd" d="M52.333 81.9841C52.2158 80.911 51.937 79.6452 50.7891 79.277C51.8279 78.855 52.3548 77.7157 52.4855 76.6506C52.5149 77.5562 52.7339 78.7675 53.6779 79.1317C52.6212 79.5592 52.5767 80.9946 52.333 81.9841Z" stroke="white" stroke-miterlimit="1.5" stroke-linecap="round" stroke-linejoin="round"/>
</svg>
