<svg width="36" height="36" viewBox="0 0 36 36" fill="none" xmlns="http://www.w3.org/2000/svg">
<path d="M0.857143 21.4286H2.95629C3.33613 23.1264 4.00751 24.7455 4.94057 26.214L3.45686 27.6969C3.29617 27.8576 3.2059 28.0756 3.2059 28.3029C3.2059 28.5301 3.29617 28.7481 3.45686 28.9089L7.09114 32.5431C7.17075 32.6228 7.26528 32.6861 7.36934 32.7292C7.47339 32.7723 7.58493 32.7945 7.69757 32.7945C7.81021 32.7945 7.92175 32.7723 8.02581 32.7292C8.12986 32.6861 8.22439 32.6228 8.304 32.5431L9.78686 31.0603C11.2549 31.9932 12.8738 32.664 14.5714 33.0429V35.1429C14.5714 35.3702 14.6617 35.5882 14.8225 35.749C14.9832 35.9097 15.2012 36 15.4286 36H20.5714C20.7988 36 21.0168 35.9097 21.1775 35.749C21.3383 35.5882 21.4286 35.3702 21.4286 35.1429V33.0429C23.1262 32.664 24.7451 31.9932 26.2131 31.0603L27.696 32.5431C27.7756 32.6228 27.8701 32.6861 27.9742 32.7292C28.0782 32.7723 28.1898 32.7945 28.3024 32.7945C28.4151 32.7945 28.5266 32.7723 28.6307 32.7292C28.7347 32.6861 28.8293 32.6228 28.9089 32.5431L32.5431 28.9089C32.7038 28.7481 32.7941 28.5301 32.7941 28.3029C32.7941 28.0756 32.7038 27.8576 32.5431 27.6969L31.0594 26.214C31.9925 24.7455 32.6639 23.1264 33.0437 21.4286H35.1429C35.3702 21.4286 35.5882 21.3383 35.749 21.1775C35.9097 21.0168 36 20.7988 36 20.5714V15.4286C36 15.2012 35.9097 14.9832 35.749 14.8225C35.5882 14.6617 35.3702 14.5714 35.1429 14.5714H33.0437C32.6639 12.8736 31.9925 11.2545 31.0594 9.786L32.5431 8.30314C32.7038 8.14241 32.7941 7.92443 32.7941 7.69714C32.7941 7.46986 32.7038 7.25188 32.5431 7.09114L28.9089 3.45686C28.8293 3.37716 28.7347 3.31394 28.6307 3.27081C28.5266 3.22767 28.4151 3.20547 28.3024 3.20547C28.1898 3.20547 28.0782 3.22767 27.9742 3.27081C27.8701 3.31394 27.7756 3.37716 27.696 3.45686L26.2131 4.93971C24.7451 4.00683 23.1262 3.33601 21.4286 2.95714V0.857143C21.4286 0.629814 21.3383 0.411797 21.1775 0.251051C21.0168 0.0903058 20.7988 0 20.5714 0H15.4286C15.2012 0 14.9832 0.0903058 14.8225 0.251051C14.6617 0.411797 14.5714 0.629814 14.5714 0.857143V2.95714C12.8738 3.33601 11.2549 4.00683 9.78686 4.93971L8.304 3.45686C8.22439 3.37716 8.12986 3.31394 8.02581 3.27081C7.92175 3.22767 7.81021 3.20547 7.69757 3.20547C7.58493 3.20547 7.47339 3.22767 7.36934 3.27081C7.26528 3.31394 7.17075 3.37716 7.09114 3.45686L3.45686 7.09114C3.29617 7.25188 3.2059 7.46986 3.2059 7.69714C3.2059 7.92443 3.29617 8.14241 3.45686 8.30314L4.94057 9.786C4.00751 11.2545 3.33613 12.8736 2.95629 14.5714H0.857143C0.629814 14.5714 0.411797 14.6617 0.251051 14.8225C0.090306 14.9832 0 15.2012 0 15.4286V20.5714C0 20.7988 0.090306 21.0168 0.251051 21.1775C0.411797 21.3383 0.629814 21.4286 0.857143 21.4286ZM1.71429 16.2857H3.66C3.86175 16.2857 4.05702 16.2145 4.21146 16.0847C4.36589 15.9549 4.46958 15.7747 4.50428 15.576C4.84249 13.6303 5.60769 11.7837 6.74486 10.1691C6.86052 10.0041 6.9143 9.80348 6.89674 9.60267C6.87918 9.40186 6.79141 9.21366 6.64886 9.07114L5.27743 7.69971L7.69714 5.27486L9.06857 6.64629C9.21109 6.78884 9.39929 6.87661 9.6001 6.89417C9.80091 6.91173 10.0015 6.85795 10.1666 6.74229C11.7815 5.60562 13.6279 4.84046 15.5734 4.50171C15.7722 4.46763 15.9526 4.36455 16.0829 4.21059C16.2132 4.05664 16.285 3.86168 16.2857 3.66V1.71429H19.7143V3.66C19.7143 3.86175 19.7855 4.05703 19.9153 4.21146C20.0451 4.36589 20.2253 4.46958 20.424 4.50429C22.3695 4.84304 24.216 5.60819 25.8309 6.74486C25.996 6.86052 26.1965 6.9143 26.3973 6.89674C26.5981 6.87918 26.7863 6.79141 26.9289 6.64886L28.3003 5.27743L30.7251 7.69714L29.3537 9.06857C29.2112 9.21109 29.1234 9.39929 29.1058 9.6001C29.0883 9.80091 29.1421 10.0015 29.2577 10.1666C30.3949 11.7812 31.1601 13.6277 31.4983 15.5734C31.5324 15.7722 31.6355 15.9526 31.7894 16.0829C31.9434 16.2132 32.1383 16.285 32.34 16.2857H34.2857V19.7143H32.34C32.1383 19.7143 31.943 19.7855 31.7885 19.9153C31.6341 20.0451 31.5304 20.2253 31.4957 20.424C31.1575 22.3697 30.3923 24.2163 29.2551 25.8309C29.1395 25.9959 29.0857 26.1965 29.1033 26.3973C29.1208 26.5981 29.2086 26.7863 29.3511 26.9289L30.7226 28.3003L28.3029 30.7251L26.9314 29.3537C26.7889 29.2112 26.6007 29.1234 26.3999 29.1058C26.1991 29.0883 25.9985 29.1421 25.8334 29.2577C24.2185 30.3944 22.3721 31.1595 20.4266 31.4983C20.2278 31.5324 20.0474 31.6355 19.9171 31.7894C19.7868 31.9434 19.715 32.1383 19.7143 32.34V34.2857H16.2857V32.34C16.2857 32.1383 16.2145 31.943 16.0847 31.7885C15.9549 31.6341 15.7747 31.5304 15.576 31.4957C13.6305 31.157 11.784 30.3918 10.1691 29.2551C10.0041 29.1395 9.80348 29.0857 9.60267 29.1033C9.40186 29.1208 9.21366 29.2086 9.07114 29.3511L7.69971 30.7226L5.27486 28.3029L6.64629 26.9314C6.78884 26.7889 6.87661 26.6007 6.89417 26.3999C6.91173 26.1991 6.85795 25.9985 6.74229 25.8334C5.60512 24.2188 4.83992 22.3723 4.50172 20.4266C4.46763 20.2278 4.36455 20.0474 4.21059 19.9171C4.05664 19.7868 3.86168 19.715 3.66 19.7143H1.71429V16.2857Z" fill="white"/>
<path d="M18 30C20.3734 30 22.6935 29.2962 24.6668 27.9776C26.6402 26.6591 28.1783 24.7849 29.0866 22.5922C29.9948 20.3995 30.2324 17.9867 29.7694 15.6589C29.3064 13.3311 28.1635 11.193 26.4853 9.51472C24.8071 7.83649 22.6689 6.6936 20.3411 6.23058C18.0133 5.76756 15.6005 6.0052 13.4078 6.91345C11.2151 7.8217 9.34094 9.35977 8.02236 11.3332C6.70379 13.3066 6 15.6266 6 18C6.0034 21.1816 7.26878 24.2318 9.51848 26.4815C11.7682 28.7312 14.8184 29.9966 18 30ZM17.1429 7.75801V10.2857H18.8571V7.75801C21.2774 7.96317 23.5471 9.01782 25.2647 10.7354C26.9822 12.4529 28.0368 14.7226 28.242 17.1429H25.7143V18.8571H28.242C28.0368 21.2774 26.9822 23.5471 25.2647 25.2647C23.5471 26.9822 21.2774 28.0368 18.8571 28.242V25.7143H17.1429V28.242C14.7226 28.0368 12.4529 26.9822 10.7353 25.2647C9.01781 23.5471 7.96316 21.2774 7.758 18.8571H10.2857V17.1429H7.758C7.96316 14.7226 9.01781 12.4529 10.7353 10.7354C12.4529 9.01782 14.7226 7.96317 17.1429 7.75801Z" fill="white"/>
<path d="M22.5366 23.7477L23.7486 22.5357L18.8569 17.644V14.5703H17.1426V17.9989C17.1426 18.2262 17.233 18.4442 17.3937 18.6049L22.5366 23.7477Z" fill="white"/>
</svg>
