<svg width="33" height="38" viewBox="0 0 33 38" fill="none" xmlns="http://www.w3.org/2000/svg">
<path d="M31.4546 6.47927C26.192 5.02214 21.1433 2.88068 16.4379 0.109735C16.3163 0.0378966 16.1777 0 16.0365 0C15.8953 0 15.7567 0.0378966 15.6352 0.109735C10.9387 2.89887 5.88733 5.04139 0.617756 6.47927C0.450564 6.525 0.303089 6.62453 0.198129 6.76248C0.093168 6.90042 0.0365642 7.06909 0.0370658 7.24242V15.3048C-0.00342809 18.4609 0.600503 21.592 1.8119 24.5067C3.02331 27.4213 4.8167 30.0581 7.08234 32.2557C10.5422 35.6462 14.5751 37.5215 16.0362 37.5215C17.4973 37.5215 21.5302 35.6483 24.99 32.2557C27.2553 30.058 29.0483 27.4211 30.2593 24.5064C31.4704 21.5918 32.074 18.4607 32.0332 15.3048V7.24034C32.0334 7.06764 31.9769 6.89965 31.8723 6.76216C31.7678 6.62468 31.6211 6.5253 31.4546 6.47927ZM30.457 15.3048C30.4957 18.2506 29.9329 21.1734 28.8029 23.8942C27.673 26.615 25.9997 29.0766 23.8855 31.1284C20.486 34.4626 16.8451 35.9425 16.0362 35.9425C15.2272 35.9425 11.5891 34.4619 8.18683 31.1284C6.07263 29.0766 4.39937 26.615 3.26943 23.8942C2.1395 21.1734 1.57668 18.2506 1.6154 15.3048V7.83976C6.66217 6.41113 11.5078 4.3495 16.0369 1.70403C20.5746 4.33111 25.4175 6.39174 30.457 7.83976V15.3048Z" fill="#EA5501"/>
<path d="M9.04093 7.75096C8.96409 7.55621 8.81304 7.39996 8.62101 7.31656C8.42898 7.23317 8.21169 7.22946 8.01692 7.30625C6.60717 7.86127 5.15996 8.37327 3.71552 8.82631C3.55488 8.87627 3.4144 8.97625 3.31456 9.11166C3.21472 9.24706 3.16075 9.41082 3.1605 9.57905V12.6268C3.15737 12.7324 3.17547 12.8376 3.21372 12.936C3.25197 13.0345 3.3096 13.1243 3.38319 13.2001C3.45678 13.2759 3.54484 13.3362 3.64214 13.3774C3.73945 13.4185 3.84402 13.4397 3.94967 13.4397C4.05532 13.4397 4.1599 13.4185 4.2572 13.3774C4.35451 13.3362 4.44256 13.2759 4.51615 13.2001C4.58975 13.1243 4.64737 13.0345 4.68562 12.936C4.72387 12.8376 4.74197 12.7324 4.73884 12.6268V10.1556C6.03412 9.73931 7.3287 9.2724 8.59345 8.77427C8.6901 8.73657 8.77836 8.68016 8.85318 8.60829C8.928 8.53643 8.98791 8.45051 9.02948 8.35545C9.07105 8.26039 9.09345 8.15807 9.09542 8.05434C9.09738 7.95061 9.07887 7.84752 9.04093 7.75096Z" fill="#EA5501"/>
<path d="M10.5395 7.90092C10.6486 7.89991 10.7563 7.87628 10.8558 7.83154L10.8704 7.8253C10.9708 7.78731 11.0624 7.72925 11.1396 7.65467C11.2168 7.58009 11.278 7.49054 11.3194 7.39152C11.3608 7.29249 11.3816 7.18605 11.3805 7.07872C11.3794 6.97139 11.3564 6.86541 11.3129 6.76726C11.2695 6.6691 11.2065 6.58085 11.1277 6.50787C11.049 6.4349 10.9562 6.37875 10.8551 6.34284C10.7539 6.30694 10.6465 6.29204 10.5394 6.29905C10.4323 6.30607 10.3277 6.33485 10.2321 6.38364L10.2196 6.38919C10.0537 6.46207 9.91794 6.58986 9.83515 6.75108C9.75237 6.91229 9.72762 7.0971 9.76507 7.27442C9.80252 7.45173 9.89989 7.61074 10.0408 7.72471C10.1817 7.83869 10.3575 7.90066 10.5388 7.90023L10.5395 7.90092Z" fill="#EA5501"/>
<path d="M25.4393 25.4499C25.2641 25.3354 25.0505 25.2951 24.8456 25.3381C24.6407 25.381 24.4612 25.5036 24.3467 25.6788C23.6818 26.6927 22.9224 27.6414 22.0787 28.5122C21.3756 29.2387 20.6189 29.9112 19.8149 30.5241C19.7296 30.5859 19.6574 30.6641 19.6028 30.7542C19.5481 30.8443 19.5121 30.9444 19.4967 31.0486C19.4814 31.1528 19.487 31.2591 19.5133 31.3611C19.5397 31.4631 19.5862 31.5588 19.6501 31.6426C19.714 31.7264 19.794 31.7965 19.8854 31.8488C19.9768 31.9012 20.0778 31.9347 20.1824 31.9475C20.287 31.9602 20.3931 31.9519 20.4944 31.9229C20.5957 31.894 20.6902 31.8452 20.7723 31.7792C21.6394 31.1173 22.4555 30.3912 23.2137 29.607C24.1272 28.6644 24.9493 27.6375 25.669 26.5398C25.7826 26.3647 25.8222 26.1517 25.7791 25.9474C25.7361 25.7432 25.6139 25.5643 25.4393 25.4499Z" fill="#EA5501"/>
<path d="M17.9865 31.7646L17.9414 31.791C17.8488 31.8414 17.7672 31.9098 17.7015 31.9923C17.6358 32.0747 17.5872 32.1695 17.5587 32.271C17.5302 32.3725 17.5223 32.4787 17.5355 32.5833C17.5487 32.6879 17.5827 32.7888 17.6356 32.88C17.6884 32.9713 17.7589 33.051 17.8431 33.1145C17.9272 33.1781 18.0233 33.2241 18.1255 33.2499C18.2277 33.2757 18.3341 33.2808 18.4383 33.2649C18.5425 33.2489 18.6425 33.2122 18.7323 33.157L18.7844 33.1265C18.877 33.0758 18.9585 33.007 19.024 32.9242C19.0896 32.8414 19.1379 32.7463 19.166 32.6445C19.1942 32.5428 19.2016 32.4364 19.1879 32.3317C19.1742 32.227 19.1397 32.1261 19.0863 32.035C19.0329 31.9439 18.9618 31.8644 18.8772 31.8012C18.7925 31.7381 18.6961 31.6926 18.5935 31.6673C18.491 31.6421 18.3844 31.6378 18.2802 31.6545C18.1759 31.6712 18.0761 31.7086 17.9865 31.7646Z" fill="#EA5501"/>
<path d="M10.6552 17.1494C10.4182 16.9052 10.135 16.7105 9.82205 16.5767C9.5091 16.4429 9.17267 16.3727 8.83234 16.3702C8.492 16.3676 8.15456 16.4328 7.83964 16.5618C7.52471 16.6909 7.2386 16.8813 6.99794 17.122C6.75728 17.3626 6.56688 17.6487 6.43782 17.9636C6.30876 18.2786 6.24361 18.616 6.24617 18.9564C6.24872 19.2967 6.31893 19.6331 6.45271 19.9461C6.58648 20.259 6.78116 20.5422 7.02541 20.7792L11.6862 25.4393C12.1676 25.9206 12.8204 26.191 13.5011 26.191C14.1818 26.191 14.8346 25.9206 15.316 25.4393L25.0455 15.7098C25.5149 15.2261 25.7753 14.577 25.7702 13.9029C25.7651 13.2288 25.4951 12.5837 25.0184 12.1071C24.5417 11.6304 23.8967 11.3604 23.2226 11.3553C22.5485 11.3502 21.8994 11.6105 21.4157 12.08L13.5004 19.9953L10.6552 17.1494ZM22.5313 13.1949C22.623 13.1032 22.7319 13.0304 22.8518 12.9807C22.9717 12.9311 23.1001 12.9055 23.2299 12.9055C23.3596 12.9055 23.4881 12.9311 23.608 12.9807C23.7278 13.0304 23.8368 13.1032 23.9285 13.1949C24.0203 13.2867 24.093 13.3956 24.1427 13.5154C24.1923 13.6353 24.2179 13.7638 24.2179 13.8935C24.2179 14.0233 24.1923 14.1518 24.1427 14.2716C24.093 14.3915 24.0203 14.5004 23.9285 14.5922L14.1997 24.3217C14.0144 24.5068 13.7631 24.6108 13.5011 24.6108C13.2391 24.6108 12.9878 24.5068 12.8025 24.3217L8.14238 19.6616C7.9571 19.4763 7.853 19.225 7.853 18.9629C7.853 18.7009 7.9571 18.4496 8.14238 18.2643C8.32767 18.079 8.57897 17.9749 8.84101 17.9749C9.10305 17.9749 9.35436 18.079 9.53964 18.2643L12.9433 21.668C13.0913 21.816 13.2921 21.8991 13.5014 21.8991C13.7108 21.8991 13.9115 21.816 14.0596 21.668L22.5313 13.1949Z" fill="#EA5501"/>
</svg>
