<svg width="30" height="41" viewBox="0 0 30 41" fill="none" xmlns="http://www.w3.org/2000/svg">
<path d="M29.0692 12.6276C28.799 12.2511 28.5831 11.8385 28.4279 11.4018C28.3381 10.9268 28.3159 10.4415 28.3621 9.96027C28.4745 9.12102 28.3461 8.26709 27.9918 7.49802C27.4982 6.80047 26.8159 6.25813 26.0249 5.93461C25.5918 5.73848 25.1887 5.48177 24.8278 5.1722C24.5185 4.8111 24.2618 4.40804 24.0654 3.975C23.7419 3.18382 23.1996 2.50127 22.502 2.00741C21.7331 1.65395 20.8798 1.52581 20.0411 1.63786C19.5596 1.68401 19.0741 1.66184 18.5988 1.572C18.1619 1.41711 17.749 1.20135 17.3724 0.931091C16.6871 0.399858 15.8637 0.0766758 15 0C14.1362 0.0765327 13.3127 0.399622 12.6273 0.930818C12.2508 1.20092 11.8381 1.41668 11.4015 1.57173C10.9264 1.66085 10.4412 1.68302 9.95993 1.63759C9.12068 1.52538 8.26682 1.65377 7.49768 2.00782C6.80021 2.50159 6.25799 3.18399 5.93461 3.975C5.73848 4.40815 5.48177 4.81123 5.1722 5.17214C4.81111 5.48151 4.40804 5.73821 3.975 5.93461C3.18382 6.25806 2.50127 6.8004 2.00741 7.49802C1.654 8.26687 1.52586 9.12017 1.63786 9.95891C1.68403 10.4404 1.66186 10.9259 1.572 11.4012C1.41701 11.8381 1.20113 12.251 0.93075 12.6276C0.399639 13.3129 0.0765767 14.1364 0 15C0.0765327 15.8638 0.399622 16.6873 0.930818 17.3727C1.20104 17.7492 1.41691 18.1618 1.57207 18.5985C1.66189 19.0735 1.68406 19.5588 1.63793 20.0401C1.52548 20.8793 1.65388 21.7332 2.00816 22.5023C2.50181 23.1999 3.18412 23.7422 3.97507 24.0657C4.40822 24.2619 4.81129 24.5186 5.1722 24.8281C5.48152 25.1891 5.7382 25.5921 5.93461 26.025C6.12697 26.4142 6.34837 26.7883 6.59693 27.1443L2.76852 37.6625C2.72465 37.7832 2.71575 37.9139 2.74286 38.0394C2.76997 38.1649 2.83198 38.2802 2.92174 38.3721C3.01151 38.4639 3.12539 38.5285 3.25027 38.5585C3.37515 38.5884 3.50595 38.5825 3.62761 38.5414L7.24643 37.319L9.23332 40.5822C9.2942 40.6822 9.37977 40.7648 9.48181 40.8221C9.58384 40.8794 9.6989 40.9095 9.81593 40.9095C9.83789 40.9095 9.86052 40.9081 9.88316 40.9062C10.011 40.8935 10.1326 40.845 10.2341 40.7662C10.3355 40.6874 10.4126 40.5815 10.4564 40.4607L14.2996 29.9034C14.7577 30.0327 15.2426 30.0327 15.7007 29.9034L19.5438 40.4607C19.5877 40.5815 19.6648 40.6874 19.7662 40.7662C19.8676 40.845 19.9893 40.8935 20.1171 40.9062C20.1397 40.9081 20.1624 40.9095 20.1843 40.9095C20.3014 40.9095 20.4164 40.8794 20.5185 40.8221C20.6205 40.7648 20.7061 40.6822 20.767 40.5822L22.7538 37.319L26.3727 38.5413C26.4944 38.5825 26.6252 38.5884 26.7501 38.5584C26.8749 38.5285 26.9888 38.4638 27.0786 38.372C27.1684 38.2802 27.2304 38.1649 27.2575 38.0393C27.2846 37.9138 27.2757 37.7832 27.2318 37.6625L23.4031 27.1437C23.6515 26.7878 23.8729 26.4139 24.0654 26.0249C24.2615 25.5918 24.5182 25.1887 24.8278 24.8278C25.1889 24.5184 25.592 24.2618 26.025 24.0654C26.8162 23.7419 27.4987 23.1996 27.9926 22.502C28.346 21.7331 28.4741 20.8798 28.3621 20.0411C28.316 19.5596 28.3381 19.0741 28.428 18.5988C28.583 18.1619 28.7989 17.749 29.0693 17.3724C29.6004 16.6871 29.9234 15.8636 30 15C29.9234 14.1364 29.6003 13.3129 29.0692 12.6276ZM9.66061 38.6612L8.12789 36.1437C8.04728 36.0114 7.92403 35.9105 7.77844 35.8576C7.63285 35.8047 7.47359 35.803 7.32689 35.8527L4.53505 36.7955L7.70236 28.093C8.42325 28.3579 9.19622 28.4501 9.95918 28.3621C10.4406 28.3163 10.9261 28.3385 11.4014 28.4279C11.8384 28.5829 12.2513 28.7988 12.6279 29.0692C12.7662 29.1572 12.9094 29.2471 13.0556 29.3351L9.66061 38.6612ZM22.6731 35.8527C22.5264 35.803 22.3672 35.8047 22.2216 35.8576C22.076 35.9105 21.9527 36.0114 21.8721 36.1437L20.3394 38.6612L16.9447 29.3354C17.0909 29.2468 17.234 29.1572 17.3724 29.0692C17.7489 28.799 18.1615 28.5831 18.5982 28.4279C19.0732 28.3384 19.5585 28.3163 20.0397 28.3621C20.8031 28.4505 21.5766 28.3581 22.2976 28.0924L25.465 36.7955L22.6731 35.8527ZM27.9186 16.64C27.5695 17.1315 27.2972 17.6732 27.1109 18.2466C26.9808 18.8538 26.9431 19.4772 26.999 20.0956C27.0852 20.6768 27.0208 21.2704 26.812 21.8195C26.4368 22.2818 25.9485 22.6391 25.3944 22.8569C24.836 23.1128 24.3198 23.4523 23.8636 23.8636C23.4518 24.3196 23.1121 24.8358 22.8562 25.3944C22.6385 25.9485 22.2811 26.4368 21.8189 26.812C21.2696 27.0203 20.6762 27.0847 20.095 26.999C19.4765 26.9434 18.8532 26.9812 18.2459 27.1109C17.6728 27.2973 17.1313 27.5696 16.64 27.9186C16.1657 28.2975 15.6001 28.545 15 28.6364C14.3999 28.545 13.8343 28.2975 13.36 27.9186C12.8685 27.5695 12.3268 27.2972 11.7534 27.1109C11.3708 27.0168 10.9775 26.9733 10.5835 26.9814C10.3558 26.9814 10.1287 26.9907 9.90436 26.9993C9.32318 27.0851 8.7297 27.0207 8.18045 26.8122C7.71821 26.4371 7.36087 25.9487 7.14314 25.3947C6.88726 24.8361 6.54777 24.3199 6.13636 23.8636C5.68041 23.4518 5.1642 23.1121 4.60561 22.8562C4.05153 22.6385 3.56319 22.2811 3.18805 21.8189C2.97926 21.2697 2.91484 20.6762 3.00095 20.095C3.0569 19.4765 3.01918 18.8532 2.88907 18.2459C2.70269 17.6728 2.43036 17.1313 2.08139 16.64C1.70252 16.1657 1.455 15.6001 1.36364 15C1.455 14.3999 1.70252 13.8343 2.08139 13.36C2.4305 12.8685 2.70284 12.3268 2.88907 11.7534C3.01919 11.1462 3.05691 10.5228 3.00095 9.90436C2.91479 9.32318 2.97921 8.72962 3.18805 8.18045C3.5632 7.71821 4.05154 7.36086 4.60561 7.14314C5.16403 6.88723 5.6802 6.54775 6.13636 6.13636C6.54818 5.68041 6.8879 5.1642 7.14375 4.60561C7.3615 4.05153 7.71887 3.56319 8.18114 3.18805C8.73032 2.97938 9.32382 2.91497 9.90498 3.00095C10.5235 3.05654 11.1468 3.01882 11.7541 2.88907C12.3272 2.70269 12.8687 2.43036 13.36 2.08139C13.8343 1.70252 14.3999 1.455 15 1.36364C15.6001 1.455 16.1657 1.70252 16.64 2.08139C17.1315 2.4305 17.6732 2.70284 18.2466 2.88907C18.8539 3.01882 19.4772 3.05654 20.0956 3.00095C20.6768 2.91483 21.2704 2.97925 21.8195 3.18805C22.2818 3.5632 22.6391 4.05154 22.8569 4.60561C23.1128 5.16403 23.4523 5.6802 23.8636 6.13636C24.3196 6.54818 24.8358 6.8879 25.3944 7.14375C25.9485 7.3615 26.4368 7.71887 26.812 8.18114C27.0207 8.73029 27.0852 9.32382 26.999 9.90498C26.9431 10.5235 26.9808 11.1468 27.1109 11.7541C27.2973 12.3272 27.5696 12.8687 27.9186 13.36C28.2975 13.8343 28.545 14.3999 28.6364 15C28.545 15.6001 28.2975 16.1657 27.9186 16.64Z" fill="#EA5501"/>
<path d="M15.0009 4.09058C12.8433 4.09058 10.7341 4.73038 8.94013 5.92909C7.14614 7.1278 5.74789 8.83156 4.92221 10.8249C4.09652 12.8183 3.88049 15.0118 4.30142 17.1279C4.72235 19.2441 5.76134 21.1879 7.287 22.7136C8.81266 24.2392 10.7565 25.2782 12.8726 25.6991C14.9888 26.1201 17.1822 25.904 19.1756 25.0784C21.169 24.2527 22.8728 22.8544 24.0715 21.0604C25.2702 19.2664 25.91 17.1573 25.91 14.9997C25.9067 12.1074 24.7563 9.33456 22.7111 7.28942C20.666 5.24429 17.8932 4.09388 15.0009 4.09058ZM15.0009 24.5451C13.113 24.5451 11.2675 23.9853 9.69772 22.9364C8.12798 21.8876 6.90452 20.3968 6.18204 18.6526C5.45957 16.9084 5.27054 14.9891 5.63885 13.1374C6.00716 11.2858 6.91628 9.58497 8.25124 8.25001C9.58619 6.91506 11.287 6.00594 13.1387 5.63763C14.9903 5.26931 16.9096 5.45834 18.6538 6.18082C20.398 6.90329 21.8888 8.12676 22.9376 9.6965C23.9865 11.2662 24.5463 13.1118 24.5463 14.9997C24.5435 17.5304 23.5369 19.9567 21.7474 21.7462C19.9579 23.5357 17.5316 24.5423 15.0009 24.5451Z" fill="#EA5501"/>
<path d="M17.447 11.5982L15.612 7.88019C15.5494 7.77372 15.46 7.68544 15.3528 7.62411C15.2456 7.56278 15.1242 7.53052 15.0007 7.53052C14.8772 7.53052 14.7558 7.56278 14.6486 7.62411C14.5414 7.68544 14.4521 7.77372 14.3895 7.88019L12.5544 11.5982L8.45089 12.1948C8.32504 12.2131 8.20683 12.2662 8.10959 12.3482C8.01235 12.4301 7.93998 12.5377 7.90063 12.6586C7.86129 12.7795 7.85656 12.909 7.88696 13.0325C7.91736 13.156 7.98169 13.2685 8.07268 13.3574L11.0423 16.2518L10.3412 20.3394C10.3197 20.4648 10.3338 20.5937 10.3817 20.7115C10.4297 20.8293 10.5097 20.9314 10.6126 21.0061C10.7156 21.0809 10.8374 21.1253 10.9642 21.1344C11.0911 21.1436 11.218 21.117 11.3306 21.0578L15.0007 19.1282L18.6708 21.0578C18.7834 21.117 18.9103 21.1435 19.0372 21.1344C19.1641 21.1252 19.2859 21.0808 19.3888 21.006C19.4917 20.9313 19.5717 20.8293 19.6197 20.7114C19.6677 20.5936 19.6817 20.4647 19.6603 20.3393L18.9591 16.2517L21.9287 13.3573C22.0197 13.2685 22.0841 13.1559 22.1145 13.0325C22.1449 12.909 22.1401 12.7795 22.1008 12.6585C22.0614 12.5376 21.9891 12.4301 21.8918 12.3481C21.7946 12.2662 21.6764 12.213 21.5505 12.1947L17.447 11.5982ZM17.7506 15.526C17.6716 15.6032 17.6124 15.6984 17.5783 15.8035C17.5442 15.9086 17.5362 16.0204 17.5549 16.1292L18.0829 19.2081L15.3183 17.7546C15.2204 17.703 15.1114 17.676 15.0007 17.676C14.89 17.676 14.781 17.703 14.6831 17.7546L11.9189 19.2081L12.4469 16.1292C12.4656 16.0204 12.4575 15.9086 12.4234 15.8035C12.3893 15.6984 12.3302 15.6032 12.2511 15.526L10.0139 13.3454L13.1054 12.896C13.2148 12.8802 13.3187 12.838 13.4082 12.773C13.4976 12.708 13.5699 12.6223 13.6188 12.5231L15.0007 9.72273L16.383 12.5232C16.4318 12.6224 16.5041 12.7082 16.5936 12.7731C16.683 12.8381 16.7869 12.8803 16.8964 12.8961L19.9879 13.3455L17.7506 15.526Z" fill="#EA5501"/>
</svg>
