<svg width="35" height="36" viewBox="0 0 35 36" fill="none" xmlns="http://www.w3.org/2000/svg">
<path d="M26.3208 8.82057C26.3208 7.07603 25.8035 5.37066 24.8343 3.92013C23.8651 2.46959 22.4875 1.33904 20.8757 0.671429C19.264 0.00382183 17.4905 -0.170855 15.7794 0.169489C14.0684 0.509832 12.4968 1.34991 11.2632 2.58349C10.0296 3.81707 9.18952 5.38874 8.84918 7.09976C8.50883 8.81078 8.68351 10.5843 9.35112 12.1961C10.0187 13.8078 11.1493 15.1854 12.5998 16.1546C14.0503 17.1238 15.7557 17.6411 17.5003 17.6411C19.8388 17.6385 22.0808 16.7083 23.7344 15.0547C25.388 13.4011 26.3182 11.1591 26.3208 8.82057ZM17.5003 16.4651C15.9883 16.4651 14.5103 16.0167 13.2532 15.1767C11.9961 14.3367 11.0163 13.1428 10.4377 11.746C9.85908 10.3491 9.70769 8.81209 10.0027 7.3292C10.2976 5.84632 11.0257 4.4842 12.0948 3.4151C13.1639 2.346 14.526 1.61793 16.0089 1.32297C17.4918 1.028 19.0288 1.17939 20.4257 1.75798C21.8225 2.33657 23.0164 3.31639 23.8564 4.57352C24.6964 5.83065 25.1447 7.30863 25.1447 8.82057C25.1424 10.8473 24.3363 12.7903 22.9031 14.2235C21.47 15.6566 19.527 16.4627 17.5003 16.4651Z" fill="#EA5501"/>
<path d="M17.4997 2.35229C16.2203 2.35229 14.9697 2.73166 13.906 3.44242C12.8423 4.15318 12.0132 5.16341 11.5236 6.34535C11.0341 7.5273 10.906 8.82789 11.1555 10.0826C11.4051 11.3374 12.0212 12.4899 12.9258 13.3946C13.8304 14.2992 14.983 14.9152 16.2377 15.1648C17.4925 15.4144 18.7931 15.2863 19.975 14.7967C21.157 14.3072 22.1672 13.4781 22.878 12.4144C23.5887 11.3506 23.9681 10.1 23.9681 8.82071C23.9661 7.1058 23.2839 5.46171 22.0713 4.24908C20.8587 3.03646 19.2146 2.35432 17.4997 2.35229ZM17.4997 14.113C16.4529 14.113 15.4297 13.8027 14.5594 13.2211C13.6891 12.6396 13.0107 11.813 12.6102 10.846C12.2096 9.87895 12.1048 8.81484 12.309 7.78823C12.5132 6.76161 13.0173 5.81861 13.7574 5.07846C14.4976 4.33831 15.4406 3.83427 16.4672 3.63006C17.4938 3.42586 18.5579 3.53066 19.525 3.93123C20.492 4.33179 21.3186 5.01012 21.9001 5.88044C22.4816 6.75076 22.792 7.77398 22.792 8.82071C22.7903 10.2238 22.2322 11.5689 21.24 12.5611C20.2479 13.5532 18.9028 14.1113 17.4997 14.113Z" fill="#EA5501"/>
<path d="M17.5006 7.0565C18.2186 7.0565 18.6767 7.40461 18.6767 7.64453C18.6767 7.80049 18.7386 7.95006 18.8489 8.06034C18.9592 8.17062 19.1087 8.23257 19.2647 8.23257C19.4207 8.23257 19.5702 8.17062 19.6805 8.06034C19.7908 7.95006 19.8527 7.80049 19.8527 7.64453C19.8527 6.80893 19.1124 6.13269 18.0886 5.93923V5.29238C18.0886 5.13643 18.0267 4.98686 17.9164 4.87658C17.8061 4.7663 17.6565 4.70435 17.5006 4.70435C17.3446 4.70435 17.1951 4.7663 17.0848 4.87658C16.9745 4.98686 16.9126 5.13643 16.9126 5.29238V5.93923C15.8888 6.13151 15.1484 6.80776 15.1484 7.64453C15.1484 8.63361 16.1816 9.40865 17.5006 9.40865C18.2186 9.40865 18.6767 9.75677 18.6767 9.99668C18.6767 10.2366 18.2186 10.5847 17.5006 10.5847C16.7826 10.5847 16.3245 10.2366 16.3245 9.99668C16.3245 9.84073 16.2626 9.69116 16.1523 9.58088C16.042 9.4706 15.8924 9.40865 15.7365 9.40865C15.5805 9.40865 15.4309 9.4706 15.3207 9.58088C15.2104 9.69116 15.1484 9.84073 15.1484 9.99668C15.1484 10.8323 15.8888 11.5085 16.9126 11.702V12.3488C16.9126 12.5048 16.9745 12.6544 17.0848 12.7646C17.1951 12.8749 17.3446 12.9369 17.5006 12.9369C17.6565 12.9369 17.8061 12.8749 17.9164 12.7646C18.0267 12.6544 18.0886 12.5048 18.0886 12.3488V11.702C19.1124 11.5097 19.8527 10.8335 19.8527 9.99668C19.8527 9.00761 18.8196 8.23257 17.5006 8.23257C16.7826 8.23257 16.3245 7.88445 16.3245 7.64453C16.3245 7.40461 16.7826 7.0565 17.5006 7.0565Z" fill="#EA5501"/>
<path d="M33.8061 9.6204C33.818 9.51694 33.8239 9.41288 33.8238 9.30874C33.8209 8.76973 33.634 8.24788 33.2938 7.8297C32.9537 7.41153 32.4809 7.12214 31.9538 7.00952C31.3577 6.89717 30.7411 7.01488 30.2283 7.33894C29.7155 7.663 29.3445 8.16934 29.19 8.75599L26.6027 16.2005C26.5643 16.2158 26.527 16.2334 26.4909 16.2535L21.2927 19.2995C20.4973 19.7667 19.8375 20.4334 19.3786 21.2337C18.9196 22.034 18.6775 22.9402 18.6759 23.8627V30.5781C18.52 30.5781 18.3704 30.64 18.2601 30.7503C18.1498 30.8606 18.0879 31.0101 18.0879 31.1661V34.6943C18.0879 34.8503 18.1498 34.9999 18.2601 35.1101C18.3704 35.2204 18.52 35.2824 18.6759 35.2824H26.9085C27.0644 35.2824 27.214 35.2204 27.3243 35.1101C27.4345 34.9999 27.4965 34.8503 27.4965 34.6943V31.1661C27.4965 31.0101 27.4345 30.8606 27.3243 30.7503C27.214 30.64 27.0644 30.5781 26.9085 30.5781V28.1083C26.9096 27.8599 26.9624 27.6145 27.0637 27.3877C27.1649 27.1609 27.3123 26.9577 27.4965 26.7911L31.4716 23.257C31.9064 22.8765 32.2177 22.3749 32.3654 21.8163L34.9175 12.2725C34.972 12.0732 34.9997 11.8675 34.9999 11.6609C34.9975 11.2459 34.886 10.8389 34.6765 10.4807C34.4669 10.1225 34.1667 9.82577 33.8061 9.6204ZM30.3132 9.10293C30.3854 8.79883 30.5695 8.5331 30.8289 8.35872C31.0883 8.18434 31.4039 8.11413 31.7127 8.16207C31.9763 8.21727 32.2129 8.36126 32.3831 8.56996C32.5533 8.77867 32.6467 9.03945 32.6477 9.30874V9.31462C32.1221 9.32636 31.6146 9.50887 31.2019 9.83456C30.7893 10.1602 30.4938 10.6114 30.3602 11.1199L28.7196 16.1829C28.4722 16.0624 28.2055 15.9867 27.9316 15.9594L30.3132 9.10293ZM26.3204 34.1063H19.264V31.7541H26.3204V34.1063ZM33.7826 11.9667L31.2247 21.5164C31.1362 21.8482 30.9521 22.1468 30.6954 22.3749L26.7144 25.909C26.4064 26.1868 26.1598 26.526 25.9907 26.9048C25.8216 27.2835 25.7336 27.6935 25.7324 28.1083V30.5781H19.852V23.8627C19.8549 23.1452 20.0439 22.4408 20.4005 21.8183C20.7572 21.1957 21.2692 20.6764 21.8866 20.3109L27.079 17.2708C27.2129 17.1928 27.3608 17.142 27.5144 17.1214C27.668 17.1007 27.8241 17.1106 27.9738 17.1505C28.1235 17.1904 28.2639 17.2595 28.3868 17.3538C28.5098 17.4481 28.6129 17.5658 28.6902 17.7C28.8429 17.9718 28.8851 18.2919 28.8078 18.5939C28.767 18.743 28.6971 18.8826 28.6023 19.0047C28.5074 19.1267 28.3894 19.2289 28.2551 19.3054L24.8856 21.2518C24.7576 21.3332 24.666 21.4608 24.6299 21.6081C24.5938 21.7555 24.6161 21.911 24.692 22.0423C24.7679 22.1736 24.8916 22.2705 25.0372 22.3128C25.1829 22.3551 25.3393 22.3394 25.4736 22.2691L28.8431 20.3227C29.1124 20.1699 29.3485 19.9647 29.5373 19.7193C29.7262 19.4739 29.864 19.1932 29.9427 18.8938C30.1028 18.2921 30.0182 17.6515 29.7075 17.112L29.6722 17.0591L31.4893 11.4551C31.5615 11.151 31.7456 10.8852 32.005 10.7109C32.2644 10.5365 32.5799 10.4663 32.8888 10.5142C33.1524 10.5694 33.389 10.7134 33.5592 10.9221C33.7294 11.1308 33.8228 11.3916 33.8238 11.6609C33.8258 11.7643 33.8119 11.8674 33.7826 11.9667Z" fill="#EA5501"/>
<path d="M16.3239 30.5779V23.8625C16.3224 22.9399 16.0802 22.0338 15.6213 21.2335C15.1624 20.4332 14.5026 19.7665 13.7072 19.2993L8.50891 16.2474C8.47362 16.2297 8.43246 16.218 8.39718 16.2003L5.82745 8.79694C5.67745 8.2003 5.30566 7.68328 4.78781 7.35115C4.26996 7.01903 3.64498 6.89678 3.04016 7.0093C2.51417 7.1232 2.04277 7.41311 1.70385 7.83116C1.36492 8.2492 1.17874 8.77036 1.17608 9.30853C1.17592 9.41267 1.18181 9.51673 1.19372 9.62019C0.833111 9.82556 0.53294 10.1223 0.323392 10.4805C0.113844 10.8386 0.00230745 11.2457 0 11.6607C0.00114212 11.8668 0.026804 12.0721 0.0764448 12.2722L2.63441 21.8102C2.78058 22.3711 3.092 22.8751 3.52823 23.2568L7.49748 26.7909C7.6835 26.9564 7.83253 27.1592 7.93487 27.3862C8.0372 27.6131 8.09054 27.8591 8.0914 28.1081V30.5779C7.93544 30.5779 7.78587 30.6398 7.67559 30.7501C7.56532 30.8604 7.50336 31.0099 7.50336 31.1659V34.6941C7.50336 34.8501 7.56532 34.9996 7.67559 35.1099C7.78587 35.2202 7.93544 35.2822 8.0914 35.2822H16.3239C16.4799 35.2822 16.6295 35.2202 16.7397 35.1099C16.85 34.9996 16.912 34.8501 16.912 34.6941V31.1659C16.912 31.0099 16.85 30.8604 16.7397 30.7501C16.6295 30.6398 16.4799 30.5779 16.3239 30.5779ZM2.35215 9.30853C2.35288 9.04006 2.44544 8.77992 2.61445 8.57132C2.78347 8.36273 3.01876 8.21824 3.28125 8.16186C3.59867 8.11523 3.92197 8.19061 4.18602 8.37283C4.45008 8.55505 4.63527 8.83057 4.7043 9.14388L7.06821 15.9592C6.95136 15.9678 6.83536 15.9855 6.72127 16.0122C6.56892 16.0541 6.42117 16.1112 6.28024 16.1827L4.65138 11.1491C4.51882 10.6359 4.22272 10.1798 3.80788 9.84983C3.39305 9.51987 2.88203 9.33398 2.35215 9.32029V9.30853ZM8.27957 25.9088L4.30444 22.3747C4.04632 22.1454 3.86212 21.8445 3.7752 21.5103L1.21724 11.9665C1.18798 11.8672 1.1741 11.7641 1.17608 11.6607C1.1768 11.3922 1.26936 11.1321 1.43838 10.9235C1.60739 10.7149 1.84269 10.5704 2.10518 10.514C2.42013 10.4679 2.74091 10.5421 3.00356 10.7219C3.26622 10.9017 3.45146 11.1739 3.52235 11.4843L5.32762 17.0589C5.31794 17.0778 5.3061 17.0956 5.29234 17.1118C4.98148 17.6522 4.89791 18.294 5.06 18.8961C5.22208 19.4981 5.61657 20.0112 6.15675 20.3225L9.52621 22.2689C9.6606 22.3392 9.81696 22.3548 9.96262 22.3126C10.1083 22.2703 10.232 22.1734 10.3079 22.0421C10.3838 21.9108 10.406 21.7552 10.3699 21.6079C10.3339 21.4606 10.2422 21.3329 10.1142 21.2516L6.74479 19.3052C6.61081 19.2283 6.49327 19.1259 6.39889 19.0036C6.30451 18.8813 6.23513 18.7417 6.19473 18.5926C6.15432 18.4436 6.14367 18.288 6.16339 18.1348C6.18311 17.9816 6.2328 17.8338 6.30965 17.6998C6.46679 17.4314 6.72307 17.2353 7.02332 17.1539C7.32357 17.0725 7.64377 17.1123 7.91499 17.2647L13.1132 20.3107C13.7307 20.6762 14.2427 21.1955 14.5993 21.8181C14.9559 22.4406 15.1449 23.145 15.1479 23.8625V30.5779H9.26748V28.1081C9.26647 27.6927 9.17798 27.2822 9.00777 26.9032C8.83756 26.5243 8.58944 26.1855 8.27957 25.9088ZM15.7359 34.1061H8.67944V31.7539H15.7359V34.1061Z" fill="#EA5501"/>
</svg>
