<svg width="15" height="17" viewBox="0 0 15 17" fill="none" xmlns="http://www.w3.org/2000/svg">
<path d="M14.9653 8.59302C14.9653 8.08448 14.9207 7.60169 14.8443 7.13177H7.64453V10.035H11.7668C11.5821 10.9877 11.0405 11.7923 10.2377 12.3395V14.2706H12.6971C14.137 12.9253 14.9653 10.9426 14.9653 8.59302Z" fill="#4285F4"/>
<path d="M7.64607 16.1438C9.71042 16.1438 11.4371 15.4486 12.6986 14.2706L10.2392 12.3394C9.55113 12.8029 8.67824 13.0862 7.64607 13.0862C5.65181 13.0862 3.96338 11.7279 3.3581 9.89331H0.822266V11.8824C2.07744 14.4058 4.65787 16.1438 7.64607 16.1438Z" fill="#34A853"/>
<path d="M3.35775 9.89332C3.19846 9.42984 3.11563 8.93418 3.11563 8.4192C3.11563 7.90423 3.20483 7.40856 3.35775 6.94508V4.95599H0.821915C0.299457 5.99881 0 7.17038 0 8.4192C0 9.66802 0.299457 10.8396 0.821915 11.8824L3.35775 9.89332Z" fill="#FBBC05"/>
<path d="M7.64607 3.75222C8.77382 3.75222 9.7805 4.14489 10.5769 4.91092L12.756 2.70939C11.4371 1.46058 9.71042 0.69455 7.64607 0.69455C4.65787 0.69455 2.07744 2.43259 0.822266 4.95598L3.3581 6.94508C3.96338 5.11047 5.65181 3.75222 7.64607 3.75222Z" fill="#EA4335"/>
</svg>
