<svg width="192" height="51" viewBox="0 0 192 51" fill="none" xmlns="http://www.w3.org/2000/svg">
<rect opacity="0.6" x="0.5" y="0.682617" width="49" height="49" stroke="white"/>
<path d="M11.1113 33.1616V11.2939H29.8188V33.1616" stroke="white" stroke-width="4.5"/>
<path d="M38.8887 17.2037V39.0713H20.1812V17.2037" stroke="#EA5501" stroke-width="4.5"/>
<path d="M74.9257 31.8013L75.012 34.5301C73.659 34.8267 71.2408 35.1826 69.3984 35.1826C63.3818 35.1826 62 31.653 62 24.7123C62 17.386 63.497 14.2123 69.3984 14.2123C71.4424 14.2123 73.8029 14.6572 75.0408 14.9538L74.9257 17.6233C73.6302 17.386 71.2408 17.1487 69.8302 17.1487C66.203 17.1487 65.3106 18.958 65.3106 24.7123C65.3106 30.2885 66.0303 32.2462 69.9166 32.2462C71.3848 32.2462 73.6878 32.0089 74.9257 31.8013Z" fill="white"/>
<path d="M84.8037 32.3055C88.6324 32.3055 89.4961 29.9623 89.4961 24.8013C89.4961 19.7589 88.6036 17.0894 84.8037 17.0894C81.0037 17.0894 80.0825 19.7589 80.0825 24.8013C80.0825 29.8733 80.9749 32.3055 84.8037 32.3055ZM84.8037 35.1826C78.6143 35.1826 76.7719 31.653 76.7719 24.8013C76.7719 18.0089 78.6431 14.2123 84.8037 14.2123C90.9642 14.2123 92.8066 17.9792 92.8066 24.8013C92.8066 31.7123 90.9642 35.1826 84.8037 35.1826Z" fill="white"/>
<path d="M95.9517 34.8563V14.5385H101.537L107.524 31.9496H107.956V14.5385H111.152V34.8563H105.682L99.5502 17.4157H99.1471V34.8563H95.9517Z" fill="white"/>
<path d="M126.857 14.8945L126.598 17.564C126.598 17.564 122.567 17.0894 120.898 17.0894C118.479 17.0894 117.242 17.9792 117.242 19.7292C117.242 21.6275 118.278 22.0724 121.646 23.0216C125.791 24.208 127.288 25.3352 127.288 28.8055C127.288 33.2547 124.582 35.1826 120.696 35.1826C118.134 35.1826 114.248 34.3818 114.248 34.3818L114.564 31.7419C114.564 31.7419 118.451 32.2758 120.495 32.2758C122.941 32.2758 124.064 31.1487 124.064 29.0131C124.064 27.2928 123.172 26.6996 120.149 25.958C115.889 24.8309 114.046 23.4962 114.046 19.9665C114.046 15.8733 116.666 14.1826 120.61 14.1826C123.114 14.1826 126.857 14.8945 126.857 14.8945Z" fill="white"/>
<path d="M128.266 17.475V14.5385H142.66V17.475H137.104V34.8563H133.88V17.475H128.266Z" fill="white"/>
<path d="M152.574 27.6191H147.939V34.8563H144.743V14.5385H152.228C156.575 14.5385 158.907 16.4962 158.907 21.0047C158.907 23.8818 157.784 25.8691 155.683 26.8775L158.936 34.8563H155.424L152.574 27.6191ZM155.625 21.0343C155.625 18.7208 154.531 17.386 152.228 17.386H147.939V24.7716H152.286C154.704 24.7716 155.625 23.1402 155.625 21.0343Z" fill="white"/>
<path d="M165.015 28.3606C165.015 31.1191 166.397 32.3055 169.016 32.3055C171.665 32.3055 173.075 31.0894 173.075 28.3606V14.5385H176.299V28.3013C176.299 33.1953 173.737 35.1826 169.016 35.1826C164.324 35.1826 161.79 33.1953 161.79 28.3013V14.5385H165.015V28.3606Z" fill="white"/>
<path d="M179.046 17.4157V14.5385H192V17.7123L182.846 31.4157V31.9792H192V34.8563H179.046V31.7123L188.171 18.0089V17.4157H179.046Z" fill="white"/>
</svg>
