<svg width="30" height="30" viewBox="0 0 30 30" fill="none" xmlns="http://www.w3.org/2000/svg">
<path d="M0.590569 29.774H29.4095C29.5661 29.774 29.7163 29.7113 29.8271 29.5998C29.9378 29.4883 30 29.337 30 29.1792V12.4613C29.997 12.3621 29.9726 12.2648 29.9283 12.1761C29.884 12.0874 29.8209 12.0096 29.7436 11.9481L28.1779 10.5887V2.80919C28.1753 2.65322 28.1119 2.50455 28.0014 2.3952C27.891 2.28586 27.7423 2.2246 27.5875 2.22462H18.4097L16.4594 0.525301C16.0484 0.185643 15.5333 0 15.0017 0C14.4701 0 13.955 0.185643 13.5441 0.525301L11.5904 2.22462H2.41263C2.25776 2.2246 2.10909 2.28586 1.99863 2.3952C1.88818 2.50455 1.8248 2.65322 1.82215 2.80919V10.6057L0.273395 11.9345C0.187807 11.9924 0.117959 12.0709 0.0702202 12.1629C0.0224812 12.2549 -0.00162984 12.3575 8.55304e-05 12.4613V29.1792C8.55304e-05 29.337 0.062297 29.4883 0.173034 29.5998C0.283771 29.7113 0.433963 29.774 0.590569 29.774ZM9.38033 20.7778L1.19117 27.847V13.746L9.38033 20.7778ZM28.8055 13.729V27.8878L20.6063 20.7812L28.8055 13.729ZM19.486 21.3862L27.8 28.5845H2.15619L10.4837 21.3862H19.486ZM28.4917 12.4205L28.1779 12.689V12.169L28.4917 12.4205ZM14.31 1.44293C14.5083 1.28915 14.7515 1.20576 15.0017 1.20576C15.252 1.20576 15.4952 1.28915 15.6934 1.44293L16.591 2.22462H13.4125L14.31 1.44293ZM3.00311 3.40395H26.997V13.7052L19.459 20.1966H10.5208L2.98287 13.7188C2.99644 13.6702 3.00326 13.6198 3.00311 13.5693V3.40395ZM1.82215 12.723L1.48473 12.4443L1.82215 12.1656V12.723Z" fill="white"/>
<path d="M13.3018 16.5929C14.7934 17.0059 16.3838 16.851 17.7692 16.1578C17.9088 16.0862 18.0144 15.9616 18.0628 15.8115C18.1113 15.6614 18.0985 15.4981 18.0273 15.3575C17.9562 15.2168 17.8325 15.1105 17.6835 15.0617C17.5345 15.0129 17.3723 15.0258 17.2327 15.0975C16.1264 15.6467 14.8622 15.7816 13.6662 15.4781C10.4303 14.2308 11.3043 10.7608 11.3313 10.6147C11.5911 9.62904 12.8699 7.12765 15.684 7.34176C18.8456 7.58986 18.8355 10.5297 18.8017 11.1176C18.7309 12.3412 18.0324 13.269 17.4723 13.269H17.452C17.4066 13.2719 17.3611 13.2648 17.3186 13.2484C17.2761 13.232 17.2376 13.2066 17.2057 13.1738C17.0717 12.9418 17.015 12.6726 17.0438 12.4057L17.4419 9.22461C17.4419 9.19742 17.4419 9.17363 17.4419 9.14984C17.4435 9.00256 17.3907 8.85995 17.2938 8.74961C17.197 8.63927 17.0629 8.56905 16.9176 8.55256C16.7723 8.53606 16.6261 8.57445 16.5073 8.66031C16.3885 8.74616 16.3055 8.87336 16.2744 9.01729C15.9281 8.73562 15.5011 8.57357 15.0564 8.55507H15.0057C13.8045 8.55507 12.4177 9.51689 12.1647 11.3352C12.0387 11.9774 12.1664 12.6438 12.5205 13.1927C12.8746 13.7417 13.4272 14.1299 14.061 14.275C14.4283 14.3374 14.8046 14.3216 15.1655 14.2285C15.5264 14.1354 15.864 13.9672 16.1563 13.7346C16.2032 13.8103 16.2562 13.8819 16.3149 13.9487C16.4507 14.1062 16.618 14.233 16.8058 14.3208C16.9936 14.4087 17.1977 14.4556 17.4048 14.4585C18.7106 14.5197 19.8747 13.0413 19.9827 11.1856C20.1143 8.85416 18.8658 6.39694 15.7717 6.15564C12.546 5.90414 10.6632 8.5041 10.1908 10.3122C9.23251 13.9691 11.6754 15.9743 13.3018 16.5929ZM15.8797 12.1746C15.7584 12.4854 15.5364 12.7458 15.2498 12.9136C14.9632 13.0814 14.6287 13.1467 14.3005 13.0991C13.9618 13.013 13.6703 12.7961 13.4891 12.4953C13.3079 12.1945 13.2515 11.8339 13.3321 11.4915C13.5144 10.2034 14.4423 9.7344 15.0192 9.7344H15.0429C15.5659 9.7344 15.9539 10.3632 15.964 10.3767C15.9987 10.438 16.0445 10.4922 16.099 10.5365L15.8797 12.1746Z" fill="white"/>
</svg>
