<svg width="36" height="37" viewBox="0 0 36 37" fill="none" xmlns="http://www.w3.org/2000/svg">
<path d="M26.82 23.3645C24.9419 23.3645 23.4395 24.8669 23.4395 26.7451C23.4395 28.6232 24.9419 30.1256 26.82 30.1256C28.6982 30.1256 30.2006 28.6232 30.2006 26.7451C30.2008 24.9421 28.6982 23.3645 26.82 23.3645ZM26.82 28.6985C25.7682 28.6985 24.9419 27.8721 24.9419 26.8203C24.9419 25.7686 25.7682 24.9422 26.82 24.9422C27.8718 24.9422 28.6982 25.7686 28.6982 26.8203C28.6982 27.8721 27.8718 28.6985 26.82 28.6985Z" fill="#EA5501"/>
<path d="M35.4596 24.7167L33.3562 24.1908C33.3562 24.1156 33.281 24.0407 33.281 23.9655L34.4079 22.1625C34.5581 21.862 34.5581 21.4865 34.3327 21.2609L32.4546 19.3076C32.2292 19.0822 31.8535 19.007 31.553 19.2324L29.5999 20.2844C29.5247 20.2844 29.4497 20.2092 29.3745 20.2092L28.8487 18.1057C28.7735 17.73 28.4729 17.5046 28.0975 17.5046H25.3929C25.0172 17.5046 24.7169 17.73 24.6417 18.1057L24.1158 20.2092C24.0406 20.2092 23.9657 20.2844 23.8905 20.2844L22.0875 19.1574C21.787 19.0073 21.4115 19.0073 21.1859 19.2326L19.3078 21.1108C19.0824 21.3361 19.0072 21.7119 19.2326 22.0124L20.3595 23.8905C20.3595 23.9657 20.2843 24.0407 20.2843 24.1159L18.8569 24.4164C17.8051 24.1159 16.7534 23.9657 15.7016 23.9657H11.4194C8.33906 23.9657 5.48438 25.1679 3.38083 27.2714C1.35228 29.4496 0.0751937 32.3797 0 35.3099C0 35.5353 0.0752003 35.6857 0.22534 35.8358C0.375741 35.986 0.52588 36.0612 0.751213 36.0612H28.1724C28.5482 36.0612 28.8485 35.8358 28.9236 35.4601L29.4495 33.3566C29.5247 33.3566 29.5997 33.2814 29.6749 33.2814L31.4778 34.4084C31.7784 34.5585 32.1538 34.5585 32.3794 34.3332L34.2576 32.455C34.4829 32.2297 34.5581 31.8539 34.3328 31.5534L33.2058 29.6752C33.2058 29.6 33.281 29.5251 33.281 29.4499L35.3845 28.924C35.7602 28.8488 35.9856 28.5483 35.9856 28.1728V25.4683C36.0608 25.0928 35.8354 24.7923 35.4597 24.7171L35.4596 24.7167ZM1.57751 34.5583C1.80285 32.2294 2.8546 30.0507 4.43226 28.548C6.31043 26.6698 8.78967 25.6933 11.419 25.6933H15.7013C16.3773 25.6933 16.9783 25.7685 17.5794 25.9186V28.3227C17.5794 28.6984 17.8048 28.9987 18.1805 29.0739L20.284 29.5997C20.284 29.6749 20.3592 29.7499 20.3592 29.8251L19.2322 31.628C19.0821 31.9286 19.0821 32.304 19.3074 32.5296L21.1856 34.483C21.4109 34.7083 21.7867 34.7835 22.0872 34.5582L23.9653 33.4312C24.0405 33.4312 24.1155 33.5064 24.1907 33.5064L24.4912 34.7086H1.57758L1.57751 34.5583ZM34.5581 27.4964L32.6048 27.9471C32.3794 28.0223 32.1541 28.1724 32.0789 28.4729C31.9287 29.074 31.4778 29.5247 31.7783 29.9753L32.8301 31.7034L31.7783 32.7551L30.1255 31.7034C29.9002 31.5532 29.5996 31.5532 29.3743 31.7034C29.149 31.8535 28.8484 31.9287 28.5479 32.0791C28.3226 32.1543 28.0972 32.3797 28.022 32.605L27.5713 34.5581H26.0689L25.6183 32.6047C25.5431 32.3794 25.3929 32.154 25.0924 32.0788C24.7919 32.0036 24.5665 31.8535 24.266 31.7783C24.0407 31.6282 23.7401 31.7031 23.5148 31.7783L21.7868 32.8301L20.735 31.7783L21.7868 30.1255C21.9369 29.9001 21.9369 29.5996 21.7868 29.3742C21.6366 29.1489 21.5614 28.8484 21.4862 28.623C21.4862 28.5478 21.4862 28.5479 21.411 28.4729C21.3358 28.2476 21.1105 28.0972 20.8851 28.0222L18.9318 27.5716V26.0692L20.8099 25.6185C21.0353 25.5433 21.2606 25.3931 21.3358 25.0926C21.411 24.7921 21.5612 24.5667 21.6364 24.2662C21.7865 24.0409 21.7116 23.7403 21.6364 23.515L20.5846 21.787L21.6364 20.7352L23.2892 21.787C23.5146 21.9371 23.8151 21.9371 24.0404 21.787C24.341 21.6368 24.5663 21.5616 24.8668 21.4864C25.0921 21.4112 25.3175 21.1859 25.3927 20.9605L25.8434 19.0072H27.3458L27.7964 20.9605C27.8716 21.1859 28.0218 21.4112 28.3223 21.4864C28.6229 21.5616 28.8482 21.7118 29.1487 21.787C29.374 21.9371 29.6746 21.8622 29.8999 21.787L31.628 20.7352L32.6797 21.787L31.628 23.4398C31.4778 23.6652 31.4778 23.9657 31.628 24.191C31.7781 24.4916 31.8533 24.7169 31.9285 25.0174C32.0037 25.2427 32.229 25.4681 32.4544 25.5433L34.4077 25.994L34.408 27.4964L34.5581 27.4964Z" fill="#EA5501"/>
<path d="M22.313 12.6964V11.194C22.313 10.518 21.9373 9.99182 21.3364 9.69158V9.01558C21.3364 5.78513 19.3831 2.93038 16.3779 1.72829C16.3779 1.27761 16.2278 0.826702 15.9273 0.451203C15.7019 0.150401 15.3262 0 14.8755 0H12.0957C11.72 0 11.2693 0.150139 11.044 0.45068C10.7434 0.75122 10.5933 1.20188 10.5933 1.72777C7.58814 2.92993 5.63478 5.78461 5.63478 9.01505V9.69106C5.10891 9.9164 4.6582 10.5175 4.6582 11.1935V12.6959C4.6582 13.5974 5.4094 14.2735 6.23586 14.2735H6.31106V14.3487C6.31106 18.4056 9.61671 23.2888 13.4481 23.2888C17.2796 23.2888 20.5851 18.3303 20.5851 14.3487V14.2735H20.6603C21.6371 14.274 22.3132 13.5229 22.3132 12.6964L22.313 12.6964ZM12.0958 1.50251H14.8755C14.8755 1.50251 14.9507 1.57771 14.9507 1.72785L14.575 7.21223H12.3963L12.0206 1.72785C12.0958 1.57745 12.0958 1.50251 12.0958 1.50251ZM10.6683 3.30548L10.8937 7.28713C10.9689 8.11352 11.5697 8.7146 12.396 8.7146H14.65C15.4012 8.7146 16.0775 8.11353 16.1524 7.28713L16.3777 3.30548C18.5564 4.35725 19.9087 6.53593 19.9087 9.01517V9.54105H7.13788V9.01517C7.13788 6.61112 8.49016 4.43245 10.6686 3.30548H10.6683ZM13.5233 21.8618C10.5181 21.8618 7.88876 17.6547 7.88876 14.4242V14.349H19.1578V14.4242C19.1578 17.6544 16.5284 21.8618 13.5233 21.8618ZM6.3111 12.7714C6.2359 12.7714 6.2359 12.6962 6.2359 12.6962V11.1938C6.2359 11.1186 6.3111 11.1186 6.3111 11.1186H20.7354C20.8106 11.1186 20.8856 11.1938 20.8856 11.1938V12.6962C20.8856 12.7714 20.8104 12.7714 20.7354 12.7714H6.3111Z" fill="#EA5501"/>
</svg>
