<svg width="30" height="35" viewBox="0 0 30 35" fill="none" xmlns="http://www.w3.org/2000/svg">
<path d="M20.6984 22.653C24.3306 16.928 23.874 17.6423 23.9787 17.493C25.3011 15.6195 26 13.4144 26 11.1161C26 5.02098 21.0759 0 15 0C8.94387 0 4 5.01107 4 11.1161C4 13.4129 4.7136 15.6757 6.07933 17.5745L9.30147 22.6531C5.85647 23.1848 0 24.7696 0 28.2589C0 29.5309 0.826533 31.3436 4.76413 32.7562C7.5136 33.7425 11.1487 34.2857 15 34.2857C22.2017 34.2857 30 32.2452 30 28.2589C30 24.7689 24.1504 23.1859 20.6984 22.653ZM7.74993 16.4695C7.73893 16.4523 7.72747 16.4354 7.71547 16.4188C6.579 14.8483 6 12.9871 6 11.1161C6 6.09254 10.0271 2.00893 15 2.00893C19.9626 2.00893 24 6.09435 24 11.1161C24 12.9901 23.4319 14.7882 22.3569 16.3173C22.2606 16.4449 22.7632 15.6606 15 27.8966L7.74993 16.4695ZM15 32.2768C7.13373 32.2768 2 29.9543 2 28.2589C2 27.1195 4.63787 25.2459 10.4832 24.5156L14.1567 30.3055C14.3403 30.5949 14.6583 30.7701 14.9999 30.7701C15.3416 30.7701 15.6597 30.5948 15.8432 30.3055L19.5166 24.5156C25.3621 25.2459 28 27.1195 28 28.2589C28 29.9399 22.9125 32.2768 15 32.2768Z" fill="white"/>
<path d="M15.0039 6.09375C12.2469 6.09375 10.0039 8.34676 10.0039 11.1161C10.0039 13.8854 12.2469 16.1384 15.0039 16.1384C17.7609 16.1384 20.0039 13.8854 20.0039 11.1161C20.0039 8.34676 17.7609 6.09375 15.0039 6.09375ZM15.0039 14.1295C13.3497 14.1295 12.0039 12.7777 12.0039 11.1161C12.0039 9.45449 13.3497 8.10268 15.0039 8.10268C16.6581 8.10268 18.0039 9.45449 18.0039 11.1161C18.0039 12.7777 16.6581 14.1295 15.0039 14.1295Z" fill="white"/>
</svg>
