<svg width="124" height="89" viewBox="0 0 124 89" fill="none" xmlns="http://www.w3.org/2000/svg">
<g opacity="0.05">
<path d="M26.138 31.4439C23.8292 18.6777 19.9359 9.48774 16.8575 3.78365C15.6352 1.5654 18.1251 -0.924492 20.2981 0.343086C46.1023 15.3729 57.4199 37.2838 58.8233 54.8941C60.0456 70.0597 49.6787 85.678 34.0151 88.5301C18.3515 91.3821 3.32165 80.9699 0.46961 65.3063C-2.51824 48.8731 9.071 33.0737 26.138 31.4439Z" fill="#142340"/>
<path d="M90.4652 31.4439C88.1564 18.6777 84.2631 9.48774 81.1847 3.78365C79.9624 1.5654 82.4523 -0.924492 84.6253 0.343086C110.429 15.3729 121.747 37.2838 123.151 54.8941C124.373 70.0597 114.006 85.678 98.3422 88.5301C82.6786 91.3821 67.6488 80.9699 64.7968 65.3063C61.8089 48.8731 73.3982 33.0737 90.4652 31.4439Z" fill="#142340"/>
</g>
</svg>
