<svg width="60" height="60" viewBox="0 0 60 60" fill="none" xmlns="http://www.w3.org/2000/svg">
<path fill-rule="evenodd" clip-rule="evenodd" d="M46.9795 38.0629V24.9524C45.9927 24.2475 44.9706 23.5074 43.9486 22.6968V38.0629H46.9795ZM16.071 41.8692V40.1775H2.11461V41.8692H16.071ZM16.071 38.0629V22.6968C15.0489 23.5074 14.0269 24.2475 13.0401 24.9524V38.0629H16.071ZM16.071 19.983V1.0573C16.071 0.493408 16.5292 0 17.0931 0H21.0756C21.6395 0 22.1329 0.493408 22.1329 1.0573V15.6128H37.8867V1.0573C37.8867 0.493408 38.3449 0 38.944 0H42.8913C43.4904 0 43.9486 0.493408 43.9486 1.0573V19.983C51.3497 26.2564 59.209 29.0053 59.2795 29.0406C60.6187 29.4988 59.9138 31.4724 58.6098 31.0142C58.4336 30.979 56.7419 30.3798 54.2044 29.1463V38.0629H58.9623C59.5262 38.0629 59.9843 38.5563 59.9843 39.1202V42.9265C59.9843 43.4904 59.5262 43.9838 58.9623 43.9838H45.8165V58.9623L45.4993 59.7024L45.4288 59.7729L44.7592 59.9843H37.0761C36.477 59.9843 36.0188 59.5262 36.0188 58.9623V43.9838H24.0008V58.9623L23.6483 59.7024L23.6131 59.7729L22.9435 59.9843H15.2604C14.6613 59.9843 14.2031 59.5262 14.2031 58.9623V43.9838H1.0573C0.493408 43.9838 0 43.4904 0 42.9265V39.1202C0 38.5563 0.493408 38.0629 1.0573 38.0629H5.77992V29.1463C3.20715 30.4151 1.44498 31.0847 1.0573 31.0847C-0.10573 31.0847 -0.387678 29.4283 0.704869 29.0406C0.810599 29.0053 8.66989 26.2564 16.071 19.983ZM22.1329 17.7274V19.4191H37.8867V17.7274H22.1329ZM22.1329 21.5337V38.0629H37.8867V21.5337H22.1329ZM22.1329 40.1775V41.8692H37.8867V40.1775H22.1329ZM20.0183 41.8692V2.11461H18.1504V41.8692H20.0183ZM43.9486 40.1775V41.8692H57.905V40.1775H43.9486ZM52.0898 38.0629V28.0538C51.1735 27.5604 50.1514 26.9612 49.0941 26.3268V38.0629H52.0898ZM7.89453 38.0629H10.9255V26.3268C9.86816 26.9612 8.8461 27.5604 7.89453 28.0538V38.0629ZM41.834 41.8692V2.11461H40.0013V41.8692H41.834ZM43.7019 52.7594V43.9838H38.1334V52.7594H43.7019ZM21.8862 52.7594V43.9838H16.2825V52.7594H21.8862ZM38.1334 57.905H43.7019V54.8388H38.1334V57.905ZM16.2825 57.905H21.8862V54.8388H16.2825V57.905Z" fill="#EA5501"/>
</svg>
