<svg width="70" height="70" viewBox="0 0 70 70" fill="none" xmlns="http://www.w3.org/2000/svg">
<path d="M17.0874 2.20563C12.1468 7.14597 7.14931 12.144 2.23564 17.0577C4.52665 17.2773 15.963 17.195 17.0874 16.923V2.20563ZM52.6241 67.8409C57.7236 62.7481 62.8081 57.6702 67.824 52.6607C65.7867 52.4616 53.7831 52.5305 52.6241 52.7735V67.8409ZM17.1398 18.4982C14.7021 18.2254 2.08606 18.3122 1.01734 18.593V68.1369C1.48503 67.6966 1.85102 67.37 2.19785 67.0237C6.83761 62.3882 11.459 57.734 16.1286 53.1289C16.8787 52.3889 17.1664 51.6492 17.1624 50.6002C17.1246 40.4319 17.1398 30.2634 17.1398 20.095V18.4982ZM18.4366 17.0901C18.8471 17.1106 19.1439 17.1383 19.4407 17.1383C29.9651 17.1407 40.4895 17.1319 51.014 17.1569C51.7952 17.1588 52.334 16.9177 52.877 16.3707C57.748 11.4629 62.6452 6.5814 67.5336 1.69108C67.7087 1.51562 67.87 1.32612 68.1301 1.04279H18.4366V17.0901ZM51.5929 52.6319H17.9876C16.1714 54.4955 14.4235 56.3342 12.6246 58.1219C10.8279 59.9071 8.94948 61.6107 7.16368 63.4063C5.39493 65.1847 3.69724 67.0333 1.79964 69.0285C18.3019 69.0285 34.5194 69.0288 50.7369 69.027C50.9395 69.0267 51.1423 69.0059 51.344 68.9846C51.3866 68.9804 51.4271 68.9354 51.4641 68.9037C51.5027 68.871 51.536 68.8318 51.5929 68.7738L51.5929 52.6319ZM52.6065 18.0609C52.3318 26.642 52.4673 50.3351 52.7931 51.5451H68.9672V1.71275C63.5244 7.15153 58.114 12.5576 52.6065 18.0609ZM51.6267 18.4493C51.2613 18.4096 51.0664 18.3699 50.8716 18.3699C40.144 18.3792 29.4165 18.3918 18.6887 18.4067C18.6456 18.4069 18.5982 18.4429 18.5601 18.4713C18.5199 18.5014 18.4885 18.5432 18.3648 18.6718C18.3648 29.1978 18.3645 39.8184 18.3669 50.4394C18.3669 50.7431 18.3922 51.0474 18.4137 51.3508C18.4167 51.3918 18.4662 51.4315 18.4986 51.468C18.5322 51.5057 18.5716 51.5388 18.6663 51.6287H19.8226C29.8389 51.6287 39.8558 51.6295 49.8723 51.6282C51.0389 51.628 51.6235 51.035 51.6262 49.849C51.6275 39.8833 51.6267 29.9173 51.6267 19.9516V18.4493ZM69.9784 0.0933546V1.65872C69.9784 18.0873 69.9691 34.5158 70 50.9441C70.0021 51.9974 69.687 52.7294 68.9433 53.4648C63.7355 58.6143 58.5588 63.7957 53.4045 68.9993C52.7103 69.7001 52.0169 70.0052 51.0151 70.0033C34.5356 69.973 18.0563 69.9818 1.57712 69.9818H0.150395C0.0968955 69.5971 0.02183 69.3102 0.02183 69.0235C0.0162402 52.1371 0.0218298 35.251 3.1132e-06 18.3646C-0.0010616 17.5754 0.270976 17.0454 0.811585 16.5083C6.04227 11.3087 11.2607 6.09747 16.452 0.859399C17.0807 0.225257 17.723 -0.00103454 18.5961 3.5532e-06C35.228 0.0205393 51.8596 0.0145612 68.4918 0.0180694C68.9361 0.0181998 69.3803 0.0619029 69.9784 0.0933546Z" fill="#EA5501"/>
</svg>
