<svg width="55" height="55" viewBox="0 0 55 55" fill="none" xmlns="http://www.w3.org/2000/svg">
<path d="M40.0841 25.241C39.1927 25.241 38.3214 24.9767 37.5802 24.4815C36.839 23.9862 36.2613 23.2824 35.9202 22.4588C35.5791 21.6353 35.4898 20.7291 35.6638 19.8548C35.8377 18.9805 36.2669 18.1774 36.8972 17.5471C37.5275 16.9168 38.3306 16.4876 39.2049 16.3137C40.0791 16.1397 40.9853 16.229 41.8089 16.5701C42.6324 16.9113 43.3363 17.4889 43.8316 18.2301C44.3268 18.9713 44.5912 19.8427 44.5912 20.7341C44.5912 21.9294 44.1163 23.0758 43.2711 23.921C42.4259 24.7662 41.2795 25.241 40.0841 25.241ZM40.0841 18.0301C39.5501 18.0301 39.0281 18.1884 38.5841 18.4851C38.1401 18.7818 37.794 19.2035 37.5897 19.6968C37.3853 20.1902 37.3319 20.733 37.436 21.2568C37.5402 21.7805 37.7974 22.2616 38.175 22.6392C38.5526 23.0168 39.0336 23.274 39.5574 23.3782C40.0811 23.4824 40.624 23.4289 41.1174 23.2245C41.6108 23.0202 42.0324 22.6741 42.3291 22.2301C42.6258 21.7861 42.7841 21.2641 42.7841 20.7301C42.7845 20.3752 42.715 20.0238 42.5795 19.6959C42.444 19.368 42.2451 19.07 41.9944 18.8189C41.7436 18.5679 41.4458 18.3687 41.1181 18.2329C40.7903 18.097 40.439 18.0271 40.0841 18.0271V18.0301Z" fill="#EA5501"/>
<path d="M14.8459 25.241C13.9545 25.241 13.0831 24.9767 12.3419 24.4815C11.6007 23.9862 11.0231 23.2824 10.6819 22.4588C10.3408 21.6353 10.2516 20.7291 10.4255 19.8548C10.5994 18.9805 11.0286 18.1774 11.6589 17.5471C12.2893 16.9168 13.0923 16.4876 13.9666 16.3137C14.8409 16.1397 15.7471 16.229 16.5706 16.5701C17.3942 16.9113 18.0981 17.4889 18.5933 18.2301C19.0885 18.9713 19.3529 19.8427 19.3529 20.7341C19.3529 21.9294 18.878 23.0758 18.0328 23.921C17.1876 24.7662 16.0412 25.241 14.8459 25.241ZM14.8459 18.0301C14.3119 18.0301 13.7898 18.1884 13.3458 18.4851C12.9018 18.7818 12.5558 19.2035 12.3514 19.6968C12.147 20.1902 12.0936 20.733 12.1977 21.2568C12.3019 21.7805 12.5591 22.2616 12.9367 22.6392C13.3143 23.0168 13.7954 23.274 14.3191 23.3782C14.8429 23.4824 15.3858 23.4289 15.8791 23.2245C16.3725 23.0202 16.7942 22.6741 17.0908 22.2301C17.3875 21.7861 17.5459 21.2641 17.5459 20.7301C17.5463 20.3752 17.4767 20.0238 17.3412 19.6959C17.2057 19.368 17.0069 19.07 16.7561 18.8189C16.5054 18.5679 16.2076 18.3687 15.8798 18.2329C15.552 18.097 15.2007 18.0271 14.8459 18.0271V18.0301Z" fill="#EA5501"/>
<path d="M45.4919 31.045L54.0849 23.234C54.3309 23.0131 54.531 22.7458 54.6738 22.4475C54.8165 22.1492 54.8991 21.8258 54.9169 21.4956C54.9346 21.1654 54.8871 20.8349 54.7772 20.523C54.6672 20.2112 54.4969 19.924 54.2759 19.678C54.055 19.432 53.7877 19.2319 53.4894 19.0891C53.1911 18.9464 52.8677 18.8638 52.5375 18.846C52.2073 18.8283 51.8768 18.8758 51.5649 18.9857C51.2531 19.0957 50.9659 19.2661 50.7199 19.487L44.2479 25.238H35.1479L28.3639 33.531V10.816H37.3779V14.422H52.2319L50.0689 9.016L52.2319 3.608H41.8869V0H26.5629V33.531L19.7789 25.238H10.6789L4.20891 19.486C3.71189 19.039 3.05765 18.8077 2.39012 18.8431C1.72258 18.8784 1.09643 19.1775 0.649406 19.6745C0.202384 20.1715 -0.0288907 20.8258 0.00645988 21.4933C0.0418105 22.1608 0.340891 22.787 0.837906 23.234L9.43791 31.045V52.28H0.422906V54.08H54.5059V52.28H45.4919V31.045ZM41.8869 5.408H49.5689L48.1269 9.016L49.5689 12.616H39.1819V10.816H41.8819L41.8869 5.408ZM28.3659 1.802H40.0839V9.016H28.3659V1.802ZM18.4509 52.28H15.7509V39.66H13.9509V52.28H11.2379V30.248L2.05591 21.903C1.9307 21.7863 1.85101 21.629 1.83105 21.459C1.81108 21.289 1.85214 21.1175 1.94691 20.975C2.00335 20.8904 2.07726 20.8188 2.16366 20.7651C2.25006 20.7113 2.34695 20.6767 2.44783 20.6636C2.54871 20.6504 2.65124 20.659 2.74853 20.6887C2.84583 20.7185 2.93563 20.7687 3.01191 20.836L9.99491 27.036H18.9239L25.6239 35.228C25.687 35.3016 25.7349 35.3871 25.7648 35.4793C25.7947 35.5716 25.806 35.6689 25.798 35.7655C25.79 35.8622 25.7629 35.9563 25.7183 36.0424C25.6736 36.1285 25.6124 36.2049 25.538 36.2672C25.4636 36.3294 25.3776 36.3763 25.285 36.4051C25.1924 36.4339 25.095 36.444 24.9984 36.4349C24.9019 36.4257 24.8081 36.3975 24.7225 36.3519C24.637 36.3063 24.5613 36.2441 24.4999 36.169L18.4509 29.116V52.28ZM34.6759 52.28H20.2529V33.98L23.1379 37.344C23.5419 37.8147 24.1043 38.121 24.7188 38.2051C25.3334 38.2891 25.9574 38.145 26.4729 37.8C26.5069 37.777 26.5349 37.749 26.5729 37.724V45.068H28.3729V37.726C28.4069 37.752 28.4369 37.782 28.4729 37.806C28.9881 38.1487 29.6108 38.2911 30.2238 38.2066C30.8368 38.1221 31.3977 37.8163 31.8009 37.347L34.6779 33.982L34.6759 52.28ZM43.6899 52.28H40.9899V39.66H39.1899V52.28H36.4899V29.116L30.4379 36.179C30.3209 36.3148 30.1581 36.403 29.9804 36.4268C29.8027 36.4505 29.6225 36.4083 29.4739 36.308C29.3891 36.2515 29.3171 36.1778 29.2624 36.0918C29.2078 36.0058 29.1718 35.9093 29.1567 35.8085C29.1417 35.7077 29.1479 35.6048 29.1749 35.5066C29.202 35.4083 29.2493 35.3169 29.3139 35.238L36.0139 27.043H44.9379L51.9199 20.836C51.9956 20.7677 52.0853 20.7167 52.1827 20.6866C52.2801 20.6566 52.3829 20.6482 52.4839 20.662C52.5863 20.6747 52.6846 20.7097 52.772 20.7645C52.8594 20.8192 52.9338 20.8924 52.9899 20.979C53.084 21.121 53.1242 21.2918 53.1035 21.4608C53.0828 21.6299 53.0024 21.7859 52.8769 21.901L43.6939 30.249L43.6899 52.28Z" fill="#EA5501"/>
</svg>
