<svg width="55" height="55" viewBox="0 0 55 55" fill="none" xmlns="http://www.w3.org/2000/svg">
<path d="M37.3861 46.861L31.3741 45.518V43.564C32.7794 42.5914 33.7867 41.1445 34.2111 39.489C34.8712 39.3577 35.4654 39.0019 35.8927 38.4819C36.3201 37.9619 36.5541 37.31 36.5551 36.637V34.1C36.5542 33.4035 36.3038 32.7304 35.8491 32.2027C35.3945 31.675 34.7658 31.3278 34.0771 31.224C33.7207 30.1644 33.1227 29.2023 32.3304 28.4137C31.5381 27.625 30.5733 27.0315 29.5121 26.68C29.3853 26.1537 29.0829 25.6863 28.6549 25.3549C28.2268 25.0235 27.6986 24.8478 27.1573 24.8569C26.616 24.866 26.094 25.0593 25.6773 25.4049C25.2606 25.7505 24.9741 26.2277 24.8651 26.758C23.8515 27.1261 22.9347 27.7192 22.1835 28.4927C21.4323 29.2663 20.8663 30.2001 20.5281 31.224C19.8397 31.3282 19.2115 31.6757 18.7572 32.2033C18.303 32.7309 18.0528 33.4038 18.0521 34.1V36.638C18.053 37.311 18.287 37.9629 18.7144 38.4829C19.1417 39.0028 19.736 39.3587 20.3961 39.49C20.8205 41.1455 21.8278 42.5924 23.2331 43.565V45.519L17.2211 46.862C16.1046 47.106 15.1056 47.7256 14.3909 48.6174C13.6761 49.5092 13.289 50.6192 13.2941 51.762V54.083H14.8801V51.762C14.8764 50.9798 15.1412 50.2201 15.6303 49.6097C16.1193 48.9993 16.803 48.5751 17.5671 48.408L23.3491 47.116C23.5679 47.9994 24.0762 48.7841 24.7929 49.3449C25.5096 49.9058 26.3935 50.2105 27.3036 50.2105C28.2136 50.2105 29.0975 49.9058 29.8142 49.3449C30.531 48.7841 31.0393 47.9994 31.2581 47.116L37.0391 48.408C37.8032 48.5751 38.4868 48.9993 38.9759 49.6097C39.4649 50.2201 39.7297 50.9798 39.7261 51.762V54.083H41.3121V51.762C41.3171 50.6192 40.93 49.5092 40.2153 48.6174C39.5006 47.7256 38.5016 47.106 37.3851 46.862L37.3861 46.861ZM29.5771 28.4C30.8125 28.9622 31.8028 29.9525 32.3651 31.188H29.5771V28.4ZM26.4051 27.223C26.4051 27.0127 26.4886 26.811 26.6373 26.6623C26.786 26.5135 26.9877 26.43 27.1981 26.43C27.4084 26.43 27.6101 26.5135 27.7588 26.6623C27.9075 26.811 27.9911 27.0127 27.9911 27.223V31.188H26.4051V27.223ZM24.8191 28.5V31.191H22.2391C22.7628 30.0232 23.6743 29.0724 24.8191 28.5ZM19.6391 36.637V34.1C19.6393 33.7495 19.7787 33.4134 20.0266 33.1655C20.2744 32.9176 20.6105 32.7783 20.9611 32.778H33.6481C33.9986 32.7783 34.3347 32.9176 34.5826 33.1655C34.8304 33.4134 34.9698 33.7495 34.9701 34.1V36.638C34.9698 36.9885 34.8304 37.3246 34.5826 37.5725C34.3347 37.8204 33.9986 37.9597 33.6481 37.96H20.9601C20.6095 37.9595 20.2735 37.8199 20.0259 37.5718C19.7782 37.3237 19.6391 36.9875 19.6391 36.637ZM29.7891 46.153C29.7891 46.8121 29.5273 47.4441 29.0612 47.9102C28.5952 48.3762 27.9631 48.638 27.3041 48.638C26.645 48.638 26.0129 48.3762 25.5469 47.9102C25.0809 47.4441 24.8191 46.8121 24.8191 46.153V44.39C26.4234 44.979 28.1848 44.979 29.7891 44.39V46.153ZM22.0701 39.545H32.5391C32.1545 40.6257 31.445 41.5608 30.5077 42.2221C29.5705 42.8834 28.4516 43.2384 27.3046 43.2384C26.1575 43.2384 25.0386 42.8834 24.1014 42.2221C23.1642 41.5608 22.4546 40.6257 22.0701 39.545ZM1.87506 5.022H0.289062V0H5.31106V1.586H1.87506V5.022ZM1.87506 26.01H5.31106V27.6H0.289062V22.574H1.87506V26.01ZM19.3211 1.586H15.8851V0H20.9071V5.022H19.3211V1.586ZM19.3211 22.574H20.9071V27.6H15.8851V26.011H19.3211V22.574ZM35.2871 5.022H33.7011V0H38.7231V1.586H35.2871V5.022ZM38.7231 27.6H33.7011V22.574H35.2871V26.01H38.7231V27.6ZM54.3191 0V5.022H52.7331V1.586H49.2971V0H54.3191ZM52.7331 22.574H54.3191V27.6H49.2971V26.011H52.7331V22.574ZM37.9331 23.574H50.0901V4.018H37.9301L37.9331 23.574ZM45.3331 21.988H42.6881V19.349H45.3311L45.3331 21.988ZM39.5161 5.6H48.5031V21.993H46.9181V17.763H41.1021V21.992H39.5161V5.6ZM46.3891 9.833H44.8031V8.247H46.3891V9.833ZM43.2171 9.833H41.6311V8.247H43.2171V9.833ZM43.2171 13.005H41.6311V11.419H43.2171V13.005ZM46.3891 13.005H44.8031V11.419H46.3891V13.005ZM43.2171 16.177H41.6311V14.591H43.2171V16.177ZM46.3891 16.177H44.8031V14.591H46.3891V16.177ZM4.51806 14.168V22.627H16.6781V14.168H19.7471L10.5981 3.712L1.44906 14.168H4.51806ZM11.3911 21.041H9.80506V18.133C9.80506 17.9227 9.88861 17.721 10.0373 17.5723C10.186 17.4235 10.3877 17.34 10.5981 17.34C10.8084 17.34 11.0101 17.4235 11.1588 17.5723C11.3075 17.721 11.3911 17.9227 11.3911 18.133V21.041ZM15.0911 21.041H12.9771V18.133C12.9771 17.502 12.7264 16.8969 12.2803 16.4508C11.8341 16.0046 11.229 15.754 10.5981 15.754C9.96711 15.754 9.362 16.0046 8.91586 16.4508C8.46971 16.8969 8.21906 17.502 8.21906 18.133V21.041H6.10406V14.168H15.0911V21.041ZM10.5981 6.121L16.2521 12.582H4.94406L10.5981 6.121ZM13.7391 35.083L11.3921 32.736V42.452H9.80506V32.736L7.45806 35.083L6.33906 33.961L10.5981 29.7L14.8591 33.961L13.7391 35.083ZM44.0101 29.7L48.2721 33.961L47.1501 35.082L44.8031 32.735V42.451H43.2171V32.736L40.8701 35.083L39.7491 33.962L44.0101 29.7Z" fill="#EA5501"/>
</svg>
