<svg width="55" height="55" viewBox="0 0 55 55" fill="none" xmlns="http://www.w3.org/2000/svg">
<path d="M50.3771 27.4573C50.3049 27.3808 50.2183 27.3193 50.1223 27.2763C50.0263 27.2332 49.9227 27.2095 49.8176 27.2065C49.7124 27.2035 49.6077 27.2212 49.5094 27.2587C49.4111 27.2961 49.3211 27.3526 49.2446 27.4248C49.1681 27.497 49.1066 27.5836 49.0635 27.6796C49.0205 27.7756 48.9968 27.8792 48.9938 27.9843C48.9908 28.0895 49.0085 28.1942 49.046 28.2925C49.0834 28.3908 49.1399 28.4808 49.2121 28.5573C51.7053 31.2005 53.09 34.6992 53.0809 38.3327C53.0719 41.9663 51.6698 45.458 49.1635 48.0888C46.6572 50.7196 43.2374 52.289 39.6086 52.474C35.9797 52.659 32.4181 51.4453 29.6573 49.083C26.8964 46.7207 25.1466 43.3896 24.7682 39.7758C24.3897 36.162 25.4115 32.5407 27.6231 29.6577C29.8346 26.7747 33.0675 24.8495 36.656 24.2787C40.2444 23.7078 43.9151 24.5348 46.9121 26.5893C47.0869 26.7097 47.3023 26.7558 47.511 26.7173C47.7198 26.6789 47.9047 26.5591 48.0251 26.3843C48.1455 26.2095 48.1915 25.9941 48.1531 25.7853C48.1147 25.5766 47.9949 25.3917 47.8201 25.2713C45.9821 24.0085 43.8977 23.1489 41.7039 22.7491C39.51 22.3492 37.2564 22.4181 35.0911 22.9513C34.7983 22.6448 34.4463 22.4011 34.0564 22.2348C33.6665 22.0686 33.2469 21.9834 32.8231 21.9843H32.5091C32.7732 21.5142 32.911 20.9836 32.9091 20.4443V17.4963C32.908 16.6639 32.5769 15.8658 31.9882 15.2772C31.3996 14.6885 30.6015 14.3574 29.7691 14.3563H26.3691L20.0171 3.35631C19.6578 2.72586 19.1373 2.20239 18.5088 1.83967C17.8804 1.47694 17.1667 1.28802 16.4411 1.29231C15.716 1.28814 15.0029 1.47703 14.375 1.83958C13.7471 2.20213 13.227 2.72528 12.8681 3.35531L6.51509 14.3553H4.46509C3.63263 14.3564 2.83457 14.6875 2.24594 15.2762C1.6573 15.8648 1.32614 16.6629 1.32509 17.4953V20.4403C1.32614 21.2728 1.6573 22.0708 2.24594 22.6595C2.83457 23.2481 3.63263 23.5793 4.46509 23.5803H4.77909C4.51494 24.0505 4.37713 24.581 4.37909 25.1203V28.0653C4.37713 28.6046 4.51494 29.1352 4.77909 29.6053H3.17809C2.34538 29.6061 1.54702 29.9373 0.958295 30.5262C0.369574 31.1151 0.0386154 31.9136 0.0380859 32.7463L0.0380859 35.6913C0.0390168 36.425 0.296419 37.1352 0.765745 37.6992C1.23507 38.2631 1.88678 38.6452 2.60809 38.7793C2.32265 39.2616 2.17238 39.8119 2.17309 40.3723V43.3173C2.17256 43.9263 2.35019 44.5221 2.68409 45.0313C2.06791 45.2456 1.53361 45.6462 1.15521 46.1776C0.776805 46.709 0.573022 47.3449 0.572086 47.9973V50.9423C0.573144 51.7748 0.904305 52.5728 1.49294 53.1615C2.08157 53.7501 2.87963 54.0812 3.71209 54.0823H29.0241C29.5952 54.0809 30.1551 53.9243 30.644 53.6292C31.133 53.3342 31.5326 52.9118 31.8001 52.4073C35.1176 54.063 38.9117 54.4992 42.5183 53.6396C46.125 52.7801 49.3145 50.6796 51.5287 47.7056C53.7429 44.7317 54.8407 41.0738 54.63 37.3721C54.4192 33.6704 52.9134 30.1608 50.3761 27.4573H50.3771ZM3.77709 43.3173V40.3713C3.77762 39.963 3.94003 39.5716 4.22873 39.2829C4.51742 38.9943 4.90881 38.8318 5.31709 38.8313H23.0901C23.1593 40.9141 23.6427 42.9623 24.5121 44.8563H5.31309C4.90482 44.8558 4.51342 44.6934 4.22473 44.4047C3.93603 44.116 3.77362 43.7246 3.77309 43.3163L3.77709 43.3173ZM33.0591 23.6003C30.0453 24.8026 27.4719 26.8989 25.6851 29.6073H21.9001V23.5823H32.8281C32.9054 23.5825 32.9826 23.5885 33.0591 23.6003ZM31.3181 17.5003V20.4453C31.3176 20.8536 31.1551 21.245 30.8664 21.5337C30.5778 21.8224 30.1864 21.9848 29.7781 21.9853H21.9001V21.2643H23.2091C23.8513 21.264 24.4846 21.114 25.0587 20.8261C25.6327 20.5382 26.1317 20.1204 26.5161 19.6059C26.9004 19.0914 27.1594 18.4944 27.2726 17.8622C27.3858 17.23 27.35 16.5802 27.1681 15.9643H29.7781C30.185 15.9648 30.5752 16.1261 30.8636 16.4131C31.1521 16.7001 31.3154 17.0894 31.3181 17.4963V17.5003ZM2.92609 20.4413V17.4963C2.92662 17.088 3.08903 16.6966 3.37773 16.4079C3.66642 16.1193 4.05782 15.9568 4.46609 15.9563H5.72209C5.51993 16.6278 5.49445 17.3401 5.64809 18.0243C5.6712 18.1268 5.71427 18.2237 5.77485 18.3096C5.83543 18.3954 5.91232 18.4685 6.00114 18.5247C6.08996 18.5808 6.18896 18.6189 6.2925 18.6367C6.39604 18.6546 6.50209 18.6519 6.60459 18.6288C6.70708 18.6057 6.80402 18.5626 6.88987 18.502C6.97572 18.4415 7.0488 18.3646 7.10493 18.2758C7.16107 18.1869 7.19916 18.0879 7.21703 17.9844C7.2349 17.8808 7.2322 17.7748 7.20909 17.6723C7.06876 17.0556 7.17003 16.4086 7.49209 15.8643L14.2561 4.14931C14.4757 3.7636 14.794 3.44331 15.1784 3.22135C15.5627 2.99938 15.9993 2.88374 16.4431 2.88631C16.8888 2.88281 17.3273 2.99853 17.7132 3.22147C18.0991 3.44442 18.4185 3.76648 18.6381 4.15431L25.3981 15.8683C25.62 16.2526 25.7368 16.6885 25.7368 17.1322C25.7368 17.576 25.62 18.0119 25.3982 18.3962C25.1763 18.7805 24.8572 19.0996 24.473 19.3215C24.0887 19.5434 23.6528 19.6603 23.2091 19.6603H21.0991C20.8869 19.6603 20.6834 19.7446 20.5334 19.8946C20.3834 20.0446 20.2991 20.2481 20.2991 20.4603V32.8053C20.2975 33.148 20.1607 33.4762 19.9183 33.7186C19.676 33.9609 19.3478 34.0977 19.0051 34.0993H13.8871C13.5444 34.0977 13.2162 33.9609 12.9738 33.7186C12.7315 33.4762 12.5947 33.148 12.5931 32.8053V20.4603C12.5931 20.2481 12.5088 20.0446 12.3588 19.8946C12.2087 19.7446 12.0053 19.6603 11.7931 19.6603H9.68109C9.38422 19.6615 9.08944 19.6108 8.81009 19.5103C8.70993 19.4662 8.60179 19.4432 8.49236 19.4425C8.38293 19.4419 8.27453 19.4637 8.17387 19.5067C8.07322 19.5496 7.98244 19.6128 7.90716 19.6922C7.83188 19.7716 7.77369 19.8656 7.7362 19.9684C7.69871 20.0712 7.68271 20.1807 7.68919 20.2899C7.69567 20.3991 7.7245 20.5059 7.77388 20.6035C7.82327 20.7012 7.89217 20.7877 7.97631 20.8576C8.06045 20.9276 8.15806 20.9796 8.26309 21.0103C8.71769 21.1749 9.19762 21.2585 9.68109 21.2573H10.9911V21.9783H4.46509C4.05682 21.9778 3.66542 21.8154 3.37673 21.5267C3.08803 21.238 2.92562 20.8466 2.92509 20.4383L2.92609 20.4413ZM5.97609 28.0663V25.1243C5.97662 24.716 6.13903 24.3246 6.42773 24.0359C6.71642 23.7473 7.10782 23.5848 7.51609 23.5843H10.9931V29.6093H7.51509C7.10647 29.6088 6.71477 29.4461 6.42602 29.157C6.13727 28.8678 5.97509 28.4759 5.97509 28.0673L5.97609 28.0663ZM1.63809 35.6913V32.7463C1.63862 32.3381 1.80107 31.9468 2.08979 31.6583C2.37851 31.3698 2.76991 31.2076 3.17809 31.2073H10.9911V32.8073C10.9911 33.5764 11.2966 34.3141 11.8405 34.8579C12.3843 35.4018 13.122 35.7073 13.8911 35.7073H19.0091C19.7782 35.7073 20.5158 35.4018 21.0597 34.8579C21.6036 34.3141 21.9091 33.5764 21.9091 32.8073V31.2073H24.7581C23.8125 33.0849 23.254 35.1335 23.1161 37.2313H3.17809C2.76982 37.2308 2.37842 37.0684 2.08973 36.7797C1.80103 36.491 1.63862 36.0996 1.63809 35.6913ZM29.0241 52.4823H3.71209C3.30382 52.4818 2.91242 52.3194 2.62373 52.0307C2.33503 51.742 2.17262 51.3506 2.17209 50.9423V47.9973C2.17262 47.589 2.33503 47.1976 2.62373 46.9089C2.91242 46.6203 3.30382 46.4578 3.71209 46.4573H25.3611C26.626 48.5405 28.3524 50.3055 30.4071 51.6163C30.2804 51.8754 30.0838 52.0939 29.8393 52.2469C29.5949 52.4 29.3125 52.4815 29.0241 52.4823Z" fill="#EA5501"/>
<path d="M40.455 37.4554C40.172 37.3734 39.882 37.2863 39.593 37.1953V33.6494C40.0961 33.7137 40.5784 33.8904 41.004 34.1664C41.1735 34.2941 41.3867 34.3492 41.5969 34.3196C41.807 34.2901 41.9968 34.1783 42.1245 34.0089C42.2522 33.8394 42.3074 33.6261 42.2778 33.416C42.2483 33.2059 42.1365 33.016 41.967 32.8883C41.2599 32.4096 40.4433 32.1176 39.593 32.0393V31.3484C39.593 31.1362 39.5087 30.9327 39.3587 30.7827C39.2087 30.6326 39.0052 30.5483 38.793 30.5483C38.5808 30.5483 38.3773 30.6326 38.2273 30.7827C38.0773 30.9327 37.993 31.1362 37.993 31.3484V32.0913C37.8383 32.1173 37.6807 32.1507 37.52 32.1913C36.8832 32.331 36.3011 32.6536 35.8452 33.1196C35.3894 33.5856 35.0796 34.1746 34.954 34.8143C34.8601 35.3162 34.9174 35.8347 35.1186 36.304C35.3198 36.7733 35.6558 37.1723 36.084 37.4503C36.6852 37.8206 37.3258 38.1224 37.994 38.3503V42.8423C37.1879 42.825 36.4004 42.5967 35.71 42.1803C35.5232 42.0797 35.304 42.0574 35.1007 42.1183C34.8974 42.1793 34.7266 42.3185 34.626 42.5053C34.5253 42.6922 34.503 42.9114 34.564 43.1147C34.6249 43.3179 34.7642 43.4887 34.951 43.5894C35.8731 44.1354 36.9224 44.4299 37.994 44.4433V45.2293C37.994 45.4415 38.0783 45.645 38.2283 45.795C38.3783 45.945 38.5818 46.0294 38.794 46.0294C39.0062 46.0294 39.2096 45.945 39.3597 45.795C39.5097 45.645 39.594 45.4415 39.594 45.2293V44.3914C40.4683 44.3045 41.2911 43.9374 41.9398 43.3449C42.5885 42.7524 43.0284 41.9662 43.194 41.1033C43.424 39.4373 42.35 38.0074 40.455 37.4554ZM36.955 36.1033C36.7902 35.9934 36.662 35.8367 36.5872 35.6533C36.5123 35.4698 36.4941 35.2682 36.535 35.0743C36.606 34.7412 36.7745 34.4368 37.019 34.1996C37.2634 33.9624 37.5729 33.8032 37.908 33.7423L37.996 33.7224V36.6284C37.633 36.4841 37.2834 36.3085 36.951 36.1033H36.955ZM41.611 40.8773C41.5054 41.358 41.2562 41.7952 40.8966 42.1311C40.5369 42.467 40.0837 42.6857 39.597 42.7583V38.8694L40.012 38.9923C41.145 39.3233 41.728 40.0104 41.603 40.8773H41.611Z" fill="#EA5501"/>
<path d="M38.8802 27.3594C36.7187 27.3584 34.6054 27.9985 32.8078 29.1988C31.0101 30.399 29.6087 32.1055 28.7811 34.1023C27.9534 36.0991 27.7365 38.2965 28.1579 40.4165C28.5793 42.5366 29.62 44.4841 31.1483 46.0126C32.6767 47.5411 34.6241 48.582 36.7441 49.0035C38.8641 49.4251 41.0616 49.2085 43.0584 48.381C45.0553 47.5534 46.7619 46.1523 47.9623 44.3547C49.1627 42.5571 49.803 40.4439 49.8022 38.2824C49.798 35.3869 48.646 32.6112 46.5987 30.5637C44.5513 28.5162 41.7757 27.3639 38.8802 27.3594ZM38.8802 47.6124C37.0357 47.6124 35.2327 47.0654 33.699 46.0407C32.1653 45.0159 30.97 43.5594 30.2642 41.8553C29.5583 40.1512 29.3736 38.276 29.7335 36.467C30.0933 34.6579 30.9815 32.9962 32.2858 31.6919C33.59 30.3876 35.2517 29.4994 37.0608 29.1396C38.8699 28.7797 40.745 28.9644 42.4492 29.6703C44.1533 30.3762 45.6098 31.5715 46.6345 33.1051C47.6593 34.6388 48.2062 36.4419 48.2062 38.2864C48.2033 40.7589 47.2198 43.1293 45.4715 44.8777C43.7232 46.626 41.3528 47.6095 38.8802 47.6124Z" fill="#EA5501"/>
<path d="M39.04 17.2983L39.101 17.5263C39.2391 18.0331 39.5396 18.4806 39.9565 18.8001C40.3734 19.1197 40.8837 19.2936 41.409 19.2953C41.562 19.2954 41.7148 19.2807 41.865 19.2513L44.383 18.7583C44.7041 18.6954 45.0088 18.5672 45.2782 18.3816C45.5477 18.196 45.7761 17.957 45.9493 17.6794C46.1225 17.4018 46.2368 17.0916 46.2851 16.768C46.3334 16.4444 46.3146 16.1143 46.23 15.7983L46.078 15.2303C45.9932 14.9142 45.8445 14.6189 45.6408 14.3628C45.4372 14.1066 45.183 13.895 44.8942 13.7412C44.6054 13.5874 44.288 13.4947 43.9618 13.4687C43.6356 13.4427 43.3075 13.4841 42.998 13.5903L40.571 14.4223C39.9999 14.6199 39.5247 15.0262 39.2407 15.5597C38.9568 16.0931 38.8851 16.7142 39.04 17.2983ZM41.091 15.9373L43.518 15.1053C43.6199 15.0704 43.7279 15.0567 43.8353 15.0653C43.9427 15.0739 44.0471 15.1044 44.1422 15.1551C44.2373 15.2057 44.321 15.2754 44.388 15.3597C44.4551 15.444 44.5041 15.5412 44.532 15.6453L44.684 16.2133C44.7119 16.3174 44.7181 16.4261 44.7022 16.5326C44.6864 16.6392 44.6488 16.7414 44.5917 16.8328C44.5347 16.9243 44.4595 17.003 44.3708 17.0642C44.2821 17.1253 44.1817 17.1676 44.076 17.1883L41.558 17.6813C41.3626 17.719 41.1602 17.6814 40.9914 17.576C40.8226 17.4707 40.6999 17.3053 40.648 17.1133L40.587 16.8843C40.5356 16.6918 40.559 16.487 40.6525 16.3112C40.746 16.1353 40.9027 16.0013 41.091 15.9363V15.9373Z" fill="#EA5501"/>
<path d="M35.433 11.0473C35.8614 11.4735 36.4351 11.7218 37.039 11.7426C37.6429 11.7634 38.2324 11.555 38.689 11.1593L40.623 9.47332C40.8697 9.25835 41.0695 8.99497 41.2101 8.69952C41.3507 8.40408 41.4291 8.08288 41.4404 7.75588C41.4516 7.42888 41.3955 7.10306 41.2756 6.79865C41.1556 6.49424 40.9743 6.21774 40.743 5.98632L40.327 5.57032C40.0956 5.33901 39.8191 5.15775 39.5147 5.03779C39.2103 4.91783 38.8845 4.86174 38.5575 4.87299C38.2305 4.88425 37.9093 4.96261 37.6138 5.10321C37.3184 5.24381 37.055 5.44365 36.84 5.69032L35.154 7.62432C34.7583 8.081 34.55 8.67041 34.5708 9.27431C34.5915 9.87821 34.8399 10.4519 35.266 10.8803L35.433 11.0473ZM36.361 8.67532L38.047 6.74132C38.1176 6.65969 38.2043 6.59362 38.3017 6.54731C38.3992 6.50101 38.5052 6.47547 38.613 6.47232H38.641C38.7442 6.47196 38.8464 6.49211 38.9416 6.53159C39.0369 6.57108 39.1234 6.62911 39.196 6.70232L39.612 7.11832C39.6883 7.1945 39.7482 7.28557 39.7878 7.38586C39.8274 7.48615 39.846 7.59353 39.8423 7.7013C39.8387 7.80907 39.8128 7.91494 39.7665 8.01231C39.7202 8.10969 39.6543 8.19649 39.573 8.26732L37.639 9.95332C37.4885 10.0837 37.2943 10.1523 37.0953 10.1455C36.8963 10.1386 36.7072 10.0568 36.566 9.91632L36.399 9.74932C36.2585 9.60828 36.1764 9.41929 36.1694 9.22028C36.1623 9.02127 36.2308 8.82696 36.361 8.67632V8.67532Z" fill="#EA5501"/>
<path d="M28.7873 7.21325L29.0153 7.27425C29.2155 7.32799 29.422 7.35523 29.6293 7.35525C30.1266 7.35318 30.611 7.19667 31.0155 6.90736C31.42 6.61804 31.7246 6.21022 31.8873 5.74025L32.7193 3.31325C32.8255 3.00371 32.8668 2.67565 32.8409 2.34945C32.8149 2.02324 32.7221 1.70586 32.5683 1.41702C32.4145 1.12817 32.203 0.87404 31.9468 0.6704C31.6907 0.466759 31.3954 0.317963 31.0793 0.233254L30.5113 0.0812536C30.1953 -0.00338633 29.8652 -0.022149 29.5416 0.0261305C29.218 0.0744101 28.9077 0.188701 28.6302 0.361906C28.3526 0.535111 28.1136 0.763533 27.928 1.03299C27.7424 1.30244 27.6142 1.60717 27.5513 1.92825L27.0583 4.44625C26.9432 5.04062 27.0576 5.65651 27.3784 6.16992C27.6992 6.68332 28.2026 7.05612 28.7873 7.21325ZM28.6333 4.75625L29.1263 2.23825C29.1614 2.05978 29.2571 1.89893 29.3973 1.78301C29.5375 1.66709 29.7134 1.60322 29.8953 1.60225C29.9648 1.60226 30.0341 1.61134 30.1013 1.62925L30.6693 1.78125C30.7733 1.80915 30.8706 1.85814 30.9549 1.92519C31.0392 1.99223 31.1089 2.0759 31.1595 2.17098C31.2101 2.26607 31.2407 2.37055 31.2492 2.47795C31.2578 2.58534 31.2442 2.69334 31.2093 2.79525L30.3773 5.22225C30.3113 5.40943 30.1771 5.56485 30.0016 5.65752C29.8261 5.75019 29.6221 5.7733 29.4303 5.72225L29.2023 5.66125C29.0102 5.60973 28.8447 5.48757 28.7388 5.31921C28.6329 5.15084 28.5945 4.94871 28.6313 4.75325L28.6333 4.75625Z" fill="#EA5501"/>
</svg>
